<?xml version="1.0" encoding="utf-8"?>
<!-- Generator: Adobe Illustrator 24.0.1, SVG Export Plug-In . SVG Version: 6.00 Build 0)  -->
<svg version="1.1" id="Livello_1" xmlns="http://www.w3.org/2000/svg" xmlns:xlink="http://www.w3.org/1999/xlink" x="0px" y="0px"
	 viewBox="0 0 1190.6 1190.6" style="enable-background:new 0 0 1190.6 1190.6;" xml:space="preserve">
<style type="text/css">
	.st0{fill:#7C766F;}
</style>
<g>
	<g>
		<path class="st0" d="M585.2,517.1c0.3,0,0.6,0,0.9,0c3.9,0,7.5,2.3,9.3,6.1l0,0l0,0l0,0c1.8-3.7,5.4-6,9.3-6c0.2,0,0.4,0,0.7,0
			c0.3,0,0.6,0,0.9,0c0.1,0,0.2,0,0.3,0c0-0.7,0-1.4,0-2.1c0-1.1-0.2-2.2-0.3-3.3c-0.2-2.3-0.6-4.5-1.2-6.7
			c-0.1-0.8-0.4-1.6-0.8-2.3c0,0,0,0,0-0.1c0,0,0,0,0,0c0,0,0,0,0,0c0,0,0,0,0,0c0,0,0,0,0,0c-1.5-3.1-4.7-5.2-8.3-5.2
			c-0.3,0-0.6,0-0.9,0c-0.2,0-0.4,0-0.7,0c-3.7,0-6.8,2.1-8.3,5.2c0,0,0,0,0,0c0,0,0,0,0,0c0,0,0,0,0,0c0,0,0,0,0,0c0,0,0,0,0,0.1
			c-0.3,0.7-0.6,1.5-0.8,2.3c-0.6,2.2-1,4.5-1.2,6.7c-0.1,1.1-0.3,2.2-0.3,3.3c0,0.7,0,1.4,0,2.1c0.3,0,0.6,0,0.9,0
			C584.8,517,585,517.1,585.2,517.1z"/>
		<path class="st0" d="M614.4,536.6c0.2,0,0.4,0,0.7,0c0.3,0,0.6,0,0.9,0c0.2,0,0.4,0,0.6,0c0-1.2,0-2.5-0.1-3.7
			c-0.2-2.6-0.3-5.3-1.2-7.9c-0.5-1.3-1.2-2.5-2.1-3.3c-1.6-1.5-3.4-2.7-5.8-2.8c0,0,0,0.1,0,0.1c-0.2,0-0.4-0.1-0.6-0.1
			c-0.2,0-0.4,0-0.5,0.1c-0.1,0-0.2,0-0.3,0.1c0,0,0,0-0.1,0c-0.2,0-0.3,0-0.5,0c-0.2,0-0.4,0-0.6,0.1c0,0-0.1,0-0.1,0
			c-0.4,0-0.8,0.1-1.1,0.3c-0.2,0-0.4,0.1-0.6,0.2c-0.2,0.1-0.4,0.2-0.7,0.3c-0.2,0.1-0.5,0.2-0.7,0.4c-1.8,0.8-3.3,2.3-4.2,4.2
			l-0.1,0.1c-0.3,0.7-0.5,1.5-0.7,2.2l0,0c0,0,0,0.1,0,0.1c0,0.1-0.1,0.3-0.1,0.4c-0.1,0.2-0.1,0.4-0.1,0.6c0,0.1,0,0.1-0.1,0.2
			c0,0.1,0,0.1,0,0.2c0,0.2-0.1,0.3-0.1,0.5c-0.1,0.1-0.1,0.3-0.1,0.4c0,0,0,0,0,0c0,0,0,0.1,0,0.1v0c0,0.1-0.1,0.2-0.1,0.3
			c0,0,0,0,0,0c0,0.1,0,0.2,0,0.3c0,0,0,0.1,0,0.1c0,0,0,0.1,0,0.1c0,0.1,0,0.3-0.1,0.4c0,0,0,0,0,0c0,0.1,0,0.3,0,0.4
			c0,0.1,0,0.2,0,0.4c0,0.1-0.1,0.2-0.1,0.4c0,0.1-0.1,0.2-0.1,0.3c0,0.2,0,0.3,0,0.5v0c0,0,0,0,0,0.1c0,0,0,0,0,0
			c0,0.1-0.1,0.1-0.1,0.2c0,0,0,0,0,0c0,0,0-0.1,0-0.1c0,0,0,0,0,0c0,0,0-0.1,0-0.1v0c0-0.2,0-0.4-0.1-0.6c0,0,0-0.1,0-0.1
			c0-0.3,0-0.6-0.1-0.9c0-0.1-0.1-0.2-0.1-0.3c0,0,0,0,0,0v0c0,0,0-0.1,0-0.1c0-0.1,0-0.1,0-0.2v0c0-0.1-0.1-0.2-0.1-0.2
			c0-0.1,0-0.3,0-0.4c0,0,0-0.1,0-0.1c0-0.1,0-0.3-0.1-0.4c0-0.1,0-0.1-0.1-0.2c0,0,0-0.1,0-0.1c0-0.1,0-0.2,0-0.3c0,0,0,0,0,0
			c0-0.1-0.1-0.2-0.1-0.3c0,0,0-0.1,0-0.1c0-0.1,0-0.1,0-0.2l0,0c0-0.1,0-0.3,0-0.4l0,0c0-0.2-0.1-0.4-0.1-0.6c0,0,0-0.1,0-0.1
			c0,0,0,0,0-0.1c0,0,0,0,0,0c0,0,0,0,0,0l0,0c-0.1-0.8-0.4-1.5-0.7-2.2l-0.1-0.1c-0.5-1.1-1.2-2.1-2.1-2.8c-0.2-0.4-0.6-0.7-1-0.9
			c-0.1-0.1-0.2-0.2-0.3-0.2c-0.3-0.3-0.7-0.5-1.2-0.6c-0.3-0.1-0.6-0.2-0.9-0.3c-0.1,0-0.2-0.1-0.3-0.1c-0.2-0.1-0.5-0.1-0.7-0.1
			c0,0,0,0-0.1,0c-0.4-0.1-0.8-0.1-1.1-0.1l0,0c-0.2-0.1-0.4-0.1-0.6-0.1c-0.2,0-0.3,0-0.5,0c0,0,0,0,0,0c-0.1,0-0.2,0-0.2,0h0
			c-0.2,0-0.4-0.1-0.6-0.1c0,0-0.1,0-0.1,0c-0.1,0-0.1,0-0.2,0c-0.1,0-0.1,0-0.1,0c0-0.1,0-0.1,0-0.2c-2.5,0-4.4,1.2-6,2.8
			c-0.9,0.9-1.6,2-2.1,3.3c-0.9,2.6-1,5.2-1.2,7.9c-0.1,1.2-0.1,2.5-0.1,3.7c0.2,0,0.4,0,0.6,0c0.2,0,0.4,0,0.7,0c0.3,0,0.6,0,0.9,0
			c3.9,0,7.5,2.5,9.3,6.5l0,0l0,0l0,0c1.6-3.6,4.7-5.9,8.1-6.4c0.1,0,0.1,0,0.2,0c0.3,0,0.6-0.1,0.9-0.1c0.1,0,0.2,0,0.2,0
			c0,0,0.1,0,0.1,0c0.1,0,0.3,0,0.4,0c0.1,0,0.2,0,0.3,0c0,0,0.1,0,0.1,0h0.1c0.1,0,0.2,0,0.3,0c0,0,0.1,0,0.1,0c0.1,0,0.1,0,0.2,0
			c0,0,0,0,0,0c0.1,0,0.1,0,0.2,0c0,0,0.1,0,0.1,0c0.2,0,0.3,0,0.5,0c0,0,0,0,0,0c0.2,0,0.4,0.1,0.6,0.1c0.2,0,0.3,0.1,0.5,0.1
			c2.9,0.7,5.5,2.7,7,5.7C607.2,538.8,610.6,536.6,614.4,536.6z"/>
		<path class="st0" d="M625.8,544.3C625.8,544.3,625.8,544.2,625.8,544.3C625.8,544.2,625.8,544.2,625.8,544.3
			C625.8,544.2,625.8,544.2,625.8,544.3C625.8,544.2,625.8,544.2,625.8,544.3c-1.6-3.2-4.7-5.3-8.4-5.3c0,0,0,0,0,0
			c-0.3-0.1-0.5-0.2-0.8-0.3c0,0.1,0,0.3,0,0.4c-0.2,0-0.4,0-0.6,0c-0.2,0-0.5,0-0.8,0l-0.1,0l-0.1,0c-0.2,0-0.4,0-0.6,0
			c-3,0-5.7,1.8-7.2,4.7c-0.1,0.3-0.2,0.7-0.3,1l-0.1,0.2c-0.2,0.6-0.3,1.2-0.4,1.9c0,0.1,0,0.2,0,0.3c-0.2,0.6-0.3,1.3-0.3,2.1
			c-0.1,2.2-0.2,4.4-0.5,6.5c-0.1-0.6-0.2-1.2-0.3-1.8c0-0.1,0-0.2,0-0.2c0-0.3-0.1-0.5-0.1-0.8c-0.3-1.8-0.4-3.9-0.7-5.6
			c-0.1-0.3-0.1-0.5-0.2-0.8c-0.1-0.2-0.1-0.4-0.2-0.6c0-0.3-0.1-0.5-0.2-0.8c0-0.1-0.1-0.2-0.1-0.3c0,0,0,0,0.1,0
			c0-0.1,0-0.1-0.1-0.2c-0.1-0.4-0.3-0.8-0.6-1.2c-1.5-2.7-4-4.4-6.8-4.4c-0.2,0-0.3,0-0.5,0c-0.1,0-0.3,0-0.4,0c-0.1,0-0.2,0-0.3,0
			c-0.2,0-0.4,0-0.6,0.1c-0.1,0-0.2,0-0.3,0c-0.1,0-0.3,0-0.4,0c-0.7,0-1.4,0.2-2,0.6c-1.8,0.7-3.4,2.2-4.4,4.2
			c-0.1,0.3-0.2,0.6-0.3,1l-0.1,0.2c-0.2,0.6-0.3,1.2-0.4,1.9c0,0.1,0,0.2,0,0.3c-0.2,0.6-0.3,1.3-0.3,2.1c-0.1,2.2-0.2,4.4-0.5,6.5
			c-0.1-0.6-0.2-1.2-0.3-1.8c0-0.1,0-0.2,0-0.2c0-0.3-0.1-0.5-0.1-0.8c-0.1-0.6-0.1-1.1-0.2-1.7c-0.1-0.2-0.1-0.4-0.2-0.6
			c0-0.2-0.1-0.4-0.1-0.6c0,0,0-0.1,0-0.1c0-0.1,0-0.1,0-0.2c0,0,0,0,0,0c0,0,0-0.1,0-0.1c0-0.3-0.1-0.5-0.1-0.8
			c0-0.2,0-0.5-0.1-0.7c0-0.1,0-0.2-0.1-0.3c0-0.2-0.1-0.4-0.2-0.6c-0.1-0.1-0.1-0.2-0.2-0.3c0,0,0,0,0,0c0-0.2-0.1-0.4-0.2-0.5
			c0,0,0,0,0,0c0-0.2-0.1-0.3-0.1-0.5c-0.1-0.5-0.3-0.9-0.4-1.4l-0.1-0.1c-1.4-3.3-4.3-5.3-7.5-5.3c-0.2,0-0.4,0-0.7,0c0,0,0,0,0,0
			h-0.1c0,0-0.1,0-0.1,0c-0.1,0-0.2,0-0.3,0c0,0,0,0-0.1,0c-0.1,0-0.2,0-0.4,0c0,0-0.1,0-0.1,0c-0.2,0-0.4-0.1-0.5-0.1
			c-0.1-0.1-0.1-0.2-0.2-0.2c-0.4,0.1-0.7,0.2-1,0.3c-3,0.5-5.5,2.4-6.8,5c0,0,0,0,0,0c0,0,0,0,0,0c0,0,0,0,0,0c0,0,0,0,0,0
			c0,0,0,0,0,0.1c-0.1,0.3-0.2,0.5-0.3,0.8c-0.1,0.1-0.1,0.2-0.2,0.3c0,0,0,0.1,0.1,0.1c0,0.1-0.1,0.3-0.1,0.4
			c0.8,1.8,1.2,3,2.4,4.7c0.7,1,1.8,2.2,2.8,3c0.6,0.5,1.3,1.1,1.9,1.6c2.1,2,4.5,3.4,6.9,4.7c0.8,0.5,1.7,1,2.5,1.5l0.4,0.2
			c1.5,0.9,2.9,1.8,4.2,3c0.5,0.5,1,0.8,1.6,1.1c1.4,0.8,2.6,1.9,3.6,3.3c0.4,0.5,0.8,1,1.1,1.4c0.3,0.3,0.6,0.7,0.8,1
			c0.1,0.1,0.2,0.2,0.3,0.3c0.5,0.5,1.2,0.7,1.8,0.7c0.1,0,0.2,0,0.3,0l0.1,0c0.1,0,0.1,0,0.2-0.1c0.1,0,0.2,0,0.3-0.1
			c0.1,0,0.2-0.1,0.3-0.1c0.2-0.1,0.3-0.1,0.4-0.2c0.1-0.1,0.3-0.2,0.3-0.3c0.1-0.1,0.2-0.1,0.2-0.2c0.3-0.3,0.6-0.7,0.8-1
			c0.4-0.5,0.8-0.9,1.1-1.4c1.1-1.4,2.2-2.5,3.6-3.3c0.6-0.3,1.1-0.7,1.6-1.1c1.3-1.2,2.7-2.1,4.2-3l0.4-0.2c0.8-0.5,1.6-1,2.5-1.5
			c2.4-1.4,4.8-2.8,6.9-4.7c0.6-0.6,1.3-1.1,1.9-1.6c0.9-0.8,2-1.5,2.7-2.5c1.1-1.5,2.2-3.4,2.7-5.7
			C626.2,545,626,544.7,625.8,544.3C625.8,544.3,625.8,544.3,625.8,544.3z"/>
		<path class="st0" d="M589.6,438.8c0.1,0.2,0.1,0.4,0.2,0.7l0,0c0,0.2,0.1,0.3,0.2,0.5c0.1,0.2,0.2,0.3,0.2,0.4l0.1,0.5l0.1-0.1
			c0.3,0.8,0.9,1.4,1.8,1.6c0.8,0.2,0.9,0.6,0.9,1.5c0,1.4,0.1,2.7,0.3,4.1l0,0.4c0.1,0.4,0.4,1,0.8,1.2c0.5,0.3,1.1,0.6,1.6,0.9
			c0.3,0.2,0.7,0.3,1,0.5l0.2,0.1c0.4,0.2,0.8,0.4,1,0.7c0.2,0.2,0.3,0.5,0.3,0.8c0,0.3-0.2,0.5-0.5,0.7c-0.2,0.1-0.4,0.2-0.6,0.2
			c-0.2,0.1-0.4,0.1-0.6,0.2c-1.1,0.5-2.2,1.1-2.3,2.8c-0.1,1-0.4,2-0.7,2.9c-0.1,0.4-0.2,0.8-0.4,1.1c0,0.1-0.1,0.1-0.2,0.2
			c-0.5-1.3-0.6-2.5-0.6-3.9c0-0.2,0-0.3,0-0.5c0-0.2,0-0.4,0-0.6c0-2.4-0.7-3-3-3.6c-1.1-0.3-2.2-0.8-3.6-1.6
			c-0.3-0.2-0.5-0.9-0.7-1.3l0-0.1c-0.1-0.4-0.2-0.9-0.3-1.3c0-0.2,0-0.4-0.1-0.6l0-0.2l-0.2-0.1c-1.3-0.5-2,0.4-2.4,1l-0.1,0.1
			l0,0.1c0,0.1,0,0.2,0.1,0.4c0.5,1.6,0.5,1.6-0.9,2.7c-0.7,0.6-1.6,1.1-2.3,1.7c-0.4,0.3-0.8,0.5-1.1,0.8c-0.3,0.2-0.5,0.3-0.8,0.5
			c-0.2,0.2-0.5,0.3-0.7,0.5c-0.1,0.1-0.3,0.1-0.5,0.2c-0.3,0.1-0.6,0.2-0.8,0.4c-1.8,1.6-2.2,3.3-1.1,6l0.4,1l0.7-0.8
			c0.1-0.1,0.1-0.2,0.2-0.3c0,0,0-0.1,0.1-0.1c2.5-0.6,2.6-2.5,2.7-4.1l0-0.5c0,0,0,0,0-0.1c0.1-0.1,0.1-0.2,0.2-0.4
			c0,0,0-0.1,0-0.1c0.1-0.1,0.2-0.1,0.3-0.2c0.6-0.5,1.3-0.9,1.9-1.4c2.4-2,5.1-1.2,6.8-0.1c0.2,0.1,0.4,0.2,0.6,0.3
			c0.1,0.1,0.2,0.1,0.4,0.2c0.6,0.4,0.9,0.8,0.9,1.7c0.2,1.7,0,3.4-0.1,5c0,0.6-0.1,1.2-0.1,1.8c-0.1,2,0.1,3.9,2.1,5.1l0.1,0
			c0,0,0.1,0,0.1,0c0.2,0.6,0.6,1.1,0.9,1.7c0.6,1,1.2,2,1.2,3.3c0.1,2.5,0,4.5-0.5,6.4c-0.3,1.5-0.7,3.1-1.3,4.7
			c-0.1,0.5-0.2,1.1-0.3,1.6c-0.3,0.9-0.6,1.8-0.9,2.7c-0.1,0.4-0.2,0.7-0.3,1.1c-0.3,1-0.6,2-1,2.9c-0.4,0.8-0.6,1.6-0.7,2.5
			c-0.1,0.4-0.2,0.8-0.2,1c0,0.1,0,0.2,0.2,0.4c0.5-0.1,1.3-0.6,1.3-0.6c2-1.3,4.2-1.8,6.7-1.5c0.3,0,0.5,0.1,0.8,0.1
			c0.3,0,0.7,0,1,0c1.8,0.2,3.6,1.2,4.8,1.9c0,0,0.2,0,0.2,0c0.1-0.2,0.2-0.6,0.2-0.6c0-0.2,0.3-1.6,0.2-2.4c0,0,0,0,0,0
			c0.1-0.7,0.1-1.8-0.2-2.3c-0.4-0.7-1-1.3-1.6-1.8c-0.6-0.5-1.2-1-1.9-1.4c0,0,0,0,0,0c0-0.1-0.1-0.2-0.1-0.3c0,0,0,0,0,0
			c-0.1-0.2-0.2-0.5-0.3-0.7c-0.2-0.5-0.2-1-0.2-1.5c0-0.1,0-0.3,0-0.4v0c0,0,0,0,0,0c0,0,0,0,0,0v0c0,0,0,0,0,0c0,0,0-0.1,0-0.1
			l0-0.1l0-0.2c0-0.7,0.1-1.4,0.2-2.1c0.1-1.3,0.3-2.7,0.2-4.1c-0.1-1.2,0-2.5,0.1-3.7c0.1-0.7,0.1-1.4,0.1-2.2
			c0-2.3-0.7-4.1-2.2-5.5c-0.6-0.5-0.7-1.2-0.7-2.1c0-1.4,0.2-2.7,0.5-4.1c0.1-0.4,0.1-0.8,0.2-1.2c0.4-2.4,1.6-3.7,3.9-4.4
			c0.6-0.2,1.1-0.5,1.7-0.9c0.2-0.2,0.5-0.3,0.7-0.5h0c0.5,0,1,0.2,1.1,1.3c0,0.5,0.1,1,0.2,1.4c0.1,0.3,0.1,0.6,0.2,0.9
			c0.2,1.2,0.8,2.1,1.7,2.6c1,0.5,2.2,0.5,3.4-0.1c0.1-0.1,0.2-0.1,0.4-0.2c0.3-0.1,0.6-0.3,0.9-0.5c0.2-0.1,0.5-0.2,0.6-0.5
			c1.9-0.5,2.3-1.7,2.7-2.9c0.2-0.5,0.4-1,0.6-1.4l0.3-0.5l-0.5-0.3c-1.3-0.8-3-0.7-3.7,0.3c-0.7,0.9-1.2,1.7-1.4,3
			c0,0.1,0,0.2,0,0.4c0,0,0,0,0,0.1c-0.2,0.8-0.7,1.3-1.6,1.3h0c-0.8,0-1.7-0.7-1.8-1.5l0-0.3c-0.3-1.9-0.7-3.8-1-5.8
			c-0.1-0.7,0-1.4,0.2-2c0.5-1.7,1.2-3.4,2.3-4.9c0,0,0.1-0.1,0.1-0.1c0.3-0.2,0.5-0.3,0.7-0.6c0.5-0.6,0.8-1.2,0.8-1.7
			c0.1-1.7,0.1-3.4-0.7-5.1c-0.2-0.5-0.7-1.5-1.8-1.4c-0.9,0.1-1.5,0.7-1.6,1.7c0,0.2,0,0.4-0.1,0.6l0,0.2c-0.2,1.1-0.3,2.3-0.1,3.4
			l0.1,0.3c0.2,1,0.3,1.8,0,2.8l-0.2,0.7l0.1,0c-0.2,0.7-0.6,1.5-1,2.3c-0.6,1-0.9,1.9-1.1,2.7c-0.1,0.6-0.3,0.6-0.9,0.6
			c-1.4,0-2.5-0.4-3.4-1.2c-0.7-0.6-1.4-1-2.4-1.1c-1.2-0.2-1.5-0.5-1.6-1.8c0-0.2,0-0.3,0-0.5c0-0.5-0.1-1.1,0-1.6
			c0.1-0.6,0.1-1.3,0.7-1.8c0.6-0.5,1.1-1.1,1.4-1.7c1.4-2.1,1.5-4.3,1.4-5.9c-0.1-1-0.6-1.9-1.4-2.5l-0.3-0.2l-0.3,0.1
			c-1.8,0.7-2.1,2.3-2.1,3.7c0,0.9,0.1,1.7,0.2,2.6c0,0.3,0.1,0.6,0.1,1l-0.2,0.5l-0.9,0.9l-0.1,0c-0.2-0.1-0.4-0.2-0.6-0.4
			c-1-0.7-1.2-0.8-0.9-1.6c0.2-0.1,0.4-0.2,0.4-0.5c0.8-2.3-0.4-4-1.7-5.7l-0.3-0.4l-0.4,0.2c-1.7,0.8-1.6,2.4-1.6,3.3
			C589.2,437.4,589.4,438.1,589.6,438.8z"/>
		<path class="st0" d="M568.9,457.8C568.9,457.8,568.9,457.8,568.9,457.8c0.7-0.3,1.6-0.7,1.9-1.8l0.1-0.3l-0.1-0.3
			c-0.4-1.5-1.8-1.6-2.2-1.7c-2.1-0.2-4,0.4-5.8,1.1l-1.1,0.4l0.5,1.1c0.6,1.1,1.5,1.4,2.3,1.6c-2.1,1.4-2.5,3.6-2.8,5.6l-0.2,1.3
			l1.3-0.1C566.2,464.4,568.8,461.4,568.9,457.8z"/>
		<path class="st0" d="M612.2,446.5L612.2,446.5l0.1,0.2c0,0,0,0.1,0.1,0.1l0,0h0l0,0c0.3,0.5,0.3,0.7,0.2,0.8c-0.2,0.5,0,1,0.1,1.2
			c0.2,1,0.9,1.7,1.4,2.2c0.2,0.2,0.4,0.4,0.6,0.7c0.4,0.7,1.1,1,1.8,1c0.3,0,0.7-0.1,1-0.2c1-0.5,1.5-2.2,1.1-3.1
			c-0.2-0.4-0.4-0.8-0.6-1.1c-0.3-0.4-0.7-0.8-1.1-1.3c0.6-0.3,1.2-0.6,1.8-1c0.7-0.5,1.2-1.1,1.8-1.6c0.2-0.2,0.5-0.5,0.7-0.7
			l1.1-1.1L621,442c-2.6-1.2-7,0.3-8.9,3.1l-0.3,0.5l0.2,0.5C612.1,446.2,612.1,446.3,612.2,446.5z"/>
		<path class="st0" d="M620.1,467.6c0.4,0.1,0.8,0.2,1.2,0.3l0.8,0.3l0.4-0.7c1.2-1.9-0.1-3.4-0.6-4c-0.1-0.1-0.2-0.2-0.3-0.3
			c-0.4-0.5-0.8-0.9-1.3-1.3c-0.9-0.6-2.5-1.6-4.4-0.9c-0.8,0.3-1.3,0.8-1.5,1.3c-0.2,0.5-0.1,1,0.2,1.5c0.7,1.1,1.4,2.1,2.5,2.7
			C618.1,467.1,619.1,467.4,620.1,467.6z"/>
		<path class="st0" d="M600.5,433.8L600.5,433.8c0.2,0.4,0.5,0.9,1.2,1c0.4,0.1,0.7,0.1,1.1,0.1c0.4,0,0.8-0.1,1.2-0.2
			c0.7-0.2,1.4-0.6,2-1.1c0.2-0.2,0.4-0.3,0.7-0.5c1-0.8,2.2-1.7,2.6-3.3l0.2-0.8l-0.7-0.4c-2.5-1.4-5.7,0-8.4,3.7l-0.5,0.6l0.5,0.6
			C600.4,433.7,600.5,433.8,600.5,433.8z"/>
		<path class="st0" d="M567.2,442.8c0.1,0.1,0.1,0.2,0.2,0.2l0,0c0.7,1.1,2.1,1.7,3.5,1.7c0.7,0,1.4-0.2,1.9-0.5
			c0.7-0.4,1.1-0.8,1.2-1.4c0.1-0.6,0-1.2-0.4-1.8c-1.4-2.1-4.1-3.1-6.6-2.5l-0.6,0.1l-0.2,0.5C565.8,440.8,566.6,442,567.2,442.8
			L567.2,442.8z"/>
		<path class="st0" d="M624.2,446.7c-0.2,0-0.4,0-0.6,0.1c-0.4,0-0.8,0.1-1.1,0.1c-0.5,0-2,0.1-2.2,1.6c-0.1,1.2,0.3,2,1.2,2.5
			c1.4,0.7,2.8,1.1,4.2,1.1c0.6,0,1.1-0.1,1.7-0.2c0.6-0.1,0.9-0.5,1.2-0.8c0,0,0-0.1,0.1-0.1l0.5-0.5l-0.3-0.7
			C627.7,447.6,626.2,446.6,624.2,446.7z"/>
		<path class="st0" d="M613.9,440.2c0.5,0,0.9-0.1,1.2-0.3c1.5-0.7,2.8-1.7,3.8-2.9l0.1-0.1c0.7-0.8,1.5-1.7,1.3-3.3l-0.1-0.8
			l-0.8-0.1c-1.4-0.1-2.5,0.5-3.3,1l-0.3,0.2c-1.1,0.6-2.6,1.7-3.4,3.5c-0.3,0.6-0.2,1.6,0.2,2.2
			C612.8,439.8,613.1,440.2,613.9,440.2z"/>
		<path class="st0" d="M610.4,469.7c0.3,0.3,0.5,0.6,0.6,0.9c0.2,0.6,0.7,1,1.3,1.1c0.1,0,0.1,0,0.2,0c0.6,0,1.2-0.3,1.5-0.9
			c0.2-0.4,0.3-0.8,0.5-1.1c0-0.1,0-0.1,0-0.1l0.1-0.3l-0.1-0.3c-0.1-0.4-0.1-0.7-0.2-1c-0.2-1.4-0.4-2.8-1.6-4l0,0
			c-0.4-0.4-1.2-1.2-2.4-0.8c-1,0.4-1.5,1.3-1.4,2.5c0,0.3,0.1,0.6,0.2,0.8c0.1,0.3,0.1,0.5,0.1,0.7
			C609.3,468.4,609.9,469.1,610.4,469.7z"/>
		<path class="st0" d="M570,451.2l-0.1,0.9l0.9,0.2c0.1,0,0.3,0.1,0.4,0.1c0.4,0.1,0.8,0.2,1.3,0.2c0.1,0,0.1,0,0.2,0
			c0.3,0,1-0.1,1.5-0.5c1.3-1,2.2-2.4,2.9-4l0.4-0.9l-0.9-0.4c-1.5-0.6-3-0.5-4.3,0.2C570.9,447.9,570.1,449.4,570,451.2z"/>
		<path class="st0" d="M584.8,430.6L584.8,430.6c0.3,0.3,0.5,0.6,0.7,0.9c0.2,0.3,0.8,1,1.6,1c0.3,0,0.5-0.1,0.8-0.2
			c0.9-0.4,1.3-1.4,1.1-2.4c0-0.1,0-0.3-0.1-0.4c-0.1-0.5-0.2-1-0.4-1.6c-0.4-0.9-0.9-1.8-1.4-2.5c-0.2-0.4-0.6-0.6-0.8-0.7
			c-0.1,0-0.2-0.1-0.3-0.2l-0.8-0.5l-0.6,0.7c-0.1,0.1-0.1,0.2-0.2,0.3c-0.2,0.2-0.4,0.4-0.6,0.8c-0.7,1.3-0.5,3.4,0.5,4.6
			L584.8,430.6z"/>
		<path class="st0" d="M578.4,446l0.6,0.5l0.6-0.5c1.1-0.8,1.6-2.1,1.5-3.7c-0.2-1.8-1.3-3.4-2.8-4.2l-1-0.5l-0.4,1
			C575.5,441.9,575.9,444,578.4,446z"/>
		<path class="st0" d="M581.9,437.4c0.8,0.5,1.7,0.8,2.7,0.8c0.6,0,1.3-0.1,1.9-0.3l0.9-0.3l-0.3-0.9c-0.7-2.5-3.9-4.6-6.5-4.1
			l-0.9,0.2l0.1,0.9C580,435.2,580.7,436.6,581.9,437.4z"/>
		<polygon class="st0" points="605.9,543 605.8,542.9 605.6,542.8 		"/>
		<path class="st0" d="M783.4,525c0.2-1.9,0.2-3.9,0-5.8c-0.1-1.5-0.5-3-0.9-4.4c-0.4-1.2-1-2.4-1.8-3.4c-0.3-0.3-0.5-0.7-0.8-1
			c0.3-0.2,0.5-0.3,0.7-0.5c1-0.7,0.9-2.1,0.1-2.8c-0.1-0.1-0.3-0.2-0.4-0.3c-0.1-0.1-0.2-0.3-0.1-0.4c0.2-0.3,0.4-0.5,0.5-0.8
			c0.8-1.7,0.4-3.3-0.7-4.5c-0.1-0.1-0.3-0.3-0.4-0.4c0-0.1,0-0.1,0-0.2c-0.1,0-0.2-0.1-0.3-0.2c0,0-0.1-0.1-0.1-0.1
			c0,0-0.1,0-0.1,0c-0.1-0.1-0.2-0.2-0.3-0.4c-0.4-0.1-0.6-0.3-0.8-0.6c-0.6-0.3-1-0.8-1.2-1.5c-1.2-3.6-3.2-6.5-7-7.8
			c-1.6-0.6-3.3-1-4.9-1.6c-1.5-0.6-3.2-1-3.7-2.9c0-0.1,0-0.2,0-0.4l0,0c0-0.1,0-0.1,0-0.2c0.1-0.1,0.1-0.1,0.2-0.1
			c0.4-0.1,0.7-0.1,1.1-0.2c0.3-0.1,0.6-0.2,0.9-0.3c0.1,0,0.1-0.2,0.1-0.3c0-0.1,0-0.2,0-0.3c-0.2-0.7-0.2-1.5-0.3-2.2
			c-0.3-2,0-3.9,0.2-5.8c0.2-1.3,0.3-2.7,0.5-4c0.2-1.9,0.2-3.9,0-5.8c-0.1-1.5-0.5-3-0.9-4.4c-0.4-1.2-1-2.4-1.8-3.4
			c-0.3-0.3-0.5-0.7-0.8-1c0.3-0.2,0.5-0.3,0.7-0.5c1-0.7,0.9-2.1,0.1-2.8c-0.1-0.1-0.3-0.2-0.4-0.3c-0.1-0.1-0.2-0.3-0.1-0.4
			c0.2-0.3,0.4-0.5,0.5-0.8c0.8-1.7,0.4-3.3-0.7-4.5c-0.2-0.2-0.5-0.4-0.7-0.6c0,0-0.1-0.1-0.1-0.2c-0.6-0.1-1.3-0.3-1.9-0.5
			c-0.1,0-0.1,0-0.2,0c-0.7-0.2-1-0.7-1.3-1.4c-0.8-2-1.5-4.2-3.3-5.5c-2-1.3-3.7-3.1-6.3-3.7c-2.3-0.6-4.9-1.8-6.3-4
			c0,0,0.1,0,0.1,0c0,0,0,0,0,0c0-0.1,0.2-0.3,0.3-0.3c0.4-0.1,0.7-0.1,1.1-0.2c0.3-0.1,0.6-0.2,0.9-0.3c0.1,0,0.1-0.2,0.1-0.3
			c0-0.1,0-0.2,0-0.3c-0.2-0.7-0.2-1.5-0.3-2.2c-0.3-2,0-3.9,0.2-5.8c0.2-1.3,0.3-2.7,0.5-4c0.2-1.9,0.2-3.9,0-5.8
			c-0.1-1.5-0.5-3-0.9-4.4c-0.4-1.2-1-2.4-1.8-3.4c-0.3-0.3-0.5-0.7-0.8-1c0.3-0.2,0.5-0.3,0.7-0.5c1-0.7,0.9-2.1,0.1-2.8
			c-0.1-0.1-0.3-0.2-0.4-0.3c-0.1-0.1-0.2-0.3-0.1-0.4c0.2-0.3,0.4-0.5,0.5-0.8c0.8-1.7,0.4-3.3-0.7-4.5c-0.2-0.2-0.5-0.4-0.7-0.6
			c0,0-0.1-0.1-0.1-0.2c-0.1,0-0.2-0.1-0.3-0.1c0-0.6,0.1-1.4,0-2.1c-0.4-2-0.2-3.9-0.2-5.9c0-0.8-0.3-1.7-0.2-2.4
			c0-0.1,0-0.1,0-0.2c-0.1-0.1-0.1-0.3-0.1-0.5V382c0,0,0-0.1,0-0.1c0,0,0-0.1,0-0.1v-0.1c0-0.1,0-0.2,0.1-0.4
			c-0.1-0.2-0.2-0.4-0.2-0.7v-0.2c0-0.1,0-0.2,0-0.2c-0.1-0.2-0.1-0.5-0.1-0.7c0-0.1,0-0.1,0-0.2c0-0.2,0-0.3,0-0.5
			c-0.2-0.2-0.3-0.5-0.3-0.8V378c0-0.1,0-0.2,0-0.2c0-0.1-0.1-0.2-0.1-0.2c-0.1-0.2-0.2-0.4-0.3-0.7c-0.1-0.2-0.2-0.4-0.2-0.6v-0.1
			c-0.2-0.5-0.4-1-0.3-1.6c0-0.1-0.1-0.1-0.1-0.2c0,0-0.1-0.1-0.1-0.1c-0.1-0.1-0.1-0.3-0.1-0.4c0-0.1-0.1-0.1-0.1-0.2
			c-0.1-0.1-0.2-0.3-0.2-0.4c-0.6-0.9-0.7-2.1-1.2-3c-0.2-0.3-0.4-0.6-0.6-0.9c-0.6-0.9-1.4-1.7-1.8-2.7c-0.5-1.2-1.4-1.8-2.3-2.5
			c-1.3-1-2.7-1.8-4.1-2.7c-3.2-2.1-6.5-3.8-10.1-5c-0.1,0-0.1-0.1-0.2-0.1c-1-0.1-1.9-0.3-2.9-0.4c-0.2,0-4.6-0.3-4.8-0.4
			c-7.2-0.6-8.1-0.7-11.4-0.8c-0.3-0.1-0.7-0.1-1-0.2c0.9-0.8,1.5-1.3,2.2-1.7c2-1.3,4.2-2.4,5.7-4.3c0.2-0.2,0.4-0.5,0.6-0.7
			c0,0,0,0,0,0c0-0.1,0.1-0.3,0.2-0.4c0-0.1,0.1-0.2,0.1-0.2c0,0,0-0.1,0-0.1c0.1-0.3,0.2-0.6,0.4-0.8c0-0.5,0.1-1.1,0.3-1.6
			c0,0,0,0,0,0c0,0,0,0,0,0c0-0.1,0.1-0.2,0.1-0.3c0.1-0.4,0.2-0.7,0.4-1c0-0.3,0-0.7,0.2-0.9c1.2-2.7,0.5-5.5-0.3-8.1
			c-0.4-1.4-1-2.8-2.3-3.8c-0.8-0.6-1.3-1.5-2.1-2.2c-1.4-1.2-2.7-2.5-4.7-3c-0.3-0.1-0.6-0.2-0.9-0.3c-0.2,0.1-0.4,0-0.5-0.1l0,0
			l0.1,0.1c0,0,0,0-0.1-0.1c-0.2,0-0.3-0.1-0.5-0.2c0,0-0.1,0-0.1-0.1c0,0,0,0,0,0c-0.1,0-0.2-0.1-0.3-0.1c0,0,0,0,0,0
			c-0.1,0-0.1,0-0.2,0c-0.1,0-0.2-0.1-0.3-0.1c0,0,0,0-0.1,0c0,0,0,0,0,0c-0.1,0-0.3,0-0.4-0.1l0,0c0,0-0.1,0-0.1,0
			c-0.1,0-0.2,0-0.3,0c0,0,0,0-0.1,0c-0.1,0-0.1-0.1-0.1-0.1c0,0-0.1,0-0.1,0c0,0-0.1,0-0.1,0c-0.1,0-0.2-0.1-0.2-0.1
			c-0.1,0-0.2-0.1-0.2-0.2c-0.3-0.1-0.3-0.5,0-0.7c0,0,0-0.1,0.1-0.1c0,0,0,0,0,0c0.3-0.4,0.6-0.7,0.9-1c2-2.1,1.7-3.3,0.7-5.8
			c-0.1-0.3-0.3-0.6-0.5-0.9c-0.1-0.1-0.3-0.2-0.4-0.4c0,0,0,0,0,0c0,0,0,0,0-0.1c0,0-0.1,0-0.1-0.1c0,0,0,0,0,0c0,0,0,0,0,0
			c0,0,0,0,0-0.1c-0.1-0.1-0.2-0.1-0.2-0.2c0,0,0,0,0,0l0,0c0,0-0.1-0.1-0.1-0.1l-0.1,0c-0.1-0.1-0.3-0.2-0.4-0.3
			c-0.1,0-0.2-0.1-0.3-0.1c-0.7-0.2-1.1-0.9-1.8-1.3c-0.3,0-0.5-0.1-0.7-0.3c-0.1,0-0.2,0-0.2-0.1c-0.2,0-0.4-0.1-0.5-0.2
			c-1.9-0.7-3.9-1.3-5.9-1.6c-0.4-0.1-0.8-0.2-1.1-0.3c-0.1,0-0.2,0-0.3-0.1c-0.1,0-0.1,0-0.2-0.1c-0.1,0-0.1-0.1-0.2-0.1
			c0,0-0.1,0-0.1,0c-0.1,0-0.2-0.1-0.4-0.1c-0.1,0-0.2,0-0.3-0.1c0,0-0.1,0-0.1-0.1c-0.1,0-0.2,0-0.3-0.1c-0.1,0-0.3,0-0.4-0.1h-0.1
			c-0.2,0-0.4-0.1-0.6-0.2c-0.1,0-0.1,0-0.2-0.1c0,0-0.1,0-0.1,0c0,0-0.1,0-0.1,0c0,0,0,0,0,0h-0.1c-0.2,0-0.4,0-0.5-0.1
			c-0.1,0-0.2,0-0.2-0.1c0,0,0,0,0,0c-0.1,0-0.2,0-0.3,0l0,0c-0.2,0-0.4,0-0.5-0.1c0,0,0,0-0.1,0c-1.7-0.3-3.5-0.6-5.4-0.9
			c0.2-1.7,0.2-3.4-0.9-4.7c-2.2-0.3-4.3-0.5-6.3-0.8c-2-0.3-3.9-1-5.9-1.3c-2.3-0.3-4.7-0.8-7,0.2c-0.7,0.3-1.4,0.5-2.1,0.6
			c0,0,0,0,0,0c0,0-0.1,0-0.1,0.1c-0.2,0.1-0.4,0.2-0.6,0.2c-0.1,0-0.1,0-0.2,0c-0.2,0.1-0.3,0.2-0.6,0.2c0,0,0,0,0,0
			c-0.1,0.1-0.3,0.2-0.6,0.2c0,0-0.1,0-0.1,0c-0.1,0-0.2,0.1-0.4,0.1c-0.1,0-0.2,0.1-0.3,0.1c0,0-0.1,0-0.1,0
			c-0.1,0.1-0.3,0.2-0.4,0.2c-0.1,0.1-0.3,0.2-0.4,0.2c-0.2,0.1-0.4,0.2-0.7,0.2c0,0,0,0-0.1,0c-0.1,0-0.3,0.1-0.4,0.1
			c-0.1,0-0.1,0-0.2,0c0,0,0,0.1-0.1,0.1c-0.1-0.1-0.2-0.1-0.3-0.2c-0.2-0.1-0.3-0.2-0.4-0.3c-0.4-0.3-0.7-0.6-1.1-0.8
			c-0.2,0-0.3,0-0.4-0.1c-0.1,0-0.3,0-0.4-0.1c-0.1,0-0.2,0.1-0.4,0.1c-0.1,0-0.1,0-0.2,0c-0.4,0.2-0.8,0.5-1.2,0.7
			c-1.2-0.7-2.5-1.4-4-1.4c-1.1,0-1.9,0.5-2.6,1.3c0,0-0.1,0.1-0.1,0.1c0,0.1-0.1,0.1-0.1,0.2c-0.2,0.3-0.4,0.5-0.5,0.8
			c-0.3-0.2-0.6-0.4-0.8-0.6c-0.2-0.1-0.3-0.2-0.4-0.3c-0.2-0.1-0.4-0.3-0.5-0.5c-0.1,0-0.2-0.1-0.2-0.2c-0.3-0.1-0.5-0.3-0.6-0.6
			c0,0,0,0,0,0c0,0,0,0,0,0c0,0,0,0,0,0c0,0,0,0,0,0c0,0,0-0.1-0.1-0.1c-0.1-0.1-0.2-0.1-0.3-0.2c-0.3-0.2-0.6-0.4-0.9-0.6
			c-0.4-0.2-0.8-0.3-1.1-0.5c-0.2-0.1-0.4-0.2-0.5-0.3c-0.1,0-0.2-0.1-0.4-0.2c0,0-0.1-0.1-0.1-0.1c0,0,0,0-0.1-0.1c0,0,0,0,0,0
			c0,0,0,0-0.1,0c-0.1-0.1-0.2-0.1-0.3-0.2l0,0c0,0,0,0-0.1,0c0,0,0,0,0,0c0,0,0,0-0.1,0c0,0,0,0,0,0c0,0-0.1,0-0.1-0.1
			c-0.1-0.1-0.3-0.1-0.4-0.2l0,0c-0.1,0-0.1,0-0.2-0.1c0,0,0,0-0.1,0c0,0,0,0,0,0c-0.1,0-0.1-0.1-0.2-0.1c-0.1,0-0.1,0-0.2-0.1
			c-0.4,0-0.7-0.2-0.9-0.5c-1-0.6-1.9-1.3-2.9-2c-0.9-0.6-1.6-1.6-2.5-2.3c-1.5-1.2-2.8-2.8-4.6-3.6c-0.2,0-0.3-0.1-0.5-0.1
			c0,0,0,0-0.1,0c-0.1,0-0.2-0.1-0.2-0.2c0,0,0,0,0,0c0,0-0.1,0-0.1,0c-0.2,0-0.4,0-0.6-0.2c0,0,0,0-0.1,0c-0.5,0-0.9-0.2-1.4-0.4
			c-0.1,0-0.2,0-0.4,0l-0.3-0.1c-0.1,0-0.1-0.1-0.2-0.1c0,0-0.1,0-0.1,0c0,0,0,0,0,0h-0.1c-0.1,0-0.2,0-0.4-0.1c0,0-0.1,0-0.1,0
			h-0.3c-0.1,0-0.2,0-0.3,0c-0.9,0-1.9,0-2.8,0c-0.2,0-0.3,0-0.5,0c-2.4-0.5-4.8-0.5-7.2-0.4v0c-0.4,0-0.8,0-1.3,0.1
			c-0.2,0-0.4,0-0.6,0c-0.3,0-0.5,0-0.8,0c-0.3,0-0.5,0-0.8,0c-0.2,0-0.4,0-0.5,0c-0.4,0-0.9,0-1.3-0.1c0,0,0,0,0,0
			c-2.4-0.1-4.8-0.1-7.2,0.4c-0.2,0-0.3,0-0.5,0c-0.8,0-1.6,0-2.5,0c-0.1,0-0.2,0.1-0.3,0.1c-0.2,0-0.3,0-0.5,0c-0.1,0-0.1,0-0.2,0
			h-0.1c0,0-0.1,0-0.1,0c0,0,0,0-0.1,0h-0.1c0,0,0,0,0,0c-0.1,0-0.1,0-0.2,0c-0.1,0.1-0.3,0.1-0.5,0.1c0,0,0,0,0,0
			c-0.1,0-0.3,0.1-0.4,0.1c0,0,0,0,0,0c-0.3,0.1-0.6,0.2-0.9,0.3c-0.1,0.1-0.2,0.1-0.3,0.1c-0.1,0.1-0.3,0.1-0.5,0.1
			c0,0-0.1,0-0.2,0.1c-0.2,0.2-0.4,0.3-0.8,0.3c0,0-0.1,0-0.1,0c-1.9,0.8-3.2,2.5-4.8,3.7c-0.9,0.7-1.6,1.7-2.5,2.3
			c-1,0.7-1.9,1.4-3,2c-0.1,0.2-0.3,0.3-0.5,0.4c-0.1,0.1-0.2,0.2-0.4,0.3c-0.2,0.1-0.4,0.2-0.6,0.3c-0.1,0.1-0.3,0.2-0.4,0.3
			c-0.1,0.1-0.2,0.1-0.4,0.1c0,0-0.1,0-0.1,0c0,0,0,0,0,0c-0.1,0.2-0.3,0.3-0.5,0.3c-0.4,0.4-1,0.5-1.5,0.7
			c-1.2,0.5-2.1,1.4-2.9,2.3c-0.2,0.3-0.6,0.4-0.9,0.7c-0.8-1.4-1.7-2.3-3.4-2.4c-1.6-0.1-2.8,0.7-4,1.4c-0.4-0.3-0.8-0.5-1.3-0.8
			c-0.2,0-0.3,0-0.5-0.1c-0.1,0-0.1,0-0.2,0h0c-0.1,0-0.2,0-0.3,0c-0.5,0.4-1,0.8-1.5,1.2c-0.1,0.2-0.3,0.3-0.5,0.4c0,0,0,0-0.1,0
			c0,0,0,0,0,0c-0.1,0-0.3,0.1-0.4,0.1c-0.4,0-0.6-0.1-0.8-0.3c-0.2-0.1-0.4-0.2-0.5-0.4c-0.1,0-0.2-0.1-0.2-0.2
			c-0.1,0-0.2-0.1-0.3-0.1c0,0,0,0,0,0c0,0,0,0,0,0c0,0,0,0,0,0c-0.1,0-0.2,0-0.3-0.1c-0.1,0-0.3-0.1-0.4-0.2
			c-0.2,0-0.3-0.1-0.4-0.2c-1.4-0.2-2.7-0.4-4-1c-2.4-1-4.7-0.5-7-0.2c-2,0.3-3.9,0.9-5.9,1.3c-2,0.4-4.1,0.5-6.3,0.8
			c-1.1,1.2-1,3-0.9,4.7c-1.9,0.3-3.6,0.6-5.4,0.9c-0.3,0.1-0.7,0-1,0c-0.8,0.1-1.6,0.3-2.3,0.5c-1,0.3-1.9,0.9-2.9,1
			c-2.4,0.4-4.7,1.1-7,2.1c-0.9,0.4-1.4,1.3-2.2,1.5c-1.2,0.4-1.8,1.4-2.2,2.4c-1,2.5-1.2,3.7,0.7,5.8c0.3,0.3,0.6,0.7,0.9,1
			c-0.6,0.4-1,0.8-1.5,1c-1,0.6-1.9,1.3-3,1.6c-1.9,0.5-3.3,1.8-4.7,3c-0.8,0.7-1.3,1.6-2.1,2.2c-1.3,1-1.9,2.4-2.3,3.8
			c-0.8,2.6-1.4,5.3-0.3,8.1c0.2,0.5,0.2,1.2,0.2,1.8c0,1.8,1.1,3.2,2.1,4.4c1.6,1.8,3.7,3,5.7,4.3c0.7,0.4,1.2,1,2.2,1.7
			c-0.4,0.1-0.7,0.1-1,0.2c-3.9,0-4.4,0.1-12.2,0.8c-0.2,0-4.6,0.4-4.8,0.4c-1,0.1-1.9,0.3-2.9,0.4c-0.1,0-0.1,0-0.2,0.1
			c-3.6,1.1-7,2.9-10.1,5c-1.4,0.9-2.8,1.7-4.1,2.7c-0.9,0.7-1.8,1.3-2.3,2.5c-0.4,1-1.2,1.8-1.8,2.7c-0.2,0.3-0.4,0.6-0.6,0.9
			c-0.6,0.9-0.6,2.1-1.2,3c0,0.1-0.1,0.3-0.2,0.4c0,0.1,0,0.1-0.1,0.2c0,0.2,0,0.3-0.1,0.4c0,0,0,0.1-0.1,0.1c0,0.1,0,0.1-0.1,0.2
			c0.1,0.6-0.1,1.1-0.3,1.6v0.1c0,0.2-0.1,0.4-0.2,0.6c0,0.3-0.1,0.5-0.3,0.7c0,0.1,0,0.2-0.1,0.2c0,0.1,0,0.2,0,0.2v0.1
			c0,0.3-0.1,0.6-0.3,0.8c0,0.2,0,0.3,0,0.5c0,0.1,0,0.1,0,0.2c0,0.2-0.1,0.5-0.1,0.7c0,0.1,0,0.2,0,0.2v0.2c0,0.3-0.1,0.5-0.2,0.7
			c0,0.1,0.1,0.2,0.1,0.4v0.1c0,0,0,0.1,0,0.1c0,0,0,0.1,0,0.1v0.1c0,0.2,0,0.3-0.1,0.5c0,0.1,0,0.1,0,0.2c0.2,0.8-0.2,1.6-0.2,2.4
			c0,2,0.2,3.9-0.2,5.9c-0.1,0.7,0,1.4,0,2.1c-0.1,0-0.2,0.1-0.3,0.1c0,0.1-0.1,0.1-0.1,0.2c-0.2,0.2-0.5,0.4-0.7,0.6
			c-1.1,1.2-1.5,2.8-0.7,4.5c0.1,0.3,0.3,0.6,0.5,0.8c0.1,0.2,0,0.3-0.1,0.4c-0.1,0.1-0.3,0.2-0.4,0.3c-0.8,0.7-0.9,2.1,0.1,2.8
			c0.2,0.2,0.5,0.3,0.7,0.5c-0.3,0.4-0.5,0.7-0.8,1c-0.8,1-1.4,2.2-1.8,3.4c-0.5,1.4-0.8,2.9-0.9,4.4c-0.2,1.9-0.2,3.9,0,5.8
			c0.1,1.3,0.3,2.7,0.5,4c0.2,1.9,0.5,3.9,0.2,5.8c-0.1,0.7-0.1,1.5-0.3,2.2c0,0.1,0,0.2,0,0.3c0,0.1,0.1,0.2,0.1,0.3
			c0.3,0.1,0.6,0.2,0.9,0.3c0.4,0.1,0.7,0.1,1.1,0.2c0.1,0,0.3,0.2,0.3,0.3c0,0,0,0,0,0c0,0,0.1,0,0.1,0c-1.5,2.2-4,3.5-6.3,4
			c-2.5,0.6-4.2,2.4-6.3,3.7c-1.9,1.2-2.6,3.4-3.3,5.5c-0.3,0.7-0.5,1.2-1.3,1.4c-0.1,0-0.1,0-0.2,0c-0.6,0.2-1.2,0.4-1.9,0.5
			c0,0.1-0.1,0.1-0.1,0.2c-0.2,0.2-0.5,0.4-0.7,0.6c-1.1,1.2-1.5,2.8-0.7,4.5c0.1,0.3,0.3,0.6,0.5,0.8c0.1,0.2,0,0.3-0.1,0.4
			c-0.1,0.1-0.3,0.2-0.4,0.3c-0.8,0.7-0.9,2.1,0.1,2.8c0.2,0.2,0.5,0.3,0.7,0.5c-0.3,0.4-0.5,0.7-0.8,1c-0.8,1-1.4,2.2-1.8,3.4
			c-0.5,1.4-0.8,2.9-0.9,4.4c-0.2,1.9-0.2,3.9,0,5.8c0.1,1.3,0.3,2.7,0.5,4c0.2,1.9,0.5,3.9,0.2,5.8c-0.1,0.7-0.1,1.5-0.3,2.2
			c0,0.1,0,0.2,0,0.3c0,0.1,0.1,0.2,0.1,0.3c0.3,0.1,0.6,0.2,0.9,0.3c0.4,0.1,0.7,0.1,1.1,0.2c0.1,0,0.1,0.1,0.2,0.1
			c0,0.1,0,0.1,0,0.2l0,0c0,0.2,0.1,0.3,0,0.4c-0.5,1.9-2.2,2.3-3.7,2.9c-1.6,0.6-3.3,1.1-4.9,1.6c-3.8,1.3-5.8,4.3-7,7.8
			c-0.3,0.7-0.6,1.2-1.2,1.5c-0.1,0.3-0.4,0.5-0.8,0.6c-0.1,0.1-0.2,0.3-0.3,0.4c0,0-0.1,0-0.1,0c0,0-0.1,0.1-0.1,0.1
			c-0.1,0.1-0.2,0.1-0.3,0.2c0,0.1,0,0.1,0,0.2c-0.2,0.1-0.3,0.2-0.4,0.4c-1.1,1.2-1.5,2.8-0.7,4.5c0.1,0.3,0.3,0.6,0.5,0.8
			c0.1,0.2,0,0.3-0.1,0.4c-0.1,0.1-0.3,0.2-0.4,0.3c-0.8,0.7-0.9,2.1,0.1,2.8c0.2,0.2,0.5,0.3,0.7,0.5c-0.3,0.4-0.5,0.7-0.8,1
			c-0.8,1-1.4,2.2-1.8,3.4c-0.5,1.4-0.8,2.9-0.9,4.4c-0.2,1.9-0.2,3.9,0,5.8c0.1,1.3,0.3,2.7,0.5,4c0.2,1.9,0.5,3.9,0.2,5.8
			c-0.1,0.7-0.1,1.5-0.3,2.2c0,0.1,0,0.2,0,0.3c0,0.1,0.1,0.2,0.1,0.3c0.3,0.1,0.6,0.2,0.9,0.3c0.4,0.1,0.7,0.1,1.1,0.2
			c0.1,0,0.3,0.2,0.3,0.3c0,0,0,0,0,0c0.4,0,0.7,0,1.1,0c0.5,0,1.1,0,1.6,0.1c0.5-0.1,1-0.1,1.5-0.1c0.8,0,1.5,0.1,2.2,0.2
			c0.7-0.1,1.4-0.2,2.2-0.2c0.2,0,0.4,0,0.6,0c0-0.1,0.1-0.2,0.1-0.2c0.2-0.1,0.4-0.1,0.6-0.2c0.8-0.2,1.7-0.5,2.5-0.7
			c0.3-0.1,0.4-0.4,0.4-0.6c0-0.2-0.1-0.3-0.1-0.5c-0.5-1.5-0.7-3-0.7-4.6c0-1.2,0.1-2.5,0.2-3.7c0-0.6,0.1-1.2,0.1-1.8
			c0.1-1.2,0.1-2.5,0.2-3.7c0-0.5,0-1,0-1.5c-0.1-1.1-0.2-2.1-0.4-3.2c-0.4-2.7-1.5-5.2-3.3-7.2c-0.1-0.2-0.1-0.2,0.1-0.4
			c0.2-0.1,0.4-0.2,0.5-0.4c0.8-0.7,1.2-2,0-2.9c-0.2-0.2-0.5-0.3-0.7-0.4c-0.1,0-0.1-0.2-0.1-0.3c0.1-0.2,0.2-0.4,0.3-0.5
			c0.9-1.8,0.6-3.5-0.8-4.9c-0.1-0.1-0.2-0.2-0.3-0.2c-0.2-0.1-0.3-0.2-0.3-0.3c-0.1-0.3-0.1-0.5,0-0.8c0,0,0,0,0,0
			c0.4-1.8,0.7-3.6,2.5-4.7c1.4-0.8,2.7-1.5,4.2-2.1c2.1-0.9,4.3-1.7,6.3-2.8c1.5-0.8,2.3-2.1,3.5-3.7c0.3,0.6,0.4,1,0.6,1.4
			c0.2,0.4,0.3,0.8,0.6,1.1c1.9,2.1,4.5,3,6.9,4.1c1.1,0.5,2.1,0.9,3,1.6c0.1,0,0.2,0.1,0.3,0.1c0,0,0.1,0,0.1,0.1
			c0.1,0.1,0.3,0.2,0.4,0.4c0.1,0,0.1,0.1,0.1,0.1c0.2,0.1,0.4,0.1,0.5,0.3c0,0,0,0,0,0c0,0,0.1,0.1,0.1,0.2
			c0.1,0.1,0.2,0.2,0.3,0.3c0.1,0,0.1,0.1,0.2,0.2c0,0,0,0,0.1,0c0,0,0,0,0,0c0,0,0,0,0,0c0.2,0.1,0.4,0.3,0.5,0.5c0,0,0,0,0,0.1
			c0,0,0,0,0,0c0,0,0.1,0.1,0.1,0.1c0,0,0,0,0,0c0.1,0.1,0.2,0.2,0.3,0.3c0.1,0.1,0.1,0.2,0.2,0.3c0,0,0,0,0,0c0,0,0.1,0,0.1,0.1
			l0,0c0,0,0,0.1,0.1,0.1c0,0,0,0,0,0c0.2,0.2,0.3,0.4,0.4,0.6c0,0,0,0.1,0,0.1c0,0.1,0.1,0.1,0.1,0.2c0,0,0,0,0,0c0,0,0,0,0,0
			c0,0,0,0,0,0.1c0.1,0.1,0.2,0.3,0.3,0.5c0.1,0.1,0.1,0.3,0.1,0.4c0.2,0.4,0.1,0.9-0.1,1.2c0,0.1-0.1,0.1-0.1,0.2
			c-0.1,0.1-0.2,0.2-0.3,0.3c-1.1,1.2-1.5,2.8-0.7,4.5c0.1,0.3,0.3,0.6,0.5,0.8c0.1,0.2,0,0.3-0.1,0.4c-0.1,0.1-0.3,0.2-0.4,0.3
			c-0.8,0.7-0.9,2.1,0.1,2.8c0.2,0.2,0.5,0.3,0.7,0.5c-0.3,0.4-0.5,0.7-0.8,1c-0.8,1-1.4,2.2-1.8,3.4c-0.5,1.4-0.8,2.9-0.9,4.4
			c-0.2,1.9-0.2,3.9,0,5.8c0.1,1.3,0.3,2.7,0.5,4c0.2,1.9,0.5,3.9,0.2,5.8c-0.1,0.7-0.1,1.5-0.3,2.2c0,0.1,0,0.2,0,0.3
			c0,0.1,0.1,0.2,0.1,0.3c0.3,0.1,0.6,0.2,0.9,0.3c0.4,0.1,0.7,0.1,1.1,0.2c0.1,0,0.3,0.2,0.3,0.3c0,0,0,0,0,0c0.4,0,0.7,0,1.1,0
			c0.5,0,1.1,0,1.6,0.1c0.5-0.1,1-0.1,1.5-0.1c0.8,0,1.5,0.1,2.2,0.2c0.7-0.1,1.4-0.2,2.2-0.2c0.2,0,0.4,0,0.6,0
			c0-0.1,0.1-0.2,0.1-0.2c0.2-0.1,0.4-0.1,0.6-0.2c0.8-0.2,1.7-0.5,2.5-0.7c0.3-0.1,0.4-0.4,0.4-0.6c0-0.2-0.1-0.3-0.1-0.5
			c-0.5-1.5-0.7-3-0.7-4.6c0-1.2,0.1-2.5,0.2-3.7c0-0.6,0.1-1.2,0.1-1.8c0.1-1.2,0.1-2.5,0.2-3.7c0-0.5,0-1,0-1.5
			c-0.1-1.1-0.2-2.1-0.4-3.2c-0.4-2.7-1.5-5.2-3.3-7.2c-0.1-0.2-0.1-0.2,0.1-0.4c0.2-0.1,0.4-0.2,0.5-0.4c0.8-0.7,1.2-2,0-2.9
			c-0.2-0.2-0.5-0.3-0.7-0.4c-0.1,0-0.1-0.2-0.1-0.3c0.1-0.2,0.2-0.4,0.3-0.5c0.9-1.7,0.7-3.3-0.6-4.6c0,0,0-0.1,0-0.1
			c0,0-0.1-0.1-0.1-0.1c0,0,0,0,0,0c0,0,0,0,0-0.1c-0.1-0.2-0.2-0.5-0.2-0.7c-0.1-0.5,0-1,0.3-1.3c0-0.4,0.2-0.8,0.6-1
			c0.1-0.2,0.3-0.3,0.4-0.4c0.1-0.1,0.2-0.2,0.4-0.3c0.9-1,1.9-1.9,3-2.6c1.6-1.1,3.5-1.7,5.2-2.7c1.8-1.1,3.8-2.1,4.8-4.2
			c0.2-0.4,0.5-0.8,0.9-1.3c0.6,0.7,0.9,1.1,1.3,1.5c0.3,0.2,0.5,0.5,0.8,0.7c0.1,0.1,0.2,0.1,0.3,0.3c0,0,0,0,0,0
			c0.2,0.1,0.4,0.2,0.5,0.4c0.1,0,0.2,0,0.3,0.1c0.2,0.1,0.4,0.3,0.5,0.5c0.2,0.1,0.3,0.2,0.3,0.3c0,0,0.1,0.1,0.1,0.1
			c0.1,0,0.2,0.1,0.3,0.1c0.1,0,0.2,0.1,0.4,0.2l0.2,0.2c0,0,0,0,0.1,0.1c0.1,0,0.1,0.1,0.2,0.1c0.1,0,0.2,0.1,0.3,0.2
			c0.1,0,0.1,0,0.2,0.1c0.1,0.1,0.2,0.1,0.3,0.2c0,0,0,0,0,0c0.3,0,0.6,0.1,0.8,0.4c0,0,0,0,0,0.1c1.3,0.4,2.5,1.2,3.8,1.8
			c1.8,1,3.4,2.1,4,4.2c0,0.1,0,0.1,0.1,0.2c0.1,0.1,0.1,0.2,0.1,0.4c0.2,0.6,0.4,0.9,0.3,1.3c0,0.2,0,0.3-0.1,0.5
			c0,0.1-0.1,0.2-0.2,0.3c0,0,0,0,0,0c0,0,0,0-0.1,0.1l0,0c0,0,0,0-0.1,0c0,0,0,0-0.1,0.1c0,0,0,0,0,0c0,0,0,0,0,0.1
			c0,0.1-0.1,0.1-0.2,0.2v0h0c0,0,0,0.1,0,0.1l0,0c-0.1,0.1-0.1,0.1-0.2,0.1l0,0c0,0,0,0-0.1,0c-0.1,0.1-0.2,0.1-0.2,0.2
			c-1.1,1.2-1.5,2.8-0.7,4.5c0.1,0.3,0.3,0.6,0.5,0.8c0.1,0.2,0,0.3-0.1,0.4c-0.1,0.1-0.3,0.2-0.4,0.3c-0.8,0.7-0.9,2.1,0.1,2.8
			c0.2,0.2,0.5,0.3,0.7,0.5c-0.3,0.4-0.5,0.7-0.8,1c-0.8,1-1.4,2.2-1.8,3.4c-0.5,1.4-0.8,2.9-0.9,4.4c-0.2,1.9-0.2,3.9,0,5.8
			c0.1,1.3,0.3,2.7,0.5,4c0.2,1.9,0.5,3.9,0.2,5.8c-0.1,0.7-0.1,1.5-0.3,2.2c0,0.1,0,0.2,0,0.3c0,0.1,0.1,0.2,0.1,0.3
			c0.3,0.1,0.6,0.2,0.9,0.3c0.4,0.1,0.7,0.1,1.1,0.2c0.1,0,0.3,0.2,0.3,0.3c0,0,0,0,0,0c0.4,0,0.7,0,1.1,0c0.5,0,1.1,0,1.6,0.1
			c0.5-0.1,1-0.1,1.5-0.1c0.8,0,1.5,0.1,2.2,0.2c0.7-0.1,1.4-0.2,2.2-0.2c0.2,0,0.4,0,0.6,0c0-0.1,0.1-0.2,0.1-0.2
			c0.2-0.1,0.4-0.1,0.6-0.2c0.8-0.2,1.7-0.5,2.5-0.7c0.3-0.1,0.4-0.4,0.4-0.6c0-0.2-0.1-0.3-0.1-0.5c-0.5-1.5-0.7-3-0.7-4.6
			c0-1.2,0.1-2.5,0.2-3.7c0-0.6,0.1-1.2,0.1-1.8c0.1-1.2,0.1-2.5,0.2-3.7c0-0.5,0-1,0-1.5c-0.1-1.1-0.2-2.1-0.4-3.2
			c-0.4-2.7-1.5-5.2-3.3-7.2c-0.1-0.2-0.1-0.2,0.1-0.4c0.2-0.1,0.4-0.2,0.5-0.4c0.8-0.7,1.2-2,0-2.9c-0.2-0.2-0.5-0.3-0.7-0.4
			c-0.1,0-0.1-0.2-0.1-0.3c0.1-0.2,0.3-0.4,0.3-0.5c0.9-1.8,0.6-3.5-0.8-4.9c-0.1-0.1-0.1-0.1-0.2-0.2c-0.1,0-0.3-0.1-0.4-0.2
			c0,0,0,0,0,0l0,0c-0.1,0-0.2-0.1-0.3-0.1c-0.1,0-0.1-0.1-0.1-0.1c0,0,0,0,0,0c-0.1,0-0.2-0.1-0.3-0.1c-0.1,0-0.2-0.1-0.3-0.2
			c0,0,0,0,0,0c-0.1,0-0.2-0.1-0.3-0.2l0,0c0,0,0,0,0,0l0,0c0,0-0.1-0.1-0.1-0.1c-0.1,0-0.1-0.1-0.2-0.1c0,0,0,0,0,0c0,0,0,0,0,0
			c0,0,0,0,0,0c-0.1-0.1-0.2-0.1-0.3-0.2c-0.1-0.1-0.1-0.2-0.2-0.3c-0.1-0.1-0.2-0.2-0.2-0.4c-0.3-1.1-0.8-2.2-1.3-3.2c0,0,0,0,0,0
			c0,0-0.1-0.1-0.1-0.1l0,0c0,0,0,0,0,0c0,0,0,0,0,0c-0.1-0.1-0.1-0.1-0.1-0.2c-0.1-0.1-0.1-0.1-0.2-0.2c0-0.1-0.1-0.1-0.1-0.2
			c0,0,0-0.1,0-0.1c-0.1-0.1-0.1-0.1-0.2-0.3c0,0,0,0,0-0.1c0,0,0,0,0-0.1c0,0-0.1,0-0.1-0.1l0,0c0,0,0-0.1-0.1-0.1
			c-0.1-0.1-0.2-0.1-0.2-0.3c0,0,0,0,0,0c0,0,0,0,0-0.1c0,0,0,0-0.1,0c0,0,0,0-0.1-0.1c0,0-0.1-0.1-0.1-0.1c0,0,0,0-0.1-0.1
			c0,0,0,0,0,0c0,0,0,0,0,0c0,0,0,0,0,0c-0.1-0.1-0.2-0.1-0.2-0.2c0,0-0.1,0-0.1-0.1c0,0,0,0,0,0c0,0,0,0,0-0.1c0,0,0,0-0.1,0
			c0,0-0.1,0-0.1-0.1c0,0,0-0.1-0.1-0.1c-0.1,0-0.1-0.1-0.1-0.1c-0.1,0-0.1-0.1-0.2-0.1c-0.1,0-0.2-0.1-0.3-0.2c0,0,0,0-0.1-0.1
			c0,0,0,0,0,0c-0.1,0-0.1-0.1-0.2-0.1c0,0-0.1,0-0.1,0c0,0,0,0-0.1,0c0,0,0,0,0,0c0,0-0.1-0.1-0.1-0.1c-0.1,0-0.2,0-0.2-0.1
			c0,0,0,0,0,0c0,0,0,0,0,0c-0.1,0-0.2-0.1-0.2-0.2c-0.1,0-0.2-0.1-0.3-0.2c0,0-0.1,0-0.1,0c-0.1-0.1-0.2-0.1-0.3-0.3
			c0,0,0,0-0.1-0.1c0,0,0,0,0,0c0,0,0,0,0,0c-0.1,0-0.1-0.1-0.2-0.1c0,0,0,0,0,0c0,0,0,0,0,0c0,0,0,0,0,0c-0.1,0-0.1-0.1-0.2-0.2
			c0,0-0.1,0-0.1,0c0,0,0,0,0,0c0,0-0.1-0.1-0.1-0.1c-0.1,0-0.1-0.1-0.2-0.1c-0.1,0-0.2-0.1-0.2-0.1c-0.1,0-0.2-0.1-0.3-0.2
			c0,0-0.1,0-0.1-0.1c-1.6-0.8-3.2-1.6-4.8-2.4c-1-0.5-2-1.2-2.4-2.6c0.1,0,0.2,0,0.3,0c0,0,0,0,0.1,0c0.1,0,0.2,0,0.2,0
			c0,0,0,0,0-0.1c0.1,0,0.1,0,0.2,0c0,0,0.1,0,0.1,0c0,0,0,0,0.1,0c0,0,0.1,0,0.1,0c0,0,0-0.1,0.1-0.1c0.2-0.1,0.4-0.1,0.6-0.2
			c0.8-0.2,1.7-0.5,2.5-0.7c0.3-0.1,0.4-0.4,0.4-0.6c0-0.2-0.1-0.3-0.1-0.5c-0.5-1.5-0.7-3-0.7-4.6c0-1.2,0.1-2.5,0.2-3.7
			c0-0.6,0.1-1.2,0.1-1.8c0.1-1.2,0.1-2.5,0.2-3.7c0-0.5,0-1,0-1.5c-0.1-1.1-0.2-2.1-0.4-3.2c-0.4-2.7-1.5-5.2-3.3-7.2
			c-0.1-0.2-0.1-0.2,0.1-0.4c0.2-0.1,0.4-0.2,0.5-0.4c0.8-0.7,1.2-2,0-2.9c-0.2-0.2-0.5-0.3-0.7-0.4c-0.1,0-0.1-0.2-0.1-0.3
			c0.1-0.2,0.3-0.4,0.3-0.5c0.9-1.8,0.6-3.5-0.8-4.9c-0.1-0.1-0.2-0.2-0.3-0.2c-0.2-0.1-0.3-0.3-0.4-0.4c-0.5,0-1-0.1-1.5-0.2
			c0-0.1-0.1-0.3-0.1-0.4c-0.4-3.6-2.6-5.9-5.4-7.8c-1.7-1.1-3.6-1.9-5.2-3c-2.4-1.6-1.9-1.7-2.8-2.7c-0.3-0.3-0.5-0.7-0.9-1.2
			c0.1,0,0.2-0.1,0.4-0.1c0.8-0.2,1.7-0.5,2.5-0.7c0.3-0.1,0.4-0.4,0.4-0.6c0-0.2-0.1-0.3-0.1-0.5c-0.5-1.5-0.7-3-0.7-4.6
			c0-1.2,0.1-2.5,0.2-3.7c0-0.6,0.1-1.2,0.1-1.8c0.1-1.2,0.1-2.5,0.2-3.7c0-0.5,0-1,0-1.5c-0.1-1.1-0.2-2.1-0.4-3.2
			c-0.4-2.7-1.5-5.2-3.3-7.2c-0.1-0.2-0.1-0.2,0.1-0.4c0.2-0.1,0.4-0.2,0.5-0.4c0.8-0.7,1.2-2,0-2.9c-0.2-0.2-0.5-0.3-0.7-0.4
			c-0.1,0-0.1-0.2-0.1-0.3c0.1-0.2,0.2-0.4,0.3-0.5c0.9-1.8,0.6-3.5-0.8-4.9c-0.1-0.1-0.2-0.2-0.3-0.2c-0.2-0.1-0.3-0.3-0.4-0.4
			c-0.1,0-0.1,0-0.2,0c-0.2-1.3-0.3-2.7-0.4-4c0-0.1,0-0.2,0-0.4c0-0.2-0.1-0.4,0-0.6c0-0.1,0-0.2,0-0.3v-0.1c0-0.1,0-0.2,0-0.3
			c0,0,0-0.1,0-0.1c0-0.1-0.1-0.2-0.1-0.3v0c0-0.1,0-0.2,0-0.3c0-0.1,0-0.1,0-0.2c0,0,0-0.1,0-0.1v0c0-0.1,0-0.2,0-0.3
			c0-0.1,0-0.2,0-0.3c0,0,0,0,0,0c-0.1-2.2,0.4-4.3,0.8-6.4c0.5-2.7,1.7-5.3,3.3-7.4c0.9-1.3,1.7-2.7,3.2-3.6c1.5-0.9,2.9-2,4.4-3
			c3-1.9,6.2-3.1,9.7-3.6c1.6-0.2,3.1-0.6,4.6-0.9c0.7-0.1,2.5-0.4,3.2-0.5c2.4-0.1,3.2,0.1,5.6,0.1c1,0,2.1,0,3,0
			c0.2,0,0.9,0,1.6-0.1c2-0.1,4-0.2,6-0.2c1,0,1.9,0.1,2.9,0.1c0.7,0,1.4-0.1,2.1-0.1c1.5,0,2.9,0.2,4.4,0.2c0.5,0,0.9,0,1.3,0.1
			c0.1,0,0.1,0,0.2,0c0.2,0,0.4,0.1,0.5,0.1c0.1,0,0.2,0,0.2,0c0.1,0,0.1,0.1,0.2,0.1c0.1,0,0.2,0,0.3,0c0.1,0,0.3,0,0.4,0.1
			c0,0,0.1,0,0.1,0c0,0,0,0,0,0l0.1,0c0.1,0,0.2,0,0.2,0h0.4c0.2,0,0.3,0,0.4,0.1c0,0,0.1,0,0.1,0c0.1,0,0.1,0,0.2,0.1
			c0.1,0,0.1-0.1,0.2-0.1h0.1c0,0,0,0,0.1,0c0.1,0,0.1,0,0.2,0c0.3,0,0.5,0.1,0.7,0.1c0.1,0,0.1,0,0.2,0.1c0.1,0,0.1,0,0.2,0
			c0.1,0,0.2,0,0.2,0h0.1c0.1,0,0.2,0,0.3,0.1c0.1,0,0.3,0,0.4,0c0,0,0.1,0,0.1,0c0,0,0,0,0,0c0.1,0,0.2,0,0.2,0c0.1,0,0.2,0,0.3,0
			c0,0,0,0,0.1,0c0.1,0,0.3,0,0.4,0.1c0.1,0,0.2,0,0.2,0c0.4,0,0.8,0.1,1.1,0.2c0.1,0,0.1,0,0.2,0c0.2,0,0.3,0,0.5,0.1c0,0,0,0,0,0
			h0.2c0,0,0.1,0,0.1,0c0.1,0,0.2-0.1,0.4-0.1c0.1,0,0.6,0.1,0.3,0c0.2,0,0.3,0.1,0.4,0.1c0.2-0.1,0.5-0.1,0.7,0c0,0,0.1,0,0.1,0
			c1.1-0.2,2.2,0,3.2,0c2.6,0.1,5.1,0.3,7.6,0.9c1,0.3,2.1,0.2,3.1,0.5c0.3,0,0.6,0.1,0.9,0.2h0c0,0,0.1,0,0.1,0c0.2,0,0.3,0,0.5,0
			c-0.1,0-0.1,0-0.2,0c0.1,0,0.1,0,0.2,0c0.1,0,0.2,0,0.3,0c0.2,0,0.4,0,0.5,0.1c0.1,0,0.2,0,0.3,0c1.7,0,3.5,0.1,5.2,0.5
			c0.2,0,0.4,0.1,0.6,0.1c-0.1,0-0.2,0-0.2,0.1c0.2,0,0.4,0,0.6,0c0.2,0,0.5,0,0.7,0c0.1,0,0.1,0.1,0.2,0.1c0,0,0,0,0,0
			c-1.7,0.6-3.4,1.3-5.1,1.9c-0.8,0.3-1.6,0.6-2.4,0.9c-5,2.2-9.7,5-14,8.4c-0.5,0.4-1,0.8-1.5,1.2c-3.1,2.3-6,4.9-8.7,7.6
			c-2.6,2.6-5,5.4-7.4,8.2c-0.2,0.3-0.5,0.6-0.5,1c0,3.9,0,7.7,0.3,11.6c0,0.1,0,0.1,0,0.2c0,0.2,0.2,0.4,0.4,0.4
			c0.8,0.1,1.6,0.2,2.4,0.4c3.4,1.1,5.7,3.3,6.9,6.6c0.1,0.2,0.1,0.4,0.1,0.6c0,0.1,0,0.2-0.1,0.3c-0.2,0.1-0.3,0.3-0.5,0.4
			c-1.3,0.8-2.4,1.8-3.2,3.1c-1.7,2.6-3.3,5.1-5,7.7c-0.7,1.1-1.2,2.3-1.7,3.5c-1,2.3-2,4.6-3,6.9c-1.3,3.3-2.4,6.6-3.2,10.1
			c-0.3,1.2-0.5,2.4-0.5,3.7c0,0.5-0.1,1.1-0.2,1.6c-0.6,3.5-1,7-0.9,10.6c0,1.2,0,2.4,0.1,3.5c0,1.2,0,2.5,0.3,3.7
			c0,0.3,0.1,0.5,0.1,0.8c0,1.3,0.1,2.6,0.2,3.9c0,0,0,0,0,0c0.1,0.6,0.3,1.3,0.4,1.9c0.1,0.7,0,1.5,0.3,2c0.8,1.3,0.6,2.7,1.1,4
			c0.8,2.2,1.1,4.5,1.9,6.7c1.2,3.2,2.6,6.2,3.9,9.3c1,2.2,2,4.3,3.1,6.4c0.7,1.4,2,2.6,2.3,4.3c0,0.1,0.1,0.2,0.1,0.3
			c1,1.4,1.8,2.8,2.4,4.5c0.8,2.2,2.4,4.1,2.8,6.5c0.1,0.9,0.5,1.7,0.7,2.5c0.4,1.6,1.2,3.1,1.1,4.9c-0.1,0.9,0,1.9,0,2.8
			c0,0.9-0.1,1.8-0.1,2.7c0,1.1,0,2.2,0.5,3c0.8,0.2,1.5,0.2,2,0.4c2.2,1.2,4.1,2.8,5.7,4.7c2.5,3,4.4,6.4,6.4,9.8
			c1.9,3.1,3.8,6.2,5.3,9.5c1.3,3,2.8,5.9,4.1,8.9c0.8,1.7,1.5,3.5,2.2,5.2c1,2.3,1.9,4.6,2.9,7c1.1,2.7,1.9,5.6,3.3,8.1
			c1.3,2.3,2.3,4.8,4,6.9c1.7,2.1,2.9,4.5,5.2,6.1c0,0,0.1,0.1,0.1,0.1c1.2,1.4,2.7,2.5,4.4,3.4c0.6,0.3,1.3,0.3,1.9,0.7
			c2.2,1.3,4.7,1.6,7.1,1.8c4,0.4,7.8-0.7,11.6-1.5c0.3-0.2,0.7-0.4,1.1-0.6c0.3-0.2,0.7-0.3,1-0.5c0.3-0.3,0.6-0.5,1-0.7
			c0.4-0.2,0.8-0.3,1.3-0.3l0,0c0.2,0,0.4-0.1,0.6-0.1h0.1l0,0c0.2,0,0.3-0.1,0.5-0.1c0,0,0,0,0.1,0c0.1,0,0.2,0,0.2,0
			c0,0,0.1,0,0.1,0c0.2,0,1.6-0.2,3.4,0c0,0,0,0,0,0c0.2,0,0.3,0,0.5,0.1c0,0,0,0,0,0h0c0.9,0.1,1.8,0.4,2.8,0.8c0,0,0,0,0.1,0
			c0.1,0,0.1,0,0.2,0.1c0,0,0,0,0,0c0,0,0.1,0,0.1,0c0.1,0,0.1,0.1,0.2,0.1c0.1,0,0.3,0.1,0.4,0.2c0.1,0,0.2,0.1,0.3,0.1
			c0.1,0,0.3,0.1,0.4,0.2c0.2,0.1,0.3,0.1,0.5,0.2c0.1,0,0.3,0.1,0.4,0.2c0.2,0,0.4,0.1,0.6,0.2c0.1,0,0.1,0.1,0.2,0.1
			c3.6,0.8,7.2,1.8,10.9,1.4c2.5-0.2,4.9-0.5,7.1-1.8c0.6-0.3,1.3-0.4,1.9-0.7c1.7-0.8,3.1-1.9,4.4-3.4c0,0,0.1-0.1,0.1-0.1
			c2.3-1.6,3.5-4,5.2-6.1c1.7-2.2,2.7-4.6,4-6.9c1.4-2.5,2.2-5.4,3.3-8.1c0.9-2.3,1.9-4.6,2.9-7c0.7-1.7,1.4-3.5,2.2-5.2
			c1.3-3,2.8-5.9,4.1-8.9c1.5-3.3,3.4-6.4,5.3-9.5c2-3.3,3.9-6.8,6.4-9.8c1.6-1.9,3.4-3.6,5.7-4.7c0.5-0.3,1.2-0.3,2-0.4
			c0.6-0.8,0.5-1.9,0.5-3c0-0.9-0.1-1.8-0.1-2.7c0-0.9,0-1.9,0-2.8c-0.2-1.7,0.7-3.3,1.1-4.9c0.2-0.9,0.6-1.7,0.7-2.5
			c0.4-2.4,2-4.3,2.8-6.5c0.6-1.6,1.3-3.1,2.4-4.5c0.1-0.1,0.1-0.2,0.1-0.3c0.3-1.7,1.5-2.8,2.3-4.3c1.1-2.1,2.1-4.2,3.1-6.4
			c1.4-3.1,2.8-6.2,3.9-9.3c0.8-2.2,1.2-4.5,1.9-6.7c0.5-1.3,0.3-2.8,1.1-4c0.3-0.5,0.2-1.3,0.3-2c0.1-0.6,0.3-1.3,0.4-1.9l0,0
			c0.1-1.3,0.3-2.6,0.2-3.9c0-0.3,0-0.5,0.1-0.8c0.2-1.2,0.2-2.5,0.3-3.7c0-1.2,0-2.4,0.1-3.5c0.1-3.6-0.2-7.1-0.9-10.6
			c-0.1-0.5-0.2-1.1-0.2-1.6c-0.1-1.2-0.3-2.4-0.5-3.7c-0.7-3.5-1.8-6.8-3.2-10.1c-1-2.3-2-4.6-3-6.9c-0.5-1.2-1-2.4-1.7-3.5
			c-1.6-2.6-3.3-5.2-5-7.7c-0.8-1.3-1.9-2.3-3.2-3.1c-0.2-0.1-0.4-0.2-0.5-0.4c-0.1-0.1-0.1-0.2-0.1-0.3c0-0.2,0.1-0.4,0.1-0.6
			c1.3-3.3,3.6-5.5,6.9-6.6c0.8-0.3,1.6-0.3,2.4-0.4c0.2,0,0.4-0.3,0.4-0.4c0-0.1,0-0.1,0-0.2c0.3-3.9,0.3-7.7,0.3-11.6
			c0-0.4-0.2-0.7-0.5-1c-2.4-2.8-4.9-5.6-7.4-8.2c-2.7-2.8-5.6-5.4-8.7-7.6c-0.5-0.4-1-0.8-1.5-1.2c-4.3-3.4-9-6.2-14-8.4
			c-0.8-0.3-1.6-0.6-2.4-0.9c-1.7-0.6-3.4-1.3-5.1-1.9c0,0,0,0,0,0c0.2-0.1,0.4-0.3,0.5-0.2c0.7,0.2,1.4,0.1,2.1,0
			c1.6-0.3,3.3-0.5,4.9-0.5c0.1,0,0.2,0,0.3,0c0.2,0,0.3,0,0.4,0.1c0,0,0.1,0,0.1,0c0.2-0.1,0.4-0.1,0.7-0.1c0,0,0.1,0,0.1,0
			c0,0,0.1,0,0.1,0c0.1,0,0.1,0,0.2,0c0,0,0.1,0,0.1,0h0.1c0.1,0,0.2,0,0.2,0c0,0,0,0,0.1,0c1.2-0.5,2.5-0.4,3.7-0.7
			c2.5-0.6,5.1-0.8,7.6-0.9c0.9,0,1.7-0.1,2.6-0.1c0.2-0.1,0.3-0.1,0.5-0.1h0.1c0.2,0,0.5,0.1,0.6,0.2c0.2-0.1,0.3-0.1,0.5-0.1
			c0,0,0.1,0,0.1,0c0,0,0.1,0,0.1,0h0.1c0,0,0.1,0,0.1,0c0.2-0.1,0.4-0.1,0.6-0.1c0.2,0,0.3-0.1,0.5-0.1h0.1c0.1,0,0.1,0,0.2,0
			c0.2-0.1,0.3-0.1,0.5-0.1h0.1c0,0,0.1,0,0.1,0c0,0,0.1,0,0.1,0h0.3c0,0,0,0,0,0c0.2-0.1,0.4-0.1,0.7-0.1h0.1c0.1,0,0.1,0,0.1,0
			c0.1,0,0.1,0,0.2,0h0.1c0.1,0,0.2,0,0.4,0.1c0,0,0.1,0,0.1,0c0.2-0.1,0.4-0.1,0.6-0.1h0.1c0,0,0,0,0,0c0.1,0,0.3-0.1,0.4-0.1h0.2
			c0,0,0,0,0,0c0.1,0,0.1,0,0.2-0.1c0.2-0.1,0.4-0.1,0.6,0c0.2,0,0.3-0.1,0.5-0.1h0.3c0.1,0,0.2,0,0.2,0c0,0,0.1,0,0.1,0
			c0,0,0,0,0.1,0c0.3-0.1,0.6-0.1,0.9,0c0.1,0,0.2,0,0.3,0c0.2-0.2,0.6-0.3,1-0.3c0.1,0,0.2,0,0.4,0c0.5-0.1,0.9-0.2,1.4-0.2
			c1.5,0.1,2.9-0.1,4.4-0.2c0.7,0,1.4,0.1,2.1,0.1c1,0,1.9-0.1,2.9-0.1c1.5,0,3,0.1,4.4,0.1c0,0,0,0,0,0c0.3,0,2.1,0.1,2.3,0.1
			c1,0,2.1,0,3,0c2.4,0,3.2-0.2,5.6-0.1c0.7,0,2.5,0.3,3.2,0.5c1.5,0.3,3.1,0.7,4.6,0.9c3.5,0.5,6.7,1.7,9.7,3.6
			c1.5,1,2.9,2.2,4.4,3c1.6,0.9,2.3,2.4,3.2,3.6c1.6,2.2,2.8,4.8,3.3,7.4c0.4,2.1,1,4.2,0.8,6.4c0,0,0,0,0,0c0,0.1,0,0.2,0,0.3
			c0,0.1,0,0.2,0,0.3v0c0,0.1,0,0.1,0,0.1c0,0.1,0,0.1,0,0.2c0,0.1,0,0.2,0,0.3v0c0,0.1,0,0.2-0.1,0.3c0,0,0,0.1,0,0.1
			c0,0.1,0,0.2,0,0.3v0.1c0,0.1,0,0.2,0,0.3c0,0.2,0,0.4,0,0.6c0,0.1,0,0.2,0,0.4c-0.1,1.3-0.2,2.7-0.4,4c-0.1,0-0.1,0-0.2,0
			c-0.1,0.2-0.2,0.3-0.4,0.4c-0.1,0.1-0.2,0.1-0.3,0.2c-1.4,1.4-1.7,3.1-0.8,4.9c0.1,0.2,0.3,0.3,0.3,0.5c0,0.1,0,0.2-0.1,0.3
			c-0.2,0.2-0.5,0.3-0.7,0.4c-1.2,1-0.8,2.3,0,2.9c0.2,0.1,0.4,0.2,0.5,0.4c0.2,0.1,0.2,0.2,0.1,0.4c-1.9,2.1-2.9,4.5-3.3,7.2
			c-0.2,1.1-0.3,2.1-0.4,3.2c0,0.5,0,1,0,1.5c0,1.2,0.1,2.5,0.2,3.7c0,0.6,0.1,1.2,0.1,1.8c0.1,1.2,0.2,2.5,0.2,3.7
			c0.1,1.6-0.1,3.1-0.7,4.6c-0.1,0.2-0.1,0.3-0.1,0.5c-0.1,0.3,0.1,0.5,0.4,0.6c0.8,0.3,1.7,0.5,2.5,0.7c0.1,0,0.2,0.1,0.4,0.1
			c-0.3,0.5-0.6,0.9-0.9,1.2c-0.9,1-0.4,1.1-2.8,2.7c-1.7,1.1-3.5,1.9-5.2,3c-2.8,1.9-5,4.2-5.4,7.8c0,0.1,0,0.3-0.1,0.4
			c-0.5,0.1-1,0.1-1.5,0.2c-0.1,0.2-0.2,0.3-0.4,0.4c-0.1,0.1-0.2,0.1-0.3,0.2c-1.4,1.4-1.7,3.1-0.8,4.9c0.1,0.2,0.3,0.3,0.3,0.5
			c0,0.1,0,0.2-0.1,0.3c-0.2,0.2-0.5,0.3-0.7,0.4c-1.2,1-0.8,2.3,0,2.9c0.2,0.1,0.4,0.2,0.5,0.4c0.2,0.1,0.2,0.2,0.1,0.4
			c-1.9,2.1-2.9,4.5-3.3,7.2c-0.2,1.1-0.3,2.1-0.4,3.2c0,0.5,0,1,0,1.5c0,1.2,0.1,2.5,0.2,3.7c0,0.6,0.1,1.2,0.1,1.8
			c0.1,1.2,0.2,2.5,0.2,3.7c0.1,1.6-0.1,3.1-0.7,4.6c-0.1,0.2-0.1,0.3-0.1,0.5c-0.1,0.3,0.1,0.5,0.4,0.6c0.8,0.3,1.7,0.5,2.5,0.7
			c0.2,0.1,0.4,0.1,0.6,0.2c0,0,0.1,0.1,0.1,0.1c0,0,0.1,0,0.1,0c0,0,0,0,0.1,0c0,0,0,0,0.1,0c0.1,0,0.1,0,0.2,0c0,0,0,0,0,0.1
			c0.1,0,0.2,0,0.2,0c0,0,0,0,0.1,0c0.1,0,0.2,0,0.3,0c-0.4,1.4-1.4,2.1-2.4,2.6c-1.6,0.8-3.2,1.6-4.8,2.4c0,0-0.1,0-0.1,0.1
			c-0.1,0.1-0.2,0.2-0.3,0.2c-0.1,0-0.1,0.1-0.2,0.1c-0.1,0-0.1,0.1-0.2,0.1c0,0-0.1,0.1-0.1,0.1c0,0,0,0,0,0c0,0-0.1,0-0.1,0
			c-0.1,0.1-0.1,0.1-0.2,0.2c0,0,0,0,0,0c0,0,0,0,0,0c0,0,0,0,0,0c-0.1,0.1-0.1,0.1-0.2,0.1c0,0,0,0,0,0c0,0,0,0,0,0
			c0,0,0,0-0.1,0.1c-0.1,0.1-0.2,0.2-0.3,0.3c0,0-0.1,0-0.1,0c-0.1,0.1-0.2,0.2-0.3,0.2c-0.1,0.1-0.1,0.1-0.2,0.2c0,0,0,0,0,0
			c0,0,0,0,0,0c-0.1,0.1-0.2,0.1-0.2,0.1c0,0-0.1,0.1-0.1,0.1c0,0,0,0,0,0c0,0,0,0-0.1,0c0,0-0.1,0-0.1,0c0,0-0.1,0.1-0.2,0.1
			c0,0,0,0,0,0c0,0,0,0-0.1,0.1c-0.1,0.1-0.2,0.1-0.3,0.2c0,0-0.1,0.1-0.2,0.1c0,0-0.1,0.1-0.1,0.1c0,0,0,0.1-0.1,0.1
			c0,0-0.1,0-0.1,0.1c0,0,0,0-0.1,0c0,0,0,0,0,0.1c0,0,0,0,0,0c0,0-0.1,0-0.1,0.1c-0.1,0.1-0.1,0.2-0.2,0.2c0,0,0,0,0,0c0,0,0,0,0,0
			c0,0,0,0,0,0c0,0,0,0-0.1,0.1c0,0,0,0.1-0.1,0.1c0,0,0,0-0.1,0.1c0,0,0,0-0.1,0c0,0,0,0,0,0.1c0,0,0,0,0,0
			c-0.1,0.1-0.2,0.2-0.2,0.3c0,0,0,0.1-0.1,0.1l0,0c0,0-0.1,0-0.1,0.1c0,0,0,0,0,0.1c0,0,0,0,0,0.1c-0.1,0.1-0.1,0.2-0.2,0.3
			c0,0,0,0.1,0,0.1c0,0.1,0,0.1-0.1,0.2c-0.1,0.1-0.1,0.2-0.2,0.2c0,0.1-0.1,0.1-0.1,0.2c0,0,0,0,0,0c0,0,0,0,0,0l0,0
			c0,0-0.1,0.1-0.1,0.1c0,0,0,0,0,0c-0.5,1-1,2.1-1.3,3.2c0,0.2-0.1,0.3-0.2,0.4c0,0.1-0.1,0.2-0.2,0.3c-0.1,0.1-0.1,0.2-0.3,0.2
			c0,0,0,0,0,0c0,0,0,0,0,0c0,0,0,0,0,0c0,0-0.1,0.1-0.2,0.1c0,0-0.1,0.1-0.1,0.1l0,0c0,0,0,0,0,0l0,0c-0.1,0.1-0.2,0.2-0.3,0.2
			c0,0,0,0,0,0c-0.1,0.1-0.2,0.1-0.3,0.2c-0.1,0-0.2,0.1-0.3,0.1c0,0,0,0,0,0c0,0-0.1,0.1-0.1,0.1c-0.1,0.1-0.2,0.1-0.3,0.1l0,0
			c0,0,0,0,0,0c-0.1,0.1-0.2,0.2-0.4,0.2c-0.1,0-0.1,0.1-0.2,0.2c-1.4,1.4-1.7,3.1-0.8,4.9c0.1,0.2,0.3,0.3,0.3,0.5
			c0,0.1,0,0.2-0.1,0.3c-0.2,0.2-0.5,0.3-0.7,0.4c-1.2,1-0.8,2.3,0,2.9c0.2,0.1,0.4,0.2,0.5,0.4c0.2,0.1,0.2,0.2,0.1,0.4
			c-1.9,2.1-2.9,4.5-3.3,7.2c-0.2,1.1-0.3,2.1-0.4,3.2c0,0.5,0,1,0,1.5c0,1.2,0.1,2.5,0.2,3.7c0,0.6,0.1,1.2,0.1,1.8
			c0.1,1.2,0.2,2.5,0.2,3.7c0.1,1.6-0.1,3.1-0.7,4.6c-0.1,0.2-0.1,0.3-0.1,0.5c-0.1,0.3,0.1,0.5,0.4,0.6c0.8,0.3,1.7,0.5,2.5,0.7
			c0.2,0.1,0.4,0.1,0.6,0.2c0.1,0,0.1,0.2,0.1,0.2c0.2,0,0.4,0,0.6,0c0.7,0,1.4,0.1,2.2,0.2c0.7-0.1,1.4-0.2,2.2-0.2
			c0.5,0,1,0,1.5,0.1c0.5-0.1,1.1-0.1,1.6-0.1c0.4,0,0.7,0,1.1,0c0,0,0,0,0,0c0-0.1,0.2-0.3,0.3-0.3c0.4-0.1,0.7-0.1,1.1-0.2
			c0.3-0.1,0.6-0.2,0.9-0.3c0.1,0,0.1-0.2,0.1-0.3c0-0.1,0-0.2,0-0.3c-0.2-0.7-0.2-1.5-0.3-2.2c-0.3-2,0-3.9,0.2-5.8
			c0.2-1.3,0.3-2.7,0.5-4c0.2-1.9,0.2-3.9,0-5.8c-0.1-1.5-0.5-3-0.9-4.4c-0.4-1.2-1-2.4-1.8-3.4c-0.3-0.3-0.5-0.7-0.8-1
			c0.3-0.2,0.5-0.3,0.7-0.5c1-0.7,0.9-2.1,0.1-2.8c-0.1-0.1-0.3-0.2-0.4-0.3c-0.1-0.1-0.2-0.3-0.1-0.4c0.2-0.3,0.4-0.5,0.5-0.8
			c0.8-1.7,0.4-3.3-0.7-4.5c-0.1-0.1-0.1-0.1-0.2-0.2c0,0,0,0-0.1,0l0,0c-0.1,0-0.1-0.1-0.2-0.1l0,0c0,0,0-0.1,0-0.1h0v0
			c-0.1-0.1-0.1-0.1-0.2-0.2c0,0,0,0,0-0.1c0,0,0,0,0,0c0,0,0,0-0.1-0.1c0,0,0,0-0.1,0l0,0c0,0,0,0-0.1-0.1c0,0,0,0,0,0
			c-0.1-0.1-0.1-0.2-0.2-0.3c-0.1-0.1-0.1-0.3-0.1-0.5c-0.1-0.4,0.1-0.7,0.3-1.3c0-0.1,0.1-0.3,0.1-0.4c0-0.1,0-0.1,0.1-0.2
			c0.7-2.1,2.2-3.2,4-4.2c1.2-0.7,2.4-1.4,3.8-1.8c0,0,0,0,0-0.1c0.2-0.4,0.5-0.5,0.8-0.4c0,0,0,0,0,0c0.1-0.1,0.2-0.2,0.3-0.2
			c0.1,0,0.1,0,0.2-0.1c0.1-0.1,0.2-0.1,0.3-0.2c0,0,0.1-0.1,0.2-0.1c0,0,0-0.1,0.1-0.1l0.2-0.2c0.1-0.1,0.2-0.2,0.4-0.2
			c0.1-0.1,0.2-0.1,0.3-0.1c0,0,0.1-0.1,0.1-0.1c0.1-0.1,0.2-0.3,0.3-0.3c0.2-0.2,0.3-0.4,0.5-0.5c0.1-0.1,0.2-0.1,0.3-0.1
			c0.1-0.2,0.3-0.3,0.5-0.4c0,0,0,0,0,0c0.1-0.1,0.2-0.2,0.3-0.3c0.3-0.2,0.5-0.5,0.8-0.7c0.4-0.4,0.7-0.8,1.3-1.5
			c0.4,0.5,0.7,0.9,0.9,1.3c1,2.1,3,3.1,4.8,4.2c1.7,1,3.5,1.7,5.2,2.7c1.1,0.7,2.1,1.7,3,2.6c0.2,0.1,0.3,0.2,0.4,0.3
			c0.2,0.1,0.3,0.3,0.4,0.4c0.4,0.2,0.6,0.6,0.6,1c0.3,0.3,0.4,0.9,0.3,1.3c0,0.2,0,0.5-0.2,0.7c0,0,0,0,0,0.1c0,0,0,0,0,0
			c0,0-0.1,0.1-0.1,0.1c0,0,0,0.1,0,0.1c-1.2,1.3-1.4,3-0.6,4.6c0.1,0.2,0.3,0.3,0.3,0.5c0,0.1,0,0.2-0.1,0.3
			c-0.2,0.2-0.5,0.3-0.7,0.4c-1.2,1-0.8,2.3,0,2.9c0.2,0.1,0.4,0.2,0.5,0.4c0.2,0.1,0.2,0.2,0.1,0.4c-1.9,2.1-2.9,4.5-3.3,7.2
			c-0.2,1.1-0.3,2.1-0.4,3.2c0,0.5,0,1,0,1.5c0,1.2,0.1,2.5,0.2,3.7c0,0.6,0.1,1.2,0.1,1.8c0.1,1.2,0.2,2.5,0.2,3.7
			c0.1,1.6-0.1,3.1-0.7,4.6c-0.1,0.2-0.1,0.3-0.1,0.5c-0.1,0.3,0.1,0.5,0.4,0.6c0.8,0.3,1.7,0.5,2.5,0.7c0.2,0.1,0.4,0.1,0.6,0.2
			c0.1,0,0.1,0.2,0.1,0.2c0.2,0,0.4,0,0.6,0c0.7,0,1.5,0.1,2.2,0.2c0.7-0.1,1.4-0.2,2.2-0.2c0.5,0,1,0,1.5,0.1
			c0.5-0.1,1.1-0.1,1.6-0.1c0.4,0,0.7,0,1.1,0c0,0,0,0,0,0c0-0.1,0.2-0.3,0.3-0.3c0.4-0.1,0.7-0.1,1.1-0.2c0.3-0.1,0.6-0.2,0.9-0.3
			c0.1,0,0.1-0.2,0.2-0.3c0-0.1,0-0.2,0-0.3c-0.2-0.7-0.2-1.5-0.3-2.2c-0.3-2,0-3.9,0.2-5.8c0.2-1.3,0.3-2.7,0.5-4
			c0.2-1.9,0.2-3.9,0-5.8c-0.1-1.5-0.5-3-0.9-4.4c-0.4-1.2-1-2.4-1.8-3.4c-0.3-0.3-0.5-0.7-0.8-1c0.3-0.2,0.5-0.3,0.7-0.5
			c1-0.7,0.9-2.1,0.1-2.8c-0.1-0.1-0.3-0.2-0.4-0.3c-0.1-0.1-0.2-0.3-0.1-0.4c0.2-0.3,0.4-0.5,0.5-0.8c0.8-1.7,0.4-3.3-0.7-4.5
			c-0.1-0.1-0.2-0.2-0.3-0.3c0-0.1-0.1-0.1-0.1-0.2c-0.2-0.4-0.3-0.8-0.1-1.2c0-0.1,0.1-0.3,0.1-0.4c0.1-0.2,0.1-0.3,0.3-0.5
			c0,0,0,0,0-0.1c0,0,0,0,0,0c0,0,0,0,0,0c0-0.1,0.1-0.1,0.1-0.2c0,0,0-0.1,0-0.1c0.1-0.2,0.2-0.5,0.4-0.6c0,0,0,0,0,0
			c0,0,0-0.1,0.1-0.1l0,0c0,0,0.1,0,0.1-0.1c0,0,0,0,0,0c0.1-0.1,0.1-0.2,0.2-0.3c0.1-0.1,0.2-0.2,0.3-0.3c0,0,0,0,0,0
			c0,0,0.1-0.1,0.1-0.1c0,0,0,0,0,0c0,0,0,0,0-0.1c0.1-0.2,0.3-0.4,0.5-0.5c0,0,0,0,0,0c0,0,0,0,0,0c0,0,0,0,0.1,0
			c0.1-0.1,0.1-0.1,0.2-0.2c0.1-0.1,0.2-0.2,0.3-0.3c0-0.1,0.1-0.1,0.1-0.2c0,0,0,0,0,0c0.1-0.1,0.3-0.2,0.5-0.3
			c0.1,0,0.1-0.1,0.1-0.1c0.1-0.1,0.2-0.3,0.4-0.4c0,0,0.1,0,0.1-0.1c0.1-0.1,0.2-0.1,0.3-0.1c0.9-0.7,2-1.2,3-1.6
			c2.5-1.1,5.1-2,6.9-4.1c0.3-0.3,0.4-0.7,0.6-1.1c0.2-0.4,0.3-0.7,0.6-1.4c1.2,1.6,2,2.9,3.5,3.7c2,1.1,4.2,2,6.3,2.8
			c1.4,0.6,2.8,1.3,4.2,2.1c1.8,1,2.1,2.9,2.5,4.7c0,0,0,0,0,0c0.1,0.3,0.1,0.5,0,0.8c-0.1,0.1-0.2,0.2-0.3,0.3
			c-0.1,0.1-0.2,0.1-0.3,0.2c-1.4,1.4-1.7,3.1-0.8,4.9c0.1,0.2,0.3,0.3,0.3,0.5c0,0.1,0,0.2-0.1,0.3c-0.2,0.2-0.5,0.3-0.7,0.4
			c-1.2,1-0.8,2.3,0,2.9c0.2,0.1,0.4,0.2,0.5,0.4c0.2,0.1,0.2,0.2,0.1,0.4c-1.9,2.1-2.9,4.5-3.3,7.2c-0.2,1.1-0.3,2.1-0.4,3.2
			c0,0.5,0,1,0,1.5c0,1.2,0.1,2.5,0.2,3.7c0,0.6,0.1,1.2,0.1,1.8c0.1,1.2,0.2,2.5,0.2,3.7c0.1,1.6-0.1,3.1-0.7,4.6
			c-0.1,0.2-0.1,0.3-0.1,0.5c-0.1,0.3,0.1,0.5,0.4,0.6c0.8,0.3,1.7,0.5,2.5,0.7c0.2,0.1,0.4,0.1,0.6,0.2c0.1,0,0.1,0.2,0.1,0.2
			c0.2,0,0.4,0,0.6,0c0.7,0,1.5,0.1,2.2,0.2c0.7-0.1,1.4-0.2,2.2-0.2c0.5,0,1,0,1.5,0.1c0.5-0.1,1.1-0.1,1.6-0.1c0.4,0,0.7,0,1.1,0
			c0,0,0,0,0,0c0-0.1,0.2-0.3,0.3-0.3c0.4-0.1,0.7-0.1,1.1-0.2c0.3-0.1,0.6-0.2,0.9-0.3c0.1,0,0.1-0.2,0.1-0.3c0-0.1,0-0.2,0-0.3
			c-0.2-0.7-0.2-1.5-0.3-2.2c-0.3-2,0-3.9,0.2-5.8C783.1,527.6,783.3,526.3,783.4,525z M457,434.5c1.4,1.1,2,2.2,3.5,3.1
			c2.6,1.4,5.3,2.8,7.5,4.8c1.1,1,1.3,2.5,1.6,3.8c0,0,0,0.1,0,0.1c-0.4,0.1-0.7,0.2-1.1,0.3c0,0.1-0.1,0.1-0.1,0.2
			c-0.2,0.2-0.5,0.4-0.7,0.6c-1.1,1.2-1.5,2.8-0.7,4.5c0.1,0.3,0.3,0.6,0.5,0.8c0.1,0.2,0,0.3-0.1,0.4c-0.1,0.1-0.3,0.2-0.4,0.3
			c-0.8,0.7-0.9,2.1,0.1,2.8c0.2,0.2,0.5,0.3,0.7,0.5c-0.3,0.4-0.5,0.7-0.8,1c-0.8,1-1.4,2.2-1.8,3.4c-0.5,1.4-0.8,2.9-0.9,4.4
			c-0.2,1.9-0.2,3.9,0,5.8c0.1,1.3,0.3,2.7,0.5,4c0.2,1.9,0.5,3.9,0.2,5.8c-0.1,0.7-0.1,1.5-0.3,2.2c0,0.1,0,0.2,0,0.3
			c0,0.1,0.1,0.2,0.1,0.3c0.3,0.1,0.6,0.2,0.9,0.3c0.4,0.1,0.7,0.1,1.1,0.2c0.1,0,0.1,0.1,0.2,0.1c0.1,0,0.1,0,0.2,0c0,0,0,0,0.1,0
			c0,0-0.1,0.1-0.1,0.1c0.2,0,0.3,0,0.5,0c0.1,0,0.1,0.1,0.2,0.1c0.1,0,0.1,0,0.2,0c0.1,1.1-0.6,1.7-1.3,2.2
			c-2.2,1.6-4.5,2.8-6.9,3.9c-1,0.5-1.9,1.2-2.9,1.8c-1.9,1.4-3.1,3.1-4.2,5.4c-0.6-2.8-2.1-4.9-4.3-6.4c-0.9-0.6-1.9-1.2-2.9-1.6
			c-2-0.9-3.9-2-5.7-3.1c-0.6-0.4-1.2-1-1.2-2c0,0,0,0,0.1,0c0,0,0-0.1,0-0.1c0-0.2,0-0.3,0.1-0.4c0,0,0-0.1-0.1-0.1
			c0.8-0.2,1.6-0.5,2.4-0.7c0.3-0.1,0.4-0.4,0.4-0.6c0-0.2-0.1-0.3-0.1-0.5c-0.5-1.5-0.7-3-0.7-4.6c0-1.2,0.1-2.5,0.2-3.7
			c0-0.6,0.1-1.2,0.1-1.8c0.1-1.2,0.1-2.5,0.2-3.7c0-0.5,0-1,0-1.5c-0.1-1.1-0.2-2.1-0.4-3.2c-0.4-2.7-1.5-5.2-3.3-7.2
			c-0.1-0.2-0.1-0.2,0.1-0.4c0.2-0.1,0.4-0.2,0.5-0.4c0.8-0.7,1.2-2,0-2.9c-0.2-0.2-0.5-0.3-0.7-0.4c-0.1,0-0.1-0.2-0.1-0.3
			c0.1-0.2,0.2-0.4,0.3-0.5c0.9-1.8,0.6-3.5-0.8-4.9c-0.1-0.1-0.2-0.2-0.3-0.2c-0.1,0-0.1-0.1-0.2-0.1c0,0,0,0,0.1,0
			c-0.1-0.3-0.1-0.7,0.1-1c0-0.2,0.1-0.4,0.2-0.5c0-0.2,0.1-0.4,0.2-0.6c0-0.1,0-0.2,0.1-0.2l0-0.1c0-0.1,0.1-0.2,0.2-0.2
			c0-0.1,0.1-0.2,0.1-0.3c0-0.3,0.2-0.6,0.4-0.7c0,0,0,0,0,0c0-0.1,0.1-0.2,0.1-0.2c0,0,0-0.1,0.1-0.1c0.1-0.1,0.2-0.2,0.3-0.3
			c0.1-0.1,0.1-0.1,0.2-0.2c0,0,0-0.1,0.1-0.1c0,0,0,0,0.1-0.1c0,0,0.1,0,0.1-0.1c0.1-0.1,0.2-0.1,0.2-0.2c0,0,0-0.1,0.1-0.1
			c0,0,0,0,0,0c0.1-0.1,0.2-0.1,0.3-0.2c0.1-0.1,0.3-0.3,0.5-0.4c0,0,0,0,0,0c0,0-0.1,0-0.1,0c0,0,0.1,0,0.1,0
			c0.1-0.1,0.2-0.1,0.2-0.1c0,0,0,0,0,0c0,0,0.1-0.1,0.1-0.1c0.1-0.1,0.2-0.2,0.4-0.3c0.5-0.4,1.1-0.9,1.6-1.3
			c0.9-0.6,1.9-1.1,2.9-1.4c2-0.7,4.5-1.8,6-3.3c0.9-0.9,1.8-1.7,2.9-2.7C455,432.7,456,433.6,457,434.5z M681.1,330.8
			c1.3-0.9,3-1.5,5-1.5c0.2,0,0.4,0,0.6,0c0,0,0.1,0,0.1,0h0.1c0,0,0.1,0,0.1,0c0.2,0,0.3,0,0.5,0c0.4,0,0.8,0,1.2,0
			c0.8,0,1.5,0.1,2.2,0.3c0.5,0.1,1,0.2,1.4,0.3c0.1,0,0.2,0.1,0.3,0.1c0.2,0,0.4,0.1,0.6,0.2c0,0,0.1,0,0.1,0
			c0.2,0.1,0.4,0.1,0.6,0.2c0.6,0.2,1.1,0.4,1.6,0.6c0.3,0.1,0.6,0.3,0.9,0.5c0.2,0.1,0.3,0.2,0.5,0.3c0,0,0,0,0,0v0
			c0.2,0.1,0.5,0.3,0.7,0.4c0,0,0,0,0,0c0.2,0.2,0.4,0.3,0.6,0.5c0,0,0,0,0,0c0.2,0.2,0.4,0.4,0.5,0.5c0,0,0,0,0,0
			c0.2,0.2,0.3,0.4,0.5,0.6c0,0,0,0,0,0c0.1,0.2,0.3,0.4,0.4,0.6c0,0,0,0,0,0c0.1,0.2,0.2,0.4,0.3,0.7c0,0,0,0,0,0.1
			c0.1,0.2,0.2,0.5,0.3,0.7c0,0,0,0,0,0.1c0.1,0.2,0.2,0.5,0.2,0.7c0,0,0,0,0,0c0.1,0.2,0.1,0.5,0.2,0.8c0,0,0,0,0,0
			c0,0.3,0.1,0.5,0.1,0.8c0,0,0,0,0,0c0.2,1.6-0.1,3.3-0.7,4.8v0c-0.1,0.5-0.3,1-0.7,1.5c-0.1,0.1-0.1,0.1-0.2,0.2
			c-0.2,0.3-0.4,0.5-0.6,0.8c0,0-0.1,0.1-0.1,0.1c-0.2,0.2-0.5,0.4-0.7,0.7c0,0,0,0,0,0c-0.1,0.1-0.1,0.1-0.2,0.2
			c-0.9,0.8-2,1.4-3.2,1.8c-0.4,0.1-0.9,0.3-1.4,0.3c-0.5,0.1-1,0.2-1.6,0.2c-0.6,0.1-1.2,0.2-1.9,0.2h0c0,0-0.1,0-0.1,0
			c-0.3,0-0.5,0-0.8,0c-0.3,0-0.6,0-1,0h-0.3c-0.1,0-0.1,0-0.2,0c-0.1,0-0.2,0-0.3,0H687c-0.8,0-1.6-0.1-2.3-0.3c0,0,0,0,0,0
			c-0.2,0-0.4-0.1-0.6-0.1c-0.1,0-0.1,0-0.2,0c-0.1,0-0.2-0.1-0.3-0.1c0,0-0.1,0-0.1,0c-1.2-0.2-2.3-0.5-3.2-1.1
			c-0.8-0.3-1.6-0.7-2.4-1.2c-2.5-1.5-5.1-2.8-7.5-4.3c-0.6-0.4-1.2-0.7-1.7-1.2c0,0,0,0,0,0c-0.1,0-0.2-0.1-0.3-0.2
			c0,0-0.1,0-0.1,0c-0.1,0-0.1-0.1-0.2-0.1c-0.1,0-0.1-0.1-0.1-0.2c-0.1,0-0.2-0.1-0.2-0.1c-0.4-0.1-0.4-0.8,0.1-0.8c0,0,0,0,0,0
			c0,0,0,0,0,0c0,0,0,0,0,0c0,0,0,0,0,0c0-0.1,0-0.2-0.1-0.3c2.6-1.8,5.3-3.3,7.8-5.1C677.3,332.7,679.2,331.8,681.1,330.8z
			 M653.1,329.2c6.8-0.5,13.6-0.9,20.5-1.4c-0.2,0.5-0.4,0.7-0.6,0.9c-1.2,0.9-2.4,1.8-3.7,2.6c-0.8,0.5-1.4,1.2-2.2,1.6
			c-0.3,0.4-0.7,0.6-1.2,0.6c0,0-0.1,0-0.1,0c0,0,0,0-0.1,0c0,0-0.1,0.1-0.1,0.1c-0.2,0.2-0.4,0.3-0.6,0.4c-0.1,0.1-0.3,0.2-0.4,0.2
			c-0.1,0.1-0.2,0.1-0.3,0.1c-0.2,0.1-0.4,0.1-0.7,0.1c0,0,0,0,0,0c0,0,0,0,0,0c-0.1,0.1-0.2,0.1-0.2,0.1c-0.2,0.2-0.4,0.3-0.7,0.4
			c-0.1,0-0.2,0.1-0.3,0.1c0,0-0.1,0.1-0.1,0.1c0,0,0,0,0,0c-0.1,0-0.1,0-0.2,0c0,0,0,0,0,0c0,0,0,0,0,0c0,0,0,0-0.1,0
			c-0.1,0.1-0.2,0.2-0.4,0.2c-0.2,0-0.3-0.1-0.4-0.3c0,0-0.1,0-0.1,0c0,0-0.1,0-0.1,0c-0.2,0-0.3-0.1-0.4-0.2
			c-1.2-0.7-2.4-1.5-3.4-2.4c-1.3-1.2-2.8-2.1-4.2-3.2C653,329.4,653,329.3,653.1,329.2z M626.1,317c0.2,0,0.4,0,0.5,0.1
			c0.3,0.1,0.5,0.2,0.8,0.4c0.9,0.4,1.4,0.7,1.8,1.3c0.4,0.7,0.3,1-0.3,1.4c-1.4,0.9-3,1.3-4.8,1.6
			C624.7,320.1,625.4,318.5,626.1,317z M620.3,338.9c0.1-0.2,0.2-0.4,0.3-0.5c0,0,0,0,0-0.1c0.1-0.1,0.2-0.2,0.2-0.3
			c0.1-0.2,0.2-0.3,0.3-0.5c0,0,0,0,0,0c0.1-0.2,0.2-0.4,0.3-0.6c0.1-0.2,0.2-0.4,0.4-0.6c0.1-0.2,0.2-0.4,0.4-0.5
			c0.2-0.4,0.5-0.8,0.9-1.1c0.1-0.1,0.2-0.2,0.3-0.3c0-0.1,0.1-0.1,0.1-0.2c0.2-0.2,0.4-0.4,0.6-0.5c0,0,0,0,0.1-0.1
			c0.1-0.2,0.3-0.3,0.5-0.4c0.2-0.2,0.4-0.4,0.7-0.6c0.1,0,0.1-0.1,0.2-0.1c0,0,0.1,0,0.1-0.1c0.2-0.1,0.4-0.2,0.6-0.3
			c0.1-0.1,0.2-0.1,0.3-0.2c0.1,0,0.1-0.1,0.2-0.1c0.1-0.1,0.3-0.2,0.5-0.2c0.1,0,0.2-0.1,0.3-0.1c0,0,0.1,0,0.1-0.1
			c0.3-0.2,0.5-0.3,0.8-0.3c0.2-0.1,0.3-0.1,0.5-0.2c2.3-0.6,4.5-1.3,7-1.3c1.5,0,3,0,4.5,0.4c0,0,0,0,0,0c0,0,0,0,0.1,0
			c0,0,0,0,0.1,0c0.1,0,0.2,0.1,0.3,0.1c0,0,0,0,0,0c0,0,0,0,0,0c0.2,0,0.3,0,0.5,0.1c0,0,0.1,0,0.1,0c0,0,0,0,0.1,0
			c0.1,0,0.1,0,0.2,0c0.1,0,0.2,0,0.3,0.1c0,0,0,0,0,0c0,0,0,0.1,0.1,0.1c0,0,0.1,0,0.1,0.1c0.1,0,0.1,0.1,0.1,0.1
			c0.1,0,0.2,0.1,0.3,0.2c0,0,0,0,0,0c0.1,0,0.1,0.1,0.2,0.1c0.3,0,0.5,0.1,0.7,0.3c0,0,0.1,0,0.1,0c0.1,0,0.2,0.1,0.3,0.1
			c0.1,0,0.2,0.1,0.3,0.2c0,0,0.1,0,0.1,0c0.1,0,0.1,0,0.2,0.1c0,0,0.1,0,0.1,0c0.1,0.1,0.3,0.1,0.4,0.2c1,0.4,2,1,2.9,1.6
			c1.5,0.9,3,1.9,4.7,2.5c1,0.4,1.9,1.2,2.8,1.8c0,0.2-0.1,0.4-0.1,0.5c-1.3,0.5-2.5,0.8-3.8,1.4c-1.7,0.7-3.4,0.9-5.2,1.2
			c-3.3,0.5-6.6,1.3-9.9,2.1c-1.9,0.4-3.7,0.8-5.6,1.1c-0.1,0-0.2,0.1-0.3,0.1l0,0c0,0-0.1,0-0.1,0c-0.2,0.1-0.5,0.1-0.7,0.1
			c-0.1,0-0.2,0-0.3,0.1c-0.1,0-0.2,0-0.3,0c0,0,0,0,0,0c0,0,0,0-0.1,0c0,0,0,0,0,0c0,0-0.1,0-0.1,0c-0.1,0-0.2,0-0.3,0h-0.1
			c0,0,0,0-0.1,0c-0.3,0.1-0.6,0.1-1,0.1c-0.2,0.1-0.5,0.1-0.8,0.1h-0.3c-0.1,0-0.1,0-0.2,0c-0.2,0-0.3,0.1-0.5,0.1h-0.3
			c-0.1,0-0.2,0-0.2,0c-0.1,0-0.1,0-0.2,0h-0.1c0,0,0,0,0,0c-0.1,0-0.2,0-0.3,0h-0.2c-0.2,0-0.4,0-0.5-0.1c-0.1,0-0.1,0-0.2,0h0
			c-0.3,0-0.5,0-0.7-0.1c-0.4,0-0.9,0-1.3-0.1c-0.2,0-0.3-0.1-0.5-0.1c0,0-0.1,0-0.1,0c0,0,0,0,0,0c0,0,0,0,0,0c-0.1,0-0.1,0-0.2,0
			c0,0-0.1,0-0.2,0c0,0,0,0-0.1,0c0,0,0,0-0.1,0c0,0,0,0-0.1,0c0,0,0,0-0.1,0h-0.1c-0.2,0-0.3-0.1-0.4-0.3c0,0,0,0,0,0
			c0,0-0.1,0-0.1,0c-0.1,0-0.2-0.1-0.3-0.2c-0.1-0.1-0.2-0.3-0.1-0.5c-0.1-0.2-0.1-0.3-0.1-0.5c0.1-0.8,0.1-1.6,0.3-2.4c0,0,0,0,0,0
			c0.1-0.1,0.1-0.2,0.2-0.3c0,0,0-0.1,0.1-0.1c0-0.3,0.2-0.6,0.3-0.8c0-0.1,0.1-0.2,0.1-0.3C620.3,339.1,620.3,339,620.3,338.9z
			 M610.3,378.3c-0.2,0.4-0.4,0.8-0.6,1.1c0,0-0.1,0-0.1,0c-0.1,0-0.3-0.1-0.4-0.1c-0.9-0.5-2-0.6-3-0.5c-0.2,0-0.4,0-0.6,0.1
			c-0.1,0.2-0.2,0.2-0.4,0.2c0,0.1-0.1,0.1-0.2,0.1c-0.3,0.4-0.6,0.8-0.9,1.2c-0.1,0.2-0.1,0.5-0.2,0.7c0,0.2-0.1,0.5,0,0.7
			c0.1,0.9,0.2,1.7,0.3,2.6c0,0.3,0,0.7-0.1,1c0,0.2-0.1,0.3-0.2,0.4c-0.6,0.3-1.1,0.5-1.5,0.6c-0.1,0-0.1,0-0.2,0c0,0-0.1,0-0.1,0
			v0c-0.3,0-0.6-0.1-0.9-0.3c-0.4-0.3-0.6-0.7-0.5-1.2c0-0.2,0.1-0.3,0.1-0.5c0.2-2.9,1.8-5.5,4.1-7.1c0.3-0.3,0.6-0.5,0.9-0.8
			c1.1-0.9,1.7-2,1.7-3.5c0-0.7,0-1.4,0-2.1c-0.1-1.2,0.2-2.3,1-3.3c0.1-0.1,0.1-0.2,0.1-0.3c0-0.1,0-0.2-0.1-0.3
			c0,0-0.1-0.1-0.1-0.1c-0.8-0.4-1.7-0.6-2.6-0.7c-0.6,0-1.2,0-1.7,0.3c-0.6,0.3-1.2,0.5-1.7,0.8c-1.3,0.7-2.1,1.8-2.3,3.3
			c-0.1,0.6-0.2,1.3-0.4,1.9c-0.2,0.9-1.1,1.1-1.9,0.6c-0.2-0.2-0.3-0.5-0.2-0.7c0.2-0.4,0.4-0.7,0.7-1.1c0.3-0.4,0.6-0.9,0.9-1.3
			c0.5-0.7,0.9-1.6,1.1-2.5c0.5-1.7-0.1-3.3-1.5-4.2c-0.7-0.5-1.5-1-2.2-1.6c-0.5-0.4-1-0.9-1.3-1.4c-0.1-0.2-0.3-0.2-0.4-0.1
			c0,0-0.1,0.1-0.1,0.1c0,0,0,0-0.1-0.1c-0.1-0.1-0.2-0.1-0.3,0c0,0.1,0.1,0.2,0.1,0.3c-0.4,0.5-0.8,0.9-1.3,1.3
			c-0.7,0.6-1.4,1.1-2.2,1.6c-1.4,1-2,2.6-1.5,4.2c0.2,0.9,0.6,1.7,1.1,2.5c0.3,0.4,0.6,0.9,0.9,1.3c0.2,0.4,0.4,0.7,0.7,1.1
			c0.1,0.2,0,0.6-0.2,0.7c-0.8,0.5-1.7,0.4-1.9-0.6c-0.2-0.6-0.3-1.3-0.4-1.9c-0.2-1.5-1-2.6-2.3-3.3c-0.6-0.3-1.2-0.5-1.7-0.8
			c-0.6-0.2-1.1-0.3-1.7-0.3c-0.9,0-1.8,0.3-2.6,0.7c0,0-0.1,0.1-0.1,0.1c0,0.1-0.1,0.2-0.1,0.3c0,0.1,0.1,0.2,0.1,0.3
			c0.8,1,1.1,2,1,3.3c0,0.7,0,1.4,0,2.1c0,1.4,0.6,2.6,1.7,3.5c0.3,0.2,0.7,0.5,0.9,0.8c2.3,1.5,3.9,4.1,4.1,7.1
			c0,0.2,0.1,0.3,0.1,0.5c0.1,0.5-0.1,0.9-0.5,1.2c-0.2,0.1-0.3,0.2-0.5,0.3c-0.1-0.1-0.2-0.1-0.2-0.2c0,0-0.1,0-0.1,0
			c-0.4,0-0.9-0.2-1.4-0.5c-0.1-0.2-0.2-0.3-0.3-0.5c-0.1-0.3-0.1-0.7-0.1-1c0.1-0.9,0.2-1.7,0.3-2.6c0-0.2,0-0.5,0-0.7
			c0-0.2-0.1-0.5-0.2-0.7c-0.4-0.3-0.7-0.7-0.9-1.2c-0.1,0-0.2,0-0.2-0.1c-0.2,0-0.3,0-0.4-0.2c-0.2,0-0.4,0-0.6-0.1
			c-1-0.1-2,0-3,0.5c-0.1,0.1-0.3,0.1-0.4,0.1c-0.1,0-0.2,0-0.3-0.1c-0.1-0.2-0.2-0.3-0.3-0.5c-0.1-0.1-0.1-0.3-0.2-0.5
			c0,0,0,0-0.1,0c0,0,0-0.1,0-0.1l0.1,0c-0.1-0.1-0.1-0.2-0.2-0.3c-0.2-0.4-0.3-0.8-0.5-1.2c-1.7-3.9-4.5-6.9-8.1-9.2
			c-1.8-1.1-3.6-2.1-5.6-2.9c-1.7-0.7-3.5-1.1-5.2-1.5c0.5-0.1,0.9-0.1,1.4-0.2c0.2,0,0.3-0.1,0.5-0.1c0.1-0.1,0.2-0.2,0.3-0.2
			c0.1,0,0.1,0,0.1,0c0,0,0.1,0,0.1,0h0c0-0.1,0.1-0.1,0.1-0.2c0-0.1,0.1-0.1,0.2-0.2c0.1-0.1,0.2-0.2,0.3-0.2c0,0,0.1,0,0.1,0
			c0.1-0.1,0.1-0.1,0.2-0.1c0.1-0.1,0.2-0.2,0.3-0.3c0.2-0.3,0.7-0.6,1-0.5c0,0,0,0,0.1,0c0.1,0,0.1,0,0.2,0c0,0,0,0,0.1,0
			c0,0,0,0,0.1,0h0.1c0,0,0,0,0,0c0.1,0,0.1-0.1,0.2-0.1l0.1-0.1c0.1-0.1,0.2-0.1,0.3-0.1c0,0,0,0,0,0c0.1,0,0.1,0,0.2,0l0,0
			c0,0,0.1-0.1,0.1-0.1c0-0.1,0.2-0.2,0.3-0.2c0.1-0.1,0.2-0.1,0.3-0.1h0c0.1-0.1,0.1-0.1,0.3-0.1l0,0c0,0,0.1-0.1,0.1-0.1
			c1-0.7,2-1.4,2.6-2.5c0.1-0.2,0.3-0.5,0.6-0.6c1.4-0.8,2-2,2.8-3.4c0.5-1,0.9-2.1,1.2-3.2c0.2-1,0.5-1.5,1.6-1.6
			c2.1-0.1,4.3-0.4,6.4-0.8c2.8-0.5,5.7-1,8.4-1.8c0.8-0.2,1.7-0.4,2.5-0.4c0,0,0,0,0,0c0,0,0,0,0.1,0c0,0,0,0,0,0c0,0,0,0,0,0
			c0.1,0,0.3,0,0.4,0.1c0,0,0,0,0,0c0.1,0,0.1,0,0.2,0c0.2,0,0.4-0.1,0.7-0.1c0,0,0.1,0,0.1,0c0,0,0.1,0,0.1,0h0.1
			c0.1,0,0.1,0,0.1,0c0,0,0.1,0,0.1,0c0.1,0,0.2,0,0.2,0.1c0.1,0,0.1-0.1,0.2-0.1c0,0,0,0,0.1,0c0,0,0,0,0,0c0.8,0,1.6,0.2,2.5,0.4
			c2.8,0.7,5.6,1.3,8.4,1.8c1.9,0.3,3.8,0.6,5.7,0.8c0,0,0.1,0,0.1,0c0.2,0,0.4,0,0.6,0.1c0,0,0,0,0.1,0c1.2,0.1,1.4,0.6,1.6,1.6
			c0,0.1,0,0.2,0.1,0.3c0,0,0,0,0,0c0,0,0,0,0.1,0.1l0,0c0,0,0,0,0,0c0.1,0.2,0.2,0.5,0.3,0.8c0.1,0.1,0.1,0.2,0.1,0.2c0,0,0,0,0,0
			c0.2,0.3,0.4,0.6,0.5,0.9c0,0,0.1,0.1,0.1,0.1c0,0,0,0,0,0c0.1,0.2,0.2,0.4,0.2,0.7c0,0,0,0,0,0c0.1,0.2,0.2,0.4,0.3,0.6
			c0,0.1,0.1,0.2,0.1,0.3c0,0.1,0.1,0.1,0.1,0.2c0,0,0,0,0,0l0.1,0.1c0.2,0.2,0.3,0.3,0.4,0.5c0,0,0.1,0.1,0.1,0.1
			c0.2,0.2,0.4,0.3,0.5,0.5c0,0,0,0.1,0.1,0.1c0.1,0.1,0.2,0.2,0.3,0.3c0.1,0.1,0.2,0.2,0.2,0.3c0,0,0,0,0,0l0,0c0,0,0,0.1,0.1,0.1
			c0.5,0.2,0.9,0.6,1.2,1c0.1,0.1,0.1,0.2,0.2,0.4c0.1,0.1,0.2,0.1,0.3,0.2c0,0,0,0,0,0c0.2,0.2,0.3,0.3,0.4,0.5
			c0.1,0,0.1,0.1,0.2,0.1c0.1,0.1,0.2,0.1,0.3,0.2c0.1,0.1,0.3,0.2,0.4,0.3c0.1,0.1,0.3,0.1,0.4,0.2c0,0,0,0,0,0
			c0.2,0.1,0.4,0.3,0.6,0.5c0.2,0.1,0.5,0.2,0.7,0.3c0.3,0.1,0.4,0.3,0.6,0.5c0.2,0.1,0.4,0.1,0.5,0.2c0,0,0,0,0,0c0,0,0,0,0,0
			c0.1,0,3.3,1.5,4.4,1.6c0.3,0,0.6,0.1,0.8,0.1c0,0,0,0-0.1,0c-0.1,0-0.2,0-0.3-0.1c-0.7,0.1-1.3,0.3-2,0.4
			c-1.8,0.4-3.6,1.1-5.3,1.9c-0.8,0.4-1.6,0.9-2.4,1.3c-2.7,1.4-4.9,3.4-6.8,5.8c-1.2,1.4-2,3.1-2.7,4.8
			C610.5,377.7,610.3,378,610.3,378.3L610.3,378.3z M614.6,341.3c0,0.2-0.1,0.4-0.1,0.7c0,0.2-0.1,0.5,0,0.7c0,0.6,0,1.3,0,2
			c-3.6-0.8-7-0.9-10.5-1.7c0.2-0.4,0.3-0.6,0.4-0.6c1.7-1,3.6-1.8,4.8-3.4c0.1-0.1,0.2-0.1,0.3-0.2c1.6-1.3,3.2-2.7,4.9-4
			c0.8-0.6,1.5-1.4,2.5-1.5c0.1-0.1,0.2-0.2,0.3-0.2c0.2,0,0.3,0.1,0.3,0.2c0.1,0,0.2,0,0.3,0.1c-0.1,0.1-0.2,0.3-0.3,0.4
			c0,0.1-0.1,0.1-0.1,0.2c-0.2,0.3-0.4,0.5-0.5,0.8c-0.2,0.3-0.4,0.6-0.5,0.9c-0.6,1-1,2.1-1.3,3.2c-0.4,0.4-0.6,1-0.6,1.6v0.1
			C614.4,340.8,614.5,341.1,614.6,341.3z M605.8,334.6c0,0.1-0.1,0.2-0.2,0.2c0,0.1-0.1,0.2-0.3,0.3c-1.4,1.4-3,2.4-4.8,3.1
			c-1.5,0.6-2.9,1.2-4.4,1.8c-0.3,0.1-0.5,0.2-0.8,0.3c-0.3-0.1-0.6-0.2-0.8-0.3c-1.5-0.6-3-1.2-4.4-1.8c-1.7-0.7-3.4-1.8-4.8-3.1
			c-0.1,0-0.2-0.2-0.2-0.3c-0.4-0.1-0.4-0.8,0.1-0.8c0,0,0,0,0,0c0.1-0.1,0.2-0.1,0.3-0.1h0.2c0,0,0.1,0,0.1,0c0,0,0.1,0,0.1,0h0
			c0.1,0,0.1-0.1,0.2-0.1c0.1,0,0.1,0,0.2,0c0,0,0.1,0,0.1,0c0,0,0.1,0,0.1,0h0.1c0,0,0.1,0,0.1,0c0,0,0.1,0,0.1,0c0,0,0.1,0,0.1,0
			c0,0,0.1,0,0.1,0h0.1c0,0,0.1,0,0.1,0c0,0,0.1,0,0.1,0h0.1c0,0,0,0,0.1,0c0.5-0.1,1-0.1,1.6-0.1c1.5,0.1,3.1,0.1,4.7,0.1
			c0,0,0,0,0,0c0.6,0,1.1,0,1.7,0c0.6,0,1.1,0,1.7,0c0,0,0,0,0,0c1.6,0,3.1,0,4.7-0.1c0.5,0,1,0,1.5,0c0.1,0,0.1-0.1,0.2-0.1
			c0.1,0,0.1,0,0.2,0.1c0,0,0.1,0,0.1,0c0.1,0,0.1,0,0.1,0c0.1,0,0.1-0.1,0.2-0.1c0.1,0,0.2,0,0.2,0.1c0,0,0.1,0,0.2,0h0.1
			c0,0,0,0,0.1,0c0,0,0,0,0.1,0c0.1,0,0.1,0,0.2,0l0,0h0c0.1,0,0.1,0,0.2,0c0,0,0,0,0.1,0h0c0,0,0,0,0,0c0,0,0,0,0,0
			c0.1,0,0.1,0,0.2,0h0c0.1,0,0.2,0,0.2,0.1c0,0,0,0,0,0C606,333.9,606.1,334.4,605.8,334.6z M586.4,342.4c0.1,0,0.1,0.2,0.4,0.6
			c-3.5,0.8-6.9,0.9-10.5,1.7c0.1-0.9,0-1.8,0-2.7c0.1-0.6,0-1.2-0.2-1.7c0-0.2-0.1-0.4-0.1-0.5c0-0.1,0-0.2-0.1-0.3
			c-0.1-0.6-0.3-1.2-0.5-1.7c-0.1-0.2-0.2-0.4-0.3-0.7c-0.5-1.3-1.2-2.6-2.1-3.7c1.7-0.5,2.5,0.7,3.5,1.4c1.7,1.3,3.3,2.6,4.9,4
			c0.1,0.1,0.2,0.1,0.3,0.2C582.8,340.6,584.7,341.3,586.4,342.4z M619.7,314.8l0.5,0.4c0,0,0,0,0,0.1c0,0.1,0,0.3,0,0.4
			c0,0.1,0,0.1,0,0.2c-0.2-0.1-0.4-0.2-0.5-0.4C619.5,315.3,619.6,315,619.7,314.8z M575.4,315.4c0.3,0,0.6,0,0.9-0.1
			c0.7,0,1.4-0.1,2.1-0.2c2.5-0.7,5-0.7,7.1-0.6c1,0,2,0,3,0c0.9,0,1.9,0,2.8,0c0.3,0,0.6,0,0.9,0.1l0.1,0l0.1,0l0.2,0
			c0,0,0.2,0,0.2,0l0.2,0l0.1,0c0,0,0,0,0.1,0c0,0,0,0,0,0l0.1,0l0.5,0l1.1,0h0.4l0.3,0l0.1,0c0.1,0,0.3,0,0.5,0c0.1,0,0.2,0,0.2,0
			l0.1,0c0.4,0,1.6-0.1,2.2-0.2c0.9,0,1.9,0,2.8,0c1,0,2,0.1,3,0c1.7,0,3.2,0,4.5,0.2l0.2,0l0.1,0c0.2,0,0.8,0,1.1,0.1
			c0.2,0,0.3,0,0.3,0c0.1,0,0.4,0,0.5,0c0.1,0,0.2,0,0.4,0c0.2,0,0.3,0,0.4,0c0,0,0.2,0,0.7,0.2l0.2,0c0,0,0,0,0.1,0l0.1,0
			c0.2,0,0.5,0,0.8,0.1c0.8,0.1,1.1,0.1,1.2,0.1c0,0,0.1,0,0.2,0c0.1,0,0.2,0,0.4,0c0.1,0,0.5,0.1,0.7,0.1l0.1,0.1l0.2,0
			c0.1,0,0.1,0,0.2,0c0.2,0,0.3,0,0.3,0l0.1,0c0.2,0,2.1,0.2,2.3,0.2h0c0.1,0,0.3,0.1,0.4,0.1c0.1,0,0.2,0,0.2,0.1l0.2,0.1
			c-0.2,1-0.7,1.9-1.3,2.8c-0.7,1.1-1.4,2.2-2.2,3.5c-0.1,0-0.2,0-0.3,0c0,0-0.1,0-0.1,0c-0.2,0-0.3,0-0.6,0.1
			c-0.1,0-0.3,0.1-0.4,0.1h-0.5c-0.1,0-0.3,0-0.7,0.1c-0.3,0-0.6,0.1-0.7,0.1h-1.3l-0.1,0l-0.1,0c-0.1,0-0.2,0-0.3,0.1
			c0,0,0,0-0.1,0c0,0-0.2,0-0.3,0c-0.1,0-0.3,0-0.3,0c-0.2,0-0.3,0-0.4,0.1l-0.6,0l-0.1,0c-0.1,0-0.3-0.1-0.5,0l0,0l0,0l-0.1,0
			c-1.5,0.1-3.1,0.1-4.6,0.2c-0.8,0-1.5,0-2.3,0c-1.9,0-3.9,0.1-5.9,0.2c-0.5,0-0.9,0.1-1.4,0.1c-0.5,0-0.9-0.1-1.4-0.1
			c-2-0.1-4-0.1-5.9-0.2c-0.8,0-1.6,0-2.4,0c-1.7,0-3.4,0-5-0.2c-0.3,0-0.5-0.1-0.8-0.1c-0.8-0.1-1.6-0.2-2.3-0.3l-0.2,0
			c-0.1,0-0.2,0-1.1-0.1l-1.3,0c0,0-0.5,0-0.9,0c-0.7-1.2-1.4-2.3-2.1-3.4c-0.6-0.9-1.1-1.8-1.3-2.8
			C572.2,315.7,573.9,315.6,575.4,315.4z M561.4,318.7c0.3-0.6,0.9-0.9,1.8-1.3c0.3-0.1,0.5-0.2,0.8-0.4c0.1,0,0.4-0.1,0.6-0.1
			c0.7,1.6,1.4,3.1,2.1,4.8c-1.9-0.4-3.5-0.8-4.9-1.7C561.1,319.7,561,319.4,561.4,318.7z M542.6,333.6c1.3-0.8,2.5-1.7,4-2
			c0.1-0.1,0.2-0.2,0.3-0.2c0,0,0.1,0,0.1,0c0,0,0.1,0,0.1,0c0,0,0,0,0,0c0,0,0,0-0.1,0c0,0,0.1,0,0.1,0c0,0,0,0,0,0
			c0,0,0,0,0.1-0.1c0.1-0.1,0.3-0.1,0.4-0.1l0,0c0,0,0,0,0.1,0c0,0,0.1,0,0.1,0c0.1-0.1,0.2-0.1,0.3-0.1c0,0,0,0,0.1-0.1
			c0.1,0,0.1-0.1,0.2-0.1c0,0,0,0,0.1,0c0,0,0,0,0.1-0.1l0.1,0c0.1,0,0.1,0,0.1,0c1.9-1,3.9-1.1,6.1-1.1c2,0,3.9,0.5,5.7,1
			c0.5,0.1,1,0.2,1.5,0.4c0.2,0.1,0.4,0.2,0.7,0.3c0.5,0.2,1,0.4,1.4,0.6c0.2,0.1,0.4,0.2,0.6,0.3c1.5,0.4,2.6,1.3,3.3,2.6
			c0.4,0.4,0.7,0.9,0.9,1.3c0.1,0.1,0.1,0.1,0.1,0.2c0.1,0.1,0.1,0.2,0.1,0.3c0,0,0,0,0,0c0,0,0.1,0.1,0.1,0.1
			c0.1,0.1,0.1,0.1,0.1,0.2c0.1,0.1,0.1,0.1,0.1,0.2c0.1,0,0.1,0.1,0.1,0.2c0.1,0.1,0.2,0.2,0.2,0.4c0.1,0.1,0.2,0.2,0.2,0.4v0.1
			c0,0,0,0,0,0c0,0.1,0.1,0.1,0.1,0.2c0.1,0.2,0.2,0.4,0.3,0.6c0.1,0.3,0.2,0.5,0.3,0.7c0.4,1.1,0.4,2.2,0.5,3.4
			c0.1,0.9-1,1.4-2.4,1.5c-1.3,0.1-2.6,0-3.9-0.1c-0.4,0.1-0.8,0.1-1.2,0.1c-0.6,0-1.1-0.1-1.6-0.2c-0.2,0-0.5-0.1-0.7-0.1
			c-2.5-0.1-5-0.7-7.4-1.3c-3.3-0.7-6.6-1.5-9.9-2.1c-1.8-0.3-3.5-0.5-5.2-1.2c-1.2-0.5-2.5-0.9-3.8-1.4l0-0.2c0,0,0,0,0,0
			c0-0.1,0-0.2-0.1-0.3c0.9-0.6,1.8-1.4,2.8-1.8C539.7,335.6,541.1,334.6,542.6,333.6z M537.6,329.2c0,0.1,0.1,0.2,0.1,0.3
			c-1.4,1.1-2.9,2-4.2,3.2c-1.1,0.9-2.3,1.7-3.5,2.4c-0.2,0.2-0.5,0.2-0.7,0.3c-0.1,0.1-0.2,0.1-0.3,0.1H529c-0.1,0-0.2,0-0.2-0.1
			h-0.1c-0.1,0-0.2-0.1-0.3-0.1c0,0-0.1,0-0.1,0c-0.1,0-0.1,0.1-0.2,0c-0.2,0-0.2-0.1-0.4-0.2c0,0,0,0,0,0c-0.1,0-0.2,0-0.2-0.1
			c-0.1,0-0.2-0.1-0.3-0.2c-0.1,0-0.2,0-0.3-0.1l0,0l0,0c0,0-0.1-0.1-0.1-0.1c-0.1,0-0.2,0-0.3-0.1l-0.1-0.1c0,0,0-0.1-0.1-0.1
			c-0.1,0-0.1-0.1-0.2-0.1c0,0,0,0,0,0c0,0,0,0,0,0c-0.1,0-0.2,0-0.3-0.1c-0.1,0-0.1-0.1-0.2-0.2c-0.1,0-0.2-0.1-0.2-0.1
			c0,0-0.1,0-0.1-0.1c-0.1,0-0.2-0.1-0.2-0.2c-0.1,0-0.3,0-0.4-0.1c-0.1,0-0.1-0.1-0.1-0.2c0,0,0,0,0,0c-0.2,0-0.3-0.1-0.3-0.2
			c-1.1-0.3-1.8-1.2-2.7-1.8c-1.3-0.8-2.4-1.8-3.7-2.6c-0.2-0.2-0.5-0.4-0.6-0.9C523.9,328.3,530.7,328.8,537.6,329.2z M491.9,346.1
			c-0.8-0.8-1.3-1.7-1.7-2.7c-0.5-1-0.8-2.2-0.8-3.4v0c0-1.6,0.4-3,1.2-4.4c0-0.1,0.1-0.1,0.1-0.2c0,0,0,0,0-0.1l0.1-0.2
			c0.9-1.9,2.5-3.4,4.8-4c0.3-0.2,0.6-0.3,0.9-0.5c0,0,0,0,0,0c0.5-0.3,1.1-0.5,1.7-0.6c0.2-0.1,0.4-0.1,0.6-0.1
			c0.1,0,0.2-0.1,0.3-0.1c0.1,0,0.1,0,0.2-0.1c0.7-0.3,1.4-0.4,2.1-0.4c0.1,0,0.1,0,0.2,0c0.3,0,0.5-0.1,0.8-0.1
			c0.3,0,0.7-0.1,1.1,0h0.1c0,0,0,0,0.1,0c0,0,0.1,0,0.1,0c0.1,0,0.2,0,0.3,0c0.2,0,0.4,0,0.6,0.1c2.1,0,3.8,0.7,5.1,1.7
			c1.8,0.9,3.6,1.9,5.3,3.1c2.5,1.9,5.3,3.3,7.8,5.1c0,0,0,0,0,0.1c0,0,0,0,0.1,0c0,0,0,0,0.1,0c0,0.1,0.1,0.1,0.1,0.2c0,0,0,0,0,0
			c0,0,0,0,0,0.1c0.2,0.2,0.1,0.5-0.1,0.7c0,0.1-0.1,0.3-0.3,0.3c0,0.1-0.1,0.1-0.1,0.1c0,0,0,0,0,0c-0.1,0-0.1,0.1-0.2,0.1h0
			c-0.1,0.1-0.2,0.2-0.3,0.2c-0.5,0.5-1.1,0.8-1.6,1.2c-2.5,1.5-5.1,2.8-7.5,4.3c-0.3,0.2-0.6,0.4-0.9,0.5c-0.6,0.5-1.4,0.9-2.2,1.2
			l0,0l0,0c0,0,0,0,0,0c0,0,0,0-0.1,0c-0.8,0.4-1.5,0.6-2.4,0.7c-0.1,0-0.1,0-0.2,0.1c0,0,0,0,0.1,0c0,0,0,0,0,0
			c-0.2,0.1-0.4,0.1-0.6,0.1c-0.1,0.1-0.3,0.1-0.4,0.1H506c-0.1,0-0.2,0-0.2,0c-0.2,0.1-0.4,0.2-0.6,0.2h-0.3c-0.1,0-0.2,0-0.3,0
			c-0.1,0-0.2,0.1-0.4,0.1H504c-0.1,0-0.2,0-0.3,0c-0.1,0-0.2,0-0.3,0h-0.2c-0.1,0-0.1,0-0.2,0c-0.1,0-0.1,0-0.2,0h-0.2
			c-0.1,0-0.2,0-0.3-0.1c0,0-0.1,0-0.1,0H502c-0.1,0-0.3,0-0.4-0.1c0,0,0,0,0,0h-0.2c-0.1,0-0.2,0-0.2,0c0,0-0.1,0-0.1,0l0.2,0
			c-0.2,0.1-0.5,0.1-0.7,0l0,0h0c-0.2,0-0.3,0-0.5-0.1c-0.1,0-0.2,0-0.3,0c-0.2,0-0.4,0-0.6,0c0,0,0,0,0,0c-0.4,0-0.9-0.1-1.3-0.2
			C495.1,348.7,493.2,347.6,491.9,346.1z M535.9,357.3c-0.7-0.1-1.4-0.1-2.1-0.1c-2.9-0.2-5.8-0.5-8.7-0.8c-0.5,0-1.1-0.2-1.6-0.3
			c-3.2-0.3-6.4-0.7-9.7-0.9c-1.3-0.1-2.7-0.1-4-0.2c0,0,0,0,0,0c0,0,0,0,0,0c-0.1,0-0.1,0-0.2,0c0,0,0,0-0.1,0c0,0-0.1,0-0.1,0
			c-0.1,0-0.2,0-0.3,0c-0.3,0-0.5-0.1-0.8-0.2c0-0.1,0-0.2,0-0.3c0.3-0.1,0.5-0.1,0.8-0.2c0.1-0.1,0.2-0.2,0.3-0.2c0,0,0,0,0,0
			c0.1-0.1,0.1-0.2,0.3-0.2c0.1-0.1,0.2-0.1,0.3-0.1c0.1-0.1,0.1-0.2,0.3-0.2c0,0,0.1,0,0.1,0c0-0.1,0.1-0.1,0.2-0.1
			c0,0,0.1-0.1,0.1-0.1l0.1,0c0,0,0.1,0,0.1,0c0.4-0.4,1-0.5,1.6-0.7c0.3-0.1,0.5-0.1,0.8-0.2c0.1-0.1,0.1-0.1,0.2-0.1
			c0,0,0,0,0.1,0c2.7-1.8,5.8-2.8,8.5-4.8c1.8-1.4,4.1-2.2,6.1-3.4c0.7-0.4,1.2-1,2.1-1.7c0.6,0.2,1.6,0.5,2.5,0.9
			c1.8,0.8,3.6,1.5,5.6,1.6c0.4,0,0.8,0.2,1.3,0.3c0.4,0.1,0.8,0.3,1.2,0.5c0,0,0.1,0,0.1,0c0.3,0.2,0.6,0.3,1,0.4
			c0.1,0,0.1,0,0.2,0.1c0.1,0,0.2,0.1,0.3,0.1c0,0,0.1,0,0.1,0c0.2,0,0.3,0.1,0.3,0.2c0.1,0,0.2,0.1,0.3,0.1c0,0,0,0,0,0
			c0.3,0.1,0.6,0.1,1,0.2c2.1,0,4,1.2,6.2,0.9c0.2,0,0.5,0.1,0.7,0.2c0.1,0,0.1,0,0.2,0l0.1,0c0.1,0,0.1,0.1,0.1,0.1
			c0.1,0,0.2-0.1,0.3-0.1c0.2,0,0.3,0.1,0.4,0.2c1,0.1,1.9,0.1,2.8,0.5c0.4,0,0.8-0.1,1.2-0.1c0.5,0,1,0.1,1.4,0.2
			c1.6,0,3.1,0.3,4.6,0.7c1.1,0.3,2.2,0.2,3.3,0.3c1.2,0.1,2.3,0.3,3.6,0.4c-0.2,0.4-0.3,0.6-0.4,0.8c-1.7,2.4-3.6,4.5-6.4,5.4
			c-1.8,0.6-3.6,1-5.2,1.9c-0.2,0.1-0.5,0.1-0.8,0.1c-1.4,0-2.9-0.1-4.3,0.2c-1.3,0.3-2.6,0.2-3.9,0.1
			C543.9,358.6,539.9,357.8,535.9,357.3z M652.8,465.2c0,10.7-2.6,21.2-7.4,30.4c-0.2,0.6-0.5,1.3-0.9,1.9c0,0.1-0.1,0.3-0.1,0.5
			c-0.5,1.9-1.5,3.4-2.5,4.9l-0.3,0.4c-0.4,0.6-0.7,1.3-1,2.1c-0.2,0.5-0.4,1-0.7,1.5c-1.4,2.8-2.8,5.4-4.1,7.9
			c-0.3,0.6-0.5,1.2-0.4,1.9c0.1,0.5,0,1.1,0,1.6c0,0.2,0,0.3,0,0.5c0,0.3-0.1,0.6-0.1,0.9c-0.1,0.5-0.1,1.1-0.1,1.6
			c0,3.9-0.4,7.2-1.1,10.3c-0.2,0.7-0.3,1.4-0.4,2.1c-0.1,0.8-0.2,1.6-0.5,2.3c-0.5,1.6-1.1,3.3-1.6,4.8l-0.1,0.3
			c-0.4,1.1-0.9,2.2-1.3,3.2c-0.2,0.4-0.4,0.9-0.5,1.3c-1.4,3.4-3.3,6.5-5.7,9c-0.9,0.9-1.9,1.7-2.8,2.5c-0.7,0.5-1.3,1.1-2,1.7
			c-2.2,2-4.6,3.5-7.1,4.9c-0.9,0.5-1.7,1-2.5,1.5l-0.4,0.3c-1.5,1-3,1.9-4.3,3.1c-0.5,0.5-1.1,0.8-1.6,1.1c-1.4,0.8-2.7,2-3.7,3.4
			c-0.4,0.5-0.8,1-1.2,1.5c-0.3,0.3-0.6,0.7-0.9,1.1c-0.1,0.1-0.1,0.2-0.2,0.2c-0.1,0.1-0.2,0.2-0.3,0.3c-0.1,0.1-0.3,0.2-0.4,0.2
			c-0.1,0-0.2,0.1-0.3,0.1c-0.1,0-0.2,0.1-0.3,0.1c-0.1,0-0.1,0-0.2,0.1l-0.1,0c-0.1,0-0.2,0-0.3,0c-0.7,0-1.3-0.3-1.9-0.7
			c-0.1-0.1-0.2-0.2-0.3-0.3c-0.3-0.4-0.6-0.7-0.9-1.1c-0.4-0.5-0.8-1-1.2-1.5c-1.1-1.5-2.3-2.6-3.7-3.4c-0.6-0.4-1.2-0.7-1.7-1.2
			c-1.3-1.2-2.8-2.1-4.3-3.1l-0.4-0.3c-0.8-0.5-1.7-1-2.5-1.5c-2.4-1.4-4.9-2.9-7.1-4.9c-0.6-0.6-1.3-1.1-2-1.7
			c-1-0.8-1.9-1.6-2.8-2.5c-2.4-2.6-4.3-5.6-5.7-9c-0.2-0.4-0.4-0.9-0.5-1.3c-0.4-1.1-0.9-2.1-1.3-3.2l-0.1-0.3
			c-0.6-1.6-1.2-3.2-1.6-4.8c-0.2-0.8-0.3-1.6-0.5-2.3c-0.1-0.7-0.2-1.4-0.4-2.1c-0.8-3.1-1.1-6.4-1.1-10.3c0-0.5-0.1-1.1-0.1-1.6
			c0-0.3-0.1-0.6-0.1-0.9c0-0.2,0-0.3,0-0.5c0-0.5-0.1-1.1,0-1.6c0.1-0.7-0.1-1.3-0.4-1.9c-1.3-2.5-2.7-5.1-4.1-7.9
			c-0.3-0.5-0.5-1-0.7-1.5l-0.2-0.5c-0.6-0.8-1-1.7-1.4-2.6c-0.8-1.2-1.6-2.6-2.1-4.3c-0.1-0.4-0.2-0.7-0.3-1
			c-0.3-0.6-0.6-1.2-0.9-1.9c-4.7-9.1-7.2-19.5-7.2-30c0-17.5,6.9-34.3,19-46l0.1-0.1c0.1-0.1,0.1-0.1,0.2-0.2l0.5-0.4
			c0.5-0.5,1-0.9,1.5-1.3c2.3-2.3,4.9-4.3,7.6-5.7c0.3-0.2,3.5-1.9,3.9-2.1c0.9-0.5,1.8-0.9,2.7-1.3l0,0c1.7-0.7,3.1-1,4.5-1
			c1.5,0,2.8,0.2,4.4,0.6l0,0c0.6,0.2,1.7,0.4,2.1,0.4l0,0l0.2,0c2.6,0.6,5.3,0.9,7.9,1.1c0.7,0,1.3,0.1,2,0.1l0.4,0l0,0
			c4.7,0.1,9.4-0.5,13.9-1.6l0,0c1.6-0.4,3-0.6,4.4-0.6c1.4,0,2.8,0.3,4.5,1c1,0.3,2.8,1.1,3.7,1.5c0.2,0.1,0.3,0.2,0.5,0.3
			c0.1,0.1,0.2,0.1,0.3,0.2c0.1,0.1,0.2,0.1,0.3,0.2c0.3,0.2,0.5,0.3,0.8,0.6c0.2,0.1,0.5,0.3,0.7,0.5l0.3,0.2
			c2.7,1.4,5.3,3.4,7.6,5.7c0.5,0.4,1,0.9,1.5,1.3l0.4,0.4c0.1,0.1,0.1,0.2,0.2,0.2l0.1,0.1C645.9,431,652.8,447.7,652.8,465.2z
			 M667.1,356.1c-0.5,0.1-1.1,0.2-1.6,0.3c-2.9,0.3-5.8,0.5-8.7,0.8c-0.7,0.1-1.4,0-2.1,0.1c-4,0.5-8,1.3-12.1,1.6
			c-1.2,0.1-2.4,0.2-3.6-0.1c-0.3,0.2-0.7,0.2-1.1,0.1c0,0,0,0,0,0c-0.1,0-0.2,0-0.3,0c-0.2,0.1-0.4,0.2-0.7,0.2H637
			c-0.2,0-0.3,0-0.5-0.1c0,0,0,0,0,0c-0.2,0-0.3,0-0.5-0.1h0c-0.3,0-0.5-0.1-0.7-0.2c-0.1,0-0.1,0-0.2,0c-0.1,0-0.3,0-0.4-0.1
			c-0.1,0-0.2,0-0.3,0c-0.3,0-0.6,0-0.8-0.1c-0.1-0.1-0.3-0.1-0.4-0.2c-0.1,0-0.2-0.1-0.3-0.1c-0.1,0-0.2,0-0.3-0.1
			c-0.1,0-0.2-0.1-0.4-0.1c-0.2-0.1-0.4-0.1-0.5-0.2c-0.2,0-0.4-0.1-0.6-0.2c-0.2,0-0.3,0-0.5-0.1c-0.3,0-0.6-0.1-0.9-0.3
			c-0.3,0-0.6-0.2-0.9-0.4c0,0,0,0,0,0c0,0,0,0-0.1,0c-0.6,0-1-0.2-1.3-0.6c-2.3-1-4-3-5.5-5c-0.1-0.2-0.2-0.4-0.4-0.8
			c1.3-0.2,2.5-0.3,3.6-0.4c0.3,0,0.6,0,0.9-0.1c0.1,0,0.3,0,0.4,0c0.2-0.1,0.4-0.1,0.7-0.1h0.1c0,0,0.1,0,0.1,0c0,0,0.1,0,0.1,0
			c0,0,0.1,0,0.1,0c0.2-0.1,0.4-0.1,0.7-0.1c0,0,0.1,0,0.1,0c0,0,0.1,0,0.1,0c0,0,0.1,0,0.1,0c0.5-0.1,1-0.2,1.4-0.3
			c0.2,0,0.3-0.1,0.5-0.1c0,0,0.1,0,0.1-0.1c0.3-0.1,0.6-0.1,0.9-0.1c0.1,0,0.1,0,0.2,0c0.5-0.1,1-0.1,1.5-0.1c0.2,0,0.3,0,0.5-0.1
			c0.1,0,0.1,0,0.2,0c0.1,0,0.3,0,0.4,0h0.1c0.1,0,0.1-0.1,0.2-0.1c0.3-0.1,0.6-0.1,0.8-0.1c0,0,0,0,0.1,0c0.1,0,0.2,0,0.4,0h0.3
			c0,0,0,0,0,0c0.7-0.2,1.4-0.2,2-0.3l0,0c0.3-0.1,0.5-0.2,0.8-0.3c0.2-0.1,0.4-0.1,0.6-0.1c0.2-0.1,0.4-0.2,0.6-0.2
			c0.1,0,0.2,0,0.3,0c0.2,0,0.4-0.1,0.6-0.1c0.1,0,0.3,0,0.4,0c0,0,0.1,0,0.1,0c0.3-0.1,0.6-0.2,0.9-0.2c0.1,0,0.1,0,0.2,0
			c1-0.2,1.9-0.5,2.9-0.6c0.1,0,0.3,0,0.4-0.1c0.2-0.1,0.4-0.1,0.7-0.1c0.4-0.3,0.8-0.4,1.3-0.5c0.1,0,0.3-0.1,0.4-0.1
			c0.3-0.2,0.6-0.3,1-0.3c0.5-0.2,1-0.5,1.5-0.6c0.4-0.1,0.8-0.3,1.3-0.3c2-0.2,3.8-0.9,5.6-1.6c0.9-0.4,1.9-0.7,2.5-0.9
			c0.2,0.1,0.3,0.3,0.4,0.4c0,0,0,0,0.1,0l0,0c0.1,0,0.2,0.1,0.3,0.1c0.1,0,0.1,0.1,0.1,0.2l0,0c0,0,0.1,0.1,0.1,0.1
			c0.1,0,0.1,0,0.1,0.1c0.1,0,0.2,0,0.2,0.1l0.1,0.1c0.1,0.1,0.1,0.1,0.1,0.2c0.2,0,0.3,0.1,0.3,0.2c0,0,0,0,0,0l0.1,0.1
			c0,0,0,0,0,0c0,0,0,0,0,0c0.1,0.1,0.2,0.1,0.3,0.2c0.1,0,0.2,0.1,0.3,0.2c1.9,1,3.9,1.9,5.6,3.1c2.6,2,5.8,3,8.5,4.8
			c0.3,0.2,3.6,1.8,3.9,1.9c0.4,0.1,0.9,0.2,1.3,0.3c0,0.1,0,0.2,0,0.3c-0.3,0.1-0.5,0.2-0.8,0.2c-1.6,0.1-3.2,0.1-4.8,0.2
			C673.6,355.4,670.3,355.7,667.1,356.1z M753.2,446.9c-0.1,0.1-0.2,0.1-0.3,0.2c-1.4,1.4-1.7,3.1-0.8,4.9c0.1,0.2,0.3,0.3,0.3,0.5
			c0,0.1,0,0.2-0.1,0.3c-0.2,0.2-0.5,0.3-0.7,0.4c-1.2,1-0.8,2.3,0,2.9c0.2,0.1,0.4,0.2,0.5,0.4c0.2,0.1,0.2,0.2,0.1,0.4
			c-1.9,2.1-2.9,4.5-3.3,7.2c-0.2,1.1-0.3,2.1-0.4,3.2c0,0.5,0,1,0,1.5c0,1.2,0.1,2.5,0.2,3.7c0,0.6,0.1,1.2,0.1,1.8
			c0.1,1.2,0.2,2.5,0.2,3.7c0.1,1.6-0.1,3.1-0.7,4.6c-0.1,0.2-0.1,0.3-0.1,0.5c-0.1,0.3,0.1,0.5,0.4,0.6c0.8,0.2,1.6,0.5,2.4,0.7
			c0,0,0,0.1-0.1,0.1c0,0.1,0.1,0.3,0.1,0.4c0,0,0,0.1,0,0.1c0,0,0.1,0,0.1,0c0,1.1-0.6,1.7-1.2,2c-1.9,1.1-3.7,2.3-5.7,3.1
			c-1.1,0.5-2,1-2.9,1.6c-2.2,1.5-3.7,3.5-4.3,6.4c-1.1-2.3-2.3-4-4.2-5.4c-0.9-0.7-1.8-1.3-2.9-1.8c-2.4-1.1-4.8-2.3-6.9-3.9
			c-0.7-0.5-1.4-1.1-1.3-2.2c0.1,0,0.1,0,0.2,0c0-0.1,0.1-0.1,0.2-0.1c0.2,0,0.3,0,0.5,0c0,0-0.1-0.1-0.1-0.1c0,0,0,0,0.1,0
			c0.1,0,0.1,0,0.2,0c0-0.1,0.1-0.1,0.2-0.1c0.4-0.1,0.7-0.1,1.1-0.2c0.3-0.1,0.6-0.2,0.9-0.3c0.1,0,0.1-0.2,0.1-0.3
			c0-0.1,0-0.2,0-0.3c-0.2-0.7-0.2-1.5-0.3-2.2c-0.3-2,0-3.9,0.2-5.8c0.2-1.3,0.3-2.7,0.5-4c0.2-1.9,0.2-3.9,0-5.8
			c-0.1-1.5-0.5-3-0.9-4.4c-0.4-1.2-1-2.4-1.8-3.4c-0.3-0.3-0.5-0.7-0.8-1c0.3-0.2,0.5-0.3,0.7-0.5c1-0.7,0.9-2.1,0.1-2.8
			c-0.1-0.1-0.3-0.2-0.4-0.3c-0.1-0.1-0.2-0.3-0.1-0.4c0.2-0.3,0.4-0.5,0.5-0.8c0.8-1.7,0.4-3.3-0.7-4.5c-0.2-0.2-0.5-0.4-0.7-0.6
			c0,0-0.1-0.1-0.1-0.2c-0.4-0.1-0.8-0.2-1.1-0.3c0,0,0-0.1,0-0.1c0.3-1.4,0.5-2.8,1.6-3.8c2.2-2.1,4.9-3.4,7.5-4.8
			c1.6-0.8,2.1-2,3.5-3.1c1.1-0.8,2-1.7,3.1-2.6c1.1,1,2,1.8,2.9,2.7c1.5,1.5,4,2.6,6,3.3c1,0.3,2,0.8,2.9,1.4
			c0.6,0.4,1.1,0.8,1.6,1.3c0.2,0.1,0.3,0.2,0.4,0.3c0,0,0.1,0.1,0.1,0.1c0,0,0,0,0,0c0.1,0,0.2,0.1,0.2,0.1c0,0,0.1,0,0.1,0
			c0,0-0.1,0-0.1,0c0,0,0,0,0,0c0.2,0.1,0.4,0.2,0.5,0.4c0.1,0.1,0.2,0.1,0.3,0.2c0,0,0,0,0,0c0,0,0,0.1,0.1,0.1
			c0.1,0.1,0.2,0.1,0.2,0.2c0,0,0.1,0,0.1,0.1c0,0,0,0,0.1,0.1c0,0,0.1,0.1,0.1,0.1c0.1,0.1,0.1,0.1,0.2,0.2
			c0.1,0.1,0.2,0.2,0.3,0.3c0,0,0,0.1,0.1,0.1c0,0.1,0.1,0.1,0.1,0.2c0,0,0,0,0,0c0.2,0.2,0.3,0.5,0.4,0.7c0,0.1,0.1,0.2,0.1,0.3
			c0.1,0.1,0.1,0.1,0.2,0.2l0,0.1c0,0.1,0,0.2,0.1,0.2c0.1,0.2,0.2,0.4,0.2,0.6c0.1,0.2,0.2,0.3,0.2,0.5c0.2,0.3,0.2,0.7,0.1,1
			c0,0,0,0,0.1,0C753.4,446.8,753.3,446.8,753.2,446.9z"/>
	</g>
	<g>
		<path class="st0" d="M747.8,890.6c0,1.4,0,2.7,0,4.1c0,0.7,0.1,1.3,0.3,1.9c0.3,0.7,0.7,1.2,1.4,1.5c0.3,0.1,0.7,0.3,1,0.3
			c1.6,0.3,3.1,0.4,4.7,0.2c0.9-0.1,1.7-0.2,2.5-0.4c2-0.6,3.6-1.6,4.9-3.2c0.6-0.7,1-1.5,1.5-2.3c0.2-0.3,0.4-0.6,0.6-0.9
			c0.3-0.4,0.7-0.6,1-0.5c0.4,0.2,0.7,0.5,0.7,0.9c0,0.7,0,1.3-0.1,2c-0.1,1-0.4,1.9-0.6,2.8c-0.1,0.5-0.4,1-0.6,1.4
			c-0.9,1.8-2.4,2.7-4.3,3.1c-1.1,0.2-2.2,0.3-3.3,0.1c-0.5-0.1-1-0.1-1.5-0.1c-0.5,0-1-0.1-1.5-0.1c-0.6-0.1-1.2-0.1-1.8-0.2
			c-0.2,0-0.3,0-0.5,0c-2-0.3-3.9-0.3-5.9-0.4c-1.1-0.1-2.1,0-3.2,0c-1.5,0.1-3.1,0.1-4.6,0.3c-0.4,0.1-0.7,0-1-0.2
			c-0.4-0.2-0.5-0.8-0.2-1c0.2-0.2,0.5-0.3,0.8-0.4c0.4-0.2,0.9-0.3,1.3-0.5c0.6-0.3,1-0.8,1.3-1.4c0.2-0.6,0.4-1.2,0.4-1.8
			c0-0.7,0.1-1.4,0.1-2.1c0-6.9,0-13.7,0-20.6c0-0.8,0-1.6-0.1-2.4c-0.1-1.2-0.7-2-1.7-2.5c-0.6-0.3-1.3-0.5-2-0.7
			c-0.3-0.1-0.7-0.2-1-0.4c-0.2-0.1-0.4-0.5-0.3-0.8c0.1-0.3,0.3-0.6,0.6-0.6c0.8,0,1.5,0,2.3,0c1.1,0.2,2.2,0.2,3.3,0.2
			c4.6,0,9.1,0,13.7,0c1.4,0,2.7-0.1,4.1-0.2c0.8-0.1,1.6-0.1,2.4-0.1c0.5,0,0.9,0.4,1,0.8c0.1,0.3,0.1,0.6,0.1,0.9
			c0,0.7,0,1.4,0,2.1c0,0.9,0.1,1.8,0.1,2.7c0,0.4,0,0.8-0.1,1.2c-0.1,0.2-0.2,0.3-0.4,0.4c-0.5,0.2-0.9,0-1.1-0.5
			c-0.2-0.5-0.4-0.9-0.5-1.4c-0.2-0.6-0.5-1.1-0.8-1.6c-0.6-0.8-1.4-1.4-2.3-1.6c-0.3-0.1-0.7-0.2-1-0.2c-1.2-0.1-2.4-0.3-3.6-0.4
			c-1.1-0.1-2.2,0-3.3,0c-0.5,0-1,0.1-1.5,0.3c-0.4,0.2-0.8,0.5-0.9,1c-0.1,0.3-0.2,0.6-0.2,0.9c0,0.4-0.1,0.9-0.1,1.4
			c0,2.1,0,4.3,0,6.4c0,0.4,0,0.8,0,1.2c0,0.2,0,0.4,0.1,0.6c0.2,0.9,0.8,1.5,1.7,1.7c1.7,0.3,3.4,0.3,5.1-0.1
			c1.2-0.2,2.1-0.9,2.7-2c0.3-0.6,0.5-1.1,0.7-1.7c0.1-0.3,0.2-0.6,0.4-0.8c0.2-0.3,0.6-0.5,0.9-0.4c0.3,0.1,0.5,0.3,0.5,0.7
			c0,0.9,0,1.7-0.1,2.6c-0.2,2.2-0.2,4.4,0,6.5c0.1,0.7,0.1,1.4,0.1,2.1c0,0.3-0.1,0.5-0.3,0.7c-0.2,0.3-0.7,0.3-1,0.1
			c-0.2-0.2-0.4-0.4-0.5-0.6c-0.1-0.3-0.2-0.7-0.3-1c-0.1-0.4-0.3-0.8-0.4-1.2c-0.4-1-1.1-1.7-2.1-2c-0.6-0.2-1.2-0.4-1.8-0.5
			c-1.3-0.2-2.6-0.1-4,0c-0.3,0-0.6,0.2-0.9,0.2c-0.6,0.2-0.8,0.6-0.9,1.1c-0.1,0.5-0.1,1-0.1,1.5
			C747.8,888.1,747.8,889.4,747.8,890.6L747.8,890.6z"/>
		<path class="st0" d="M429.2,883.2c0-3.6,0-7.1,0-10.7c0-0.8-0.1-1.5-0.2-2.3c-0.2-0.9-0.7-1.6-1.4-2c-0.4-0.2-0.7-0.3-1.1-0.5
			c-0.4-0.1-0.8-0.2-1.2-0.3c-0.2-0.1-0.5-0.2-0.7-0.2c-0.4-0.2-0.6-0.5-0.5-0.8c0-0.3,0.4-0.7,0.7-0.7c0.7,0,1.3-0.1,2,0
			c1.6,0.2,3.1,0.2,4.7,0.2c4.2,0,8.4,0,12.6,0c1.3,0,2.6,0,3.9-0.2c0.7-0.1,1.4-0.1,2.1-0.1c0.2,0,0.4,0,0.6,0.1
			c0.3,0.1,0.6,0.3,0.6,0.6c0.1,0.2,0.1,0.5,0.1,0.8c0,0.5,0,1,0,1.5c0,0.9,0,1.7,0.1,2.6c0.1,0.7,0.1,1.3,0,2
			c0,0.6-0.7,0.9-1.2,0.7c-0.1-0.1-0.3-0.2-0.3-0.3c-0.2-0.4-0.3-0.8-0.5-1.3c-0.2-0.5-0.4-1-0.6-1.4c-0.6-1.2-1.6-1.9-2.9-2.3
			c-1.3-0.3-2.6-0.4-3.9-0.5c-1.3-0.1-2.5,0-3.8-0.1c-0.5,0-1,0.1-1.5,0.3c-0.6,0.2-0.9,0.6-1,1.2c-0.1,0.5-0.2,1-0.2,1.5
			c0,2.4,0,4.9,0,7.3c0,0.6,0.1,1.1,0.2,1.7c0.2,0.8,0.7,1.2,1.4,1.4c1.2,0.2,2.3,0.4,3.5,0.2c0.6,0,1.1-0.1,1.7-0.2
			c1.3-0.2,2.3-0.9,2.9-2c0.2-0.4,0.4-0.8,0.5-1.3c0.2-0.4,0.3-0.8,0.5-1.1c0.1-0.1,0.2-0.2,0.3-0.4c0.4-0.4,1-0.2,1.2,0.3
			c0.1,0.4,0.1,0.8,0.1,1.2c-0.1,0.9-0.1,1.7-0.2,2.6c-0.2,2.1,0,4.3,0.1,6.4c0,0.5,0,1,0,1.5c0,0.3-0.2,0.6-0.6,0.6
			c-0.3,0.1-0.7-0.1-0.9-0.4c-0.1-0.3-0.2-0.6-0.3-0.8c-0.2-0.5-0.4-1.1-0.6-1.6c-0.4-1.1-1.2-1.8-2.2-2.1c-0.7-0.2-1.4-0.4-2.1-0.5
			c-1.1,0-2.1,0-3.2,0c-0.5,0-0.9,0.2-1.3,0.3c-0.4,0.2-0.6,0.5-0.8,0.9c-0.1,0.5-0.2,1.1-0.2,1.7c0,2.5,0,5.1,0,7.6
			c0,0.7,0.1,1.3,0.3,2c0.2,0.9,0.7,1.5,1.6,1.9c1,0.4,2.1,0.5,3.1,0.6c1.1,0,2.1-0.1,3.2-0.2c0.9-0.1,1.8-0.3,2.7-0.6
			c1.4-0.5,2.6-1.3,3.6-2.4c0.7-0.8,1.3-1.7,1.9-2.6c0.2-0.3,0.4-0.7,0.6-1c0.1-0.1,0.2-0.2,0.3-0.4c0.4-0.4,1.1-0.2,1.3,0.3
			c0.2,0.3,0.2,0.7,0.2,1c-0.1,1.7-0.4,3.3-1,4.9c-0.1,0.2-0.2,0.5-0.3,0.7c-0.9,1.8-2.3,2.8-4.3,3.1c-1.1,0.2-2.2,0.3-3.3,0.1
			c-0.5-0.1-0.9-0.1-1.4-0.1c-0.7-0.1-1.3-0.1-2-0.2c-0.4,0-0.8-0.1-1.2-0.1c-0.3,0-0.6,0-0.9-0.1c-2-0.3-4.1-0.3-6.1-0.4
			c-0.7,0-1.3-0.1-2,0c-1.8,0.1-3.6,0.1-5.3,0.3c-0.2,0-0.4,0-0.6,0c-0.2,0-0.4-0.1-0.6-0.2c-0.2-0.1-0.4-0.4-0.4-0.6
			c0-0.2,0.1-0.4,0.3-0.5c0.1-0.1,0.3-0.2,0.5-0.3c0.3-0.1,0.7-0.2,1-0.4c1.2-0.4,1.8-1.3,2-2.5c0.2-0.8,0.3-1.6,0.3-2.4
			c0-1.2,0-2.4,0-3.7C429.2,888.2,429.2,885.7,429.2,883.2L429.2,883.2z"/>
		<path class="st0" d="M487.7,891.9c0-0.4,0-1,0-1.6c0-0.4,0.1-0.8,0.3-1.2c0.1-0.2,0.3-0.3,0.4-0.4c0.3-0.2,0.7-0.2,1,0.1
			c0.1,0.2,0.3,0.3,0.4,0.5c0.2,0.5,0.4,1,0.6,1.6c0.3,0.8,0.6,1.6,1,2.4c1.6,3.1,4.1,5,7.4,5.9c1.3,0.3,2.6,0.3,3.9-0.2
			c1.8-0.7,2.9-2,3.5-3.8c0.5-2.6-0.1-5-2.7-6.6c-1-0.6-2-1-3.1-1.3c-1.2-0.4-2.4-0.8-3.6-1.2c-0.8-0.3-1.5-0.6-2.2-0.9
			c-1.3-0.6-2.5-1.5-3.6-2.6c-1.5-1.6-2.3-3.5-2.4-5.6c-0.1-1.4-0.1-2.7,0.3-4.1c0.4-1.3,0.9-2.5,1.7-3.5c1.7-2.1,3.9-3.6,6.5-4.2
			c0.6-0.1,1.2-0.2,1.8-0.2c1.7-0.1,3.4,0.2,5,0.9c0.8,0.3,1.5,0.6,2.3,0.9c0.5,0.2,0.9,0,1.3-0.2c0.3-0.2,0.6-0.5,0.8-0.7
			c0.3-0.2,0.8,0,0.8,0.4c0,0.2,0.1,0.5,0.1,0.8c0,1.5,0.1,2.9,0.3,4.4c0.1,1.1,0.3,2.2,0.5,3.3c0.1,0.4,0.1,0.8-0.1,1.2
			c-0.2,0.5-0.9,0.6-1.3,0.3c-0.2-0.2-0.3-0.4-0.4-0.6c-0.3-0.5-0.5-1.1-0.8-1.6c-0.6-1.1-1.2-2.1-1.9-3.1c-0.8-1-1.8-1.8-2.9-2.5
			c-1-0.6-2.1-1-3.3-1c-2.9-0.2-4.9,1.7-5.4,3.9c-0.2,1.1-0.3,2.1,0,3.2c0.3,1.4,1.1,2.5,2.3,3.3c0.9,0.6,1.9,1.1,3,1.5
			c1,0.3,2,0.6,3.1,0.9c1.4,0.4,2.8,0.9,4.1,1.5c0.8,0.4,1.5,0.8,2.3,1.3c2.1,1.5,3.3,3.5,3.6,6.1c0.2,1.6,0.1,3.2-0.5,4.8
			c-0.8,2.3-2.2,4.1-4.1,5.6c-1.7,1.3-3.6,2.1-5.7,2.4c-1.8,0.3-3.6,0.3-5.4,0c-1.7-0.2-3.3-0.6-4.9-1c-0.7-0.2-1.5-0.5-2.1-0.9
			c-0.5-0.3-0.8-0.7-1-1.3c-0.3-0.7-0.4-1.4-0.5-2.1C487.9,895,487.6,893.6,487.7,891.9"/>
		<path class="st0" d="M622.8,887L622.8,887c1.3,0,2.6,0,3.9,0c0.4,0,0.7,0,1.1-0.1c0.4-0.1,0.7-0.5,0.6-0.9c-0.2-0.5-0.4-1-0.6-1.6
			c-0.8-1.8-1.7-3.7-2.5-5.5c-0.4-0.8-0.7-1.7-1.1-2.5c-0.2-0.4-0.3-0.7-0.5-1.1c-0.4-0.7-0.9-0.7-1.4,0.1c-0.1,0.1-0.1,0.3-0.2,0.4
			c-0.1,0.3-0.3,0.6-0.4,0.8c-1.3,2.7-2.5,5.4-3.8,8.1c-0.2,0.5-0.5,0.9-0.5,1.4c0,0.3,0.2,0.6,0.5,0.7c0.3,0.1,0.6,0.1,0.9,0.1
			C620.1,887,621.4,887,622.8,887 M622.8,889.7c-1.5,0-3,0-4.6,0c-0.5,0-0.9,0-1.4,0c-0.5,0-0.9,0.3-1.2,0.6
			c-0.2,0.2-0.4,0.5-0.5,0.8c-0.8,1.5-1.3,3.1-1.6,4.7c-0.1,0.5-0.1,1-0.1,1.5c0,0.6,0.3,1,0.7,1.3c0.3,0.2,0.6,0.4,0.9,0.5
			c0.4,0.2,0.8,0.3,1.1,0.4c0.2,0.1,0.5,0.2,0.7,0.4c0.2,0.2,0.3,0.4,0.2,0.7c0,0.2-0.2,0.4-0.4,0.4c-0.3,0.1-0.6,0.2-0.9,0.1
			c-1.1-0.1-2.2-0.2-3.3-0.3c-0.5,0-0.9-0.1-1.4,0c-1.2,0.1-2.4,0.1-3.6,0.3c-0.3,0.1-0.6,0-0.9-0.1c-0.6-0.2-0.6-0.8-0.3-1.2
			c0.1-0.1,0.1-0.1,0.2-0.2c0.2-0.1,0.3-0.2,0.5-0.3c1.4-0.6,2.2-1.7,2.8-3.1c1.6-3.6,3.2-7.2,4.8-10.9c2.8-6.2,5.5-12.4,8.3-18.7
			c0.2-0.5,0.5-1,0.7-1.5c0.2-0.4,0.6-0.6,1-0.6c0.3,0,0.6,0.1,0.8,0.4c0.2,0.2,0.3,0.4,0.4,0.6c0.2,0.4,0.4,0.7,0.5,1.1
			c4.3,9.6,8.6,19.2,12.9,28.8c0.3,0.6,0.6,1.2,0.8,1.8c0.4,0.8,1,1.4,1.7,1.9c0.3,0.2,0.5,0.3,0.8,0.5c0.2,0.1,0.3,0.3,0.4,0.4
			c0.2,0.3,0.1,0.8-0.2,0.9c-0.2,0.1-0.5,0.2-0.7,0.2c-1.6-0.2-3.2-0.2-4.9-0.3c-1.2-0.1-2.3-0.1-3.5,0c-1.3,0.1-2.5,0.1-3.8,0.3
			c-0.3,0-0.6,0-0.9-0.1c-0.3-0.1-0.4-0.2-0.5-0.5c-0.1-0.3,0-0.6,0.3-0.8c0.4-0.2,0.7-0.3,1.1-0.5c0.3-0.1,0.7-0.2,1-0.4
			c0.6-0.2,1-0.7,1.1-1.4c0.1-0.5,0.2-1,0.1-1.5c-0.1-0.5-0.2-1.1-0.4-1.6c-0.3-1-0.7-2-1.1-3c-0.2-0.4-0.4-0.7-0.6-1
			c-0.3-0.4-0.7-0.6-1.2-0.7c-0.4,0-0.8,0-1.2,0C626.1,889.7,624.5,889.7,622.8,889.7"/>
		<path class="st0" d="M561.8,882.8c0,3,0,6,0,9c0,1.2,0.1,2.3,0.2,3.5c0,0.4,0.1,0.8,0.2,1.2c0.3,1,0.9,1.7,1.8,2.1
			c0.6,0.3,1.2,0.4,1.9,0.6c0.5,0.1,1.1,0.2,1.6,0.3c0.2,0,0.4,0.2,0.5,0.3c0.2,0.2,0.3,0.4,0.2,0.7c0,0.2-0.2,0.4-0.4,0.5
			c-0.5,0.2-1,0.3-1.5,0.2c-1.9-0.2-3.9-0.2-5.8-0.3c-1.3-0.1-2.6-0.1-4,0c-1.6,0.1-3.1,0.1-4.7,0.3c-0.4,0-0.7,0-1-0.1
			c-0.4-0.2-0.5-0.8-0.2-1.2c0.1-0.1,0.3-0.3,0.5-0.3c0.4-0.2,0.9-0.3,1.3-0.4c0.5-0.2,1.1-0.4,1.5-0.7c0.4-0.3,0.8-0.7,0.9-1.2
			c0.1-0.4,0.2-0.9,0.2-1.4c0-0.6,0-1.1,0-1.7c0-7.4,0-14.8,0-22.1c0-0.6,0-1.2,0-1.8c0-0.6-0.4-1.1-1-1.3c-0.4-0.2-0.9-0.3-1.3-0.3
			c-1.4-0.1-2.8,0-4.2,0.4c-1.6,0.4-2.8,1.4-3.5,2.9c-0.3,0.6-0.4,1.1-0.6,1.7c-0.1,0.4-0.3,0.8-0.4,1.1c-0.2,0.4-0.5,0.6-1,0.6
			c-0.4,0-0.8-0.3-0.9-0.7c0-0.2-0.1-0.4-0.1-0.6c0-0.5,0-0.9,0-1.4c0.2-1.5,0.4-2.9,0.6-4.4c0.1-0.6,0.2-1.1,0.3-1.6
			c0.1-0.2,0.2-0.5,0.3-0.7c0.1-0.2,0.4-0.4,0.6-0.4c0.7,0,1.4,0,2.1,0.1c1.5,0.2,3,0.2,4.6,0.2c5.4,0,10.8,0,16.1,0
			c1.4,0,2.7,0,4.1-0.2c0.7-0.1,1.3-0.1,2-0.1c0.7,0,1.3,0.3,1.6,0.9c0.2,0.3,0.3,0.7,0.4,1.1c0.5,2,0.7,4.1,0.6,6.2
			c0,0.4-0.1,0.7-0.3,1c-0.2,0.3-0.4,0.4-0.7,0.5c-0.4,0-0.7-0.1-0.9-0.5c-0.1-0.2-0.2-0.5-0.2-0.7c-0.2-0.7-0.4-1.4-0.6-2
			c-0.7-1.9-2-2.9-4-3.3c-1.4-0.2-2.8-0.3-4.3-0.3c-0.7,0-1.3,0.1-1.9,0.3c-0.4,0.1-0.6,0.4-0.7,0.8c-0.1,0.4-0.2,0.8-0.2,1.2
			c0,0.4,0,0.8,0,1.2C561.8,875.7,561.8,879.3,561.8,882.8"/>
		<path class="st0" d="M683.7,883.1c0-3.8,0-7.6,0-11.4c0-0.5,0-1-0.1-1.5c-0.1-0.5-0.4-0.9-0.9-1.1c-0.4-0.2-0.9-0.3-1.3-0.3
			c-1.4-0.1-2.8,0-4.2,0.3c-1.6,0.4-2.8,1.4-3.5,2.9c-0.3,0.6-0.4,1.1-0.7,1.7c-0.1,0.4-0.2,0.8-0.4,1.1c-0.2,0.4-0.5,0.6-1,0.6
			c-0.5,0-0.9-0.3-1-0.8c-0.1-0.8-0.1-1.5,0-2.3c0.2-1.4,0.3-2.7,0.5-4.1c0.1-0.6,0.2-1.2,0.4-1.8c0.1-0.5,0.6-0.9,1.1-0.8
			c0.8,0,1.5,0.1,2.3,0.1c0.9,0.1,1.8,0.2,2.7,0.2c6.2,0,12.4,0,18.6,0c1,0,1.9-0.1,2.9-0.2c0.8,0,1.5-0.1,2.3-0.1
			c0.7,0,1.2,0.4,1.5,0.9c0.2,0.3,0.3,0.6,0.4,1c0.5,2.1,0.7,4.2,0.6,6.4c0,0.3-0.1,0.7-0.2,1c-0.1,0.3-0.4,0.5-0.8,0.5
			c-0.4,0-0.7-0.2-0.8-0.5c-0.1-0.4-0.3-0.9-0.4-1.3c-0.2-0.5-0.3-1.1-0.5-1.6c-0.6-1.7-1.9-2.7-3.7-3c-1.6-0.3-3.1-0.4-4.7-0.3
			c-0.6,0-1.1,0.2-1.6,0.3c-0.4,0.1-0.7,0.4-0.8,0.8c-0.1,0.3-0.2,0.7-0.2,1c0,0.4,0,0.7,0,1.1c0,6.7,0,13.3,0,20
			c0,1.2,0.1,2.3,0.2,3.5c0,0.1,0,0.2,0,0.3c0.2,1.7,1.1,2.8,2.8,3.2c0.9,0.2,1.8,0.4,2.7,0.6c0.2,0.1,0.5,0.2,0.7,0.3
			c0.2,0.1,0.3,0.3,0.2,0.5c0,0.3-0.2,0.5-0.4,0.6c-0.5,0.2-1,0.3-1.5,0.2c-2-0.3-4.1-0.2-6.1-0.3c-0.8-0.1-1.6-0.1-2.4,0
			c-1.9,0.1-3.9,0.1-5.8,0.3c-0.4,0-0.7,0.1-1.1-0.1c-0.2-0.1-0.4-0.2-0.5-0.5c-0.1-0.3,0.1-0.6,0.3-0.8c0.2-0.1,0.4-0.2,0.5-0.3
			c0.4-0.1,0.8-0.2,1.2-0.4c0.4-0.2,0.8-0.3,1.2-0.5c0.7-0.3,1.1-0.9,1.2-1.6c0.1-0.7,0.2-1.3,0.2-2c0-1.9,0-3.9,0-5.8
			C683.7,887.2,683.7,885.1,683.7,883.1z"/>
	</g>
	<g>
		<path class="st0" d="M741.4,755c-6.5,0-12.9,0-19.4,0c-0.9,0-1.8,0.1-2.7,0.1c-0.4,0-0.8,0.4-0.8,0.8c-0.1,0.3-0.1,0.6-0.1,1
			c0,0.6,0,1.3,0,1.9c0,8.9,0,17.8,0,26.7c0,1.7,0.1,3.4,0.5,5.1c0.7,2.9,2.4,5.1,5.1,6.4c2.1,1.1,4.4,1.7,6.7,1.8
			c1.2,0.1,2.4,0.3,3.6,0.5c0.2,0,0.3,0.1,0.5,0.1c1.5,0.4,2.1,1.7,1.5,3.2c-0.2,0.6-0.7,0.9-1.3,1c-0.5,0.1-1,0.1-1.5,0.1
			c-2.1-0.1-4.2-0.1-6.3-0.4c-0.5-0.1-1-0.1-1.4-0.1c-5.2-0.1-10.3-0.6-15.5-0.5c-2.9,0.1-5.8,0.2-8.7,0.3c-1.2,0-2.4,0.1-3.6,0.2
			c-0.8,0.1-1.6,0.1-2.4,0.2c-1.5,0.3-3.1,0.3-4.6,0.3c-0.5,0-1,0-1.4-0.1c-0.8-0.2-1.3-0.6-1.5-1.4c-0.2-0.7-0.2-1.5,0.4-2
			c0.3-0.3,0.7-0.6,1.2-0.8c0.6-0.2,1.2-0.4,1.8-0.6c1.5-0.4,2.9-1,4.3-1.7c1.6-0.8,2.7-2.1,3.3-3.8c0.6-1.6,0.9-3.3,1-5
			c0.1-1.1,0.1-2.1,0.1-3.1c0-22.1,0-44.2,0-66.3c0-0.8,0-1.6-0.1-2.4c0-1-0.3-1.9-0.6-2.8c-0.4-1.1-1-2-2.1-2.6
			c-0.9-0.4-1.7-0.9-2.6-1.2c-1.2-0.4-2.5-0.7-3.7-1.1c-1.1-0.3-2.2-0.6-3.2-0.9c-0.5-0.1-0.9-0.4-1.3-0.7c-0.8-0.6-1.1-1.7-0.7-2.6
			c0.3-0.5,0.7-0.9,1.3-1c0.4-0.1,0.8-0.1,1.2-0.1c2.1,0.1,4.2,0,6.3,0.3c0.4,0.1,0.8,0.1,1.2,0.2c4.8,0.2,9.5,0.7,14.3,0.5
			c1.4-0.1,2.7-0.1,4.1-0.2c1.1-0.1,2.3-0.2,3.4-0.2c1.7-0.1,3.4-0.2,5.1-0.3c2.1-0.2,4.2-0.2,6.3-0.3c0.4,0,0.8,0,1.2,0.1
			c0.8,0.1,1.4,0.8,1.6,1.6c0.2,1-0.3,2-1.2,2.4c-1.1,0.3-2.2,0.6-3.3,0.8c-1.2,0.2-2.4,0.4-3.5,0.9c-0.5,0.2-1.1,0.4-1.6,0.7
			c-1.6,0.8-2.6,2.1-3.2,3.8c-0.3,1-0.6,2-0.6,3.1c0,0.6,0,1.1,0,1.7c0,8.4,0,16.8,0,25.3c0,0.6,0,1.1,0,1.7c0.1,1.4,0.5,1.8,2,1.8
			c0.4,0,0.8,0,1.2,0c13.3,0,26.6,0,40,0c0.7,0,1.4-0.1,2.2-0.2c0.3,0,0.6-0.3,0.7-0.6c0.1-0.3,0.1-0.6,0.2-1c0-0.7,0-1.3,0-1.9
			c0-7.7,0-15.4,0-23.1c0-0.8,0-1.6-0.1-2.4c0-1.1-0.3-2.2-0.7-3.3c-0.8-2.3-2.4-4-4.6-5c-1.6-0.7-3.2-1.1-4.9-1.4
			c-0.8-0.2-1.6-0.3-2.4-0.6c-0.5-0.1-0.9-0.3-1.3-0.6c-0.4-0.2-0.7-0.7-0.7-1.2c-0.2-1.7,0.6-2.6,2.1-2.6c2.1,0,4.2,0,6.3,0.3
			c0.6,0.1,1.3,0.2,1.9,0.2c4.8,0.2,9.5,0.6,14.3,0.5c2.4,0,4.8-0.1,7.3-0.3c1-0.1,1.9-0.1,2.9-0.2c1-0.1,1.9-0.1,2.9-0.3
			c1.7-0.2,3.4-0.3,5.1-0.3c0.4,0,0.8,0.1,1.2,0.1c0.8,0.1,1.5,0.8,1.6,1.6c0.1,0.8-0.3,1.7-0.9,2.1c-0.5,0.3-1,0.5-1.6,0.6
			c-0.9,0.2-1.7,0.3-2.6,0.5c-1.2,0.2-2.4,0.5-3.5,1c-1.7,0.7-2.7,2-3.3,3.7c-0.3,1-0.6,2-0.6,3.1c0,0.8,0,1.6,0,2.4
			c0,21,0,42.1,0,63.1c0,2.3,0.1,4.5,0.4,6.8c0.6,3.8,2.5,6.4,5.9,8c2.4,1.1,4.8,1.9,7.4,2.3c0.8,0.1,1.6,0.3,2.4,0.5
			c0.9,0.3,1.4,1.1,1.4,2.1c-0.1,1.1-0.7,2-1.6,2.2c-0.6,0.1-1.3,0.2-1.9,0.2c-2.6-0.1-5.2,0-7.7-0.4c-0.2,0-0.3,0-0.5-0.1
			c-6.9-0.4-13.7-0.8-20.6-0.3c-1.3,0.1-2.6,0.1-3.9,0.2c-1.1,0.1-2.2,0.2-3.4,0.3c-1.6,0.1-3.2,0.2-4.8,0.3c-0.2,0-0.5,0-0.7,0
			c-1.1-0.1-1.7-0.6-1.9-1.6c-0.2-1.1,0.1-2.1,1-2.5c0.6-0.3,1.3-0.6,2-0.8c1.2-0.3,2.3-0.8,3.4-1.2c3-1.2,4.4-3.7,4.8-6.7
			c0.1-0.8,0.1-1.6,0.1-2.4c0-10,0-20.1,0-30.1c0-0.8-0.1-1.6-0.1-2.4c0-0.5-0.4-0.9-1-0.9c-0.9-0.1-1.8-0.1-2.7-0.1
			C754.3,755,747.8,755,741.4,755"/>
		<path class="st0" d="M971.6,743.3c0.1,4.8,0.5,9.2,1.2,13.6c0.8,4.5,1.8,8.9,3.2,13.2c1.9,5.7,4.6,10.9,8.5,15.5
			c5.5,6.5,12.4,10.9,20.8,12.6c2.1,0.4,4.3,0.6,6.5,0.6c0.9,0,1.7-0.1,2.6-0.1c0.6-0.1,1.2-0.2,1.8-0.2c1.5,0,2.9-0.4,4.4-0.7
			c6.9-1.9,12.7-5.5,17.3-11.1c2.6-3.1,4.6-6.6,6.1-10.3c1.9-4.8,3.1-9.8,3.8-14.9c0.7-5.6,0.6-11.1-0.3-16.7
			c-0.9-5.6-2.5-11-4.6-16.3c-2.1-5.1-4.7-9.9-8.1-14.3c-3.4-4.3-7.4-7.8-12.3-10.3c-3.8-1.9-7.7-3.1-11.9-3.6
			c-3.1-0.3-6.1-0.2-9.1,0.3c-4.2,0.7-8.2,2.3-11.8,4.7c-4.3,2.8-7.8,6.4-10.5,10.8C973.8,724.4,971.4,733.6,971.6,743.3
			 M1009.8,805.9c-2.8-0.1-5.2-0.1-7.7-0.4c-8.2-0.9-16.1-2.9-23.4-7.1c-13.5-7.8-22.2-19.2-25.7-34.5c-1.1-4.7-1.7-9.5-1.7-14.4
			c0-3.7,0-7.3,0.5-10.9c1.1-7.9,3.7-15.2,8-21.9c2.9-4.5,6.4-8.4,10.4-11.9c6.8-6,14.4-10.6,23-13.4c3.7-1.2,7.5-2,11.4-2.6
			c5.2-0.7,10.4-0.8,15.6-0.4c5.1,0.4,10.1,1.5,14.9,3.2c6.9,2.4,13.4,5.8,19.1,10.5c4.6,3.8,8.3,8.2,11.3,13.3
			c3.5,6,5.8,12.4,6.9,19.2c1,5.7,1.2,11.4,0.6,17.2c-0.4,4.7-1.2,9.2-2.7,13.7c-3.1,9.9-8.8,18.2-16.7,24.9
			c-7.4,6.2-15.8,10.5-25,13.1c-3.6,1-7.3,1.7-11,2.1C1015,805.8,1012.3,805.8,1009.8,805.9"/>
		<path class="st0" d="M316.6,774v10.9c0,1.5,0.1,3.1,0.5,4.6c0.1,0.3,0.1,0.6,0.2,1c0.7,2.6,2.3,4.4,4.8,5.4
			c1.4,0.5,2.8,0.9,4.2,1.1c3.4,0.4,6.7,0.5,10.1,0.2c2.4-0.2,4.8-0.5,7.2-1.1c1.6-0.4,3.1-0.9,4.6-1.5c3.4-1.3,6.3-3.3,8.7-6
			c2.2-2.5,4.1-5.2,5.8-8c0.5-0.9,1.1-1.8,1.6-2.7c0.2-0.3,0.4-0.7,0.7-1c1.3-1.3,3.3-0.6,3.8,0.8c0.3,0.9,0.4,1.9,0.4,2.9
			c-0.2,4.4-1,8.7-2.4,12.8c-0.5,1.5-1.2,3-2.1,4.4c-1.4,2.4-3.3,4.1-5.7,5.4c-1.7,0.9-3.4,1.5-5.2,1.8c-3.1,0.6-6.3,0.7-9.4,0.4
			c-1.4-0.1-2.9-0.2-4.3-0.3c-0.6-0.1-1.3-0.1-1.9-0.2c-0.9-0.1-1.8-0.2-2.6-0.3c-0.9-0.1-1.8-0.2-2.6-0.3c-0.7-0.1-1.5-0.1-2.2-0.2
			c-0.7-0.1-1.5-0.1-2.2-0.2c-1.1-0.1-2.2-0.2-3.4-0.3c-0.3,0-0.6,0-1-0.1c-3.7-0.5-7.4-0.4-11.1-0.7c-3.5-0.2-7.1-0.2-10.6,0.1
			c-1,0.1-1.9,0.1-2.9,0.2c-1.5,0.1-3.1,0.2-4.6,0.3c-1.8,0.2-3.5,0.2-5.3,0.3c-0.5,0-1-0.1-1.4-0.1c-0.5-0.1-0.9-0.4-1.2-0.8
			c-0.5-0.8-0.4-1.8,0.3-2.4c0.5-0.4,1.1-0.7,1.7-1c0.6-0.3,1.2-0.4,1.8-0.6c0.9-0.3,1.8-0.8,2.6-1.3c1.6-0.9,2.7-2.3,3.4-4
			c0.9-2.1,1.2-4.4,1.3-6.6c0.1-1.7,0.1-3.4,0.1-5.1c0-18.9,0-37.7,0-56.5c0-1.6,0-3.2,0-4.9c0-1.5-0.2-2.9-0.5-4.3
			c-0.3-1.7-1.2-3.2-2.5-4.3c-1.3-1.1-2.8-1.9-4.5-2.4c-1.2-0.3-2.5-0.6-3.7-1c-0.7-0.2-1.4-0.4-2.1-0.7c-1-0.4-1.4-1.4-1.2-2.4
			c0.1-0.8,0.8-1.5,1.6-1.7c0.4-0.1,0.8-0.1,1.2-0.1c1.8,0.1,3.5,0.2,5.3,0.3c0.4,0,0.8,0.2,1.2,0.2c3,0.2,6,0.5,8.9,0.5
			c10.8,0.1,21.6,0,32.5,0c2.6,0,5.2-0.1,7.7-0.2c1.7,0,3.4-0.1,5.1-0.2c1.5-0.1,3.1-0.2,4.6-0.3c1.8-0.1,3.5-0.2,5.3-0.3
			c0.6,0,1.1,0,1.7,0.1c1.1,0.1,1.8,0.8,2.1,1.8c0.1,0.5,0.2,1,0.2,1.4c0.1,1.6,0.1,3.2,0.1,4.9c0,2.4,0,4.9,0.2,7.3
			c0.2,1.5,0.2,2.9,0.2,4.4c0,0.6,0,1.3-0.1,1.9c-0.2,0.9-1,1.6-1.8,1.7c-0.4,0-0.8,0-1.2,0c-0.4,0-0.8-0.3-1-0.6
			c-0.2-0.3-0.4-0.7-0.6-1c-0.4-1.1-0.8-2.1-1.1-3.2c-0.5-1.5-1-2.9-1.8-4.2c-1.8-3.2-4.5-5.2-8.1-6c-2.2-0.5-4.4-0.8-6.7-1
			c-4.5-0.5-9-0.4-13.5-0.5c-1,0-1.9,0.1-2.9,0.1c-1,0-1.9,0.3-2.8,0.7c-1.4,0.6-2.4,1.6-2.8,3.1c-0.3,1-0.4,2.1-0.6,3.1
			c-0.1,0.6-0.1,1.3-0.1,1.9c0,6.7,0,13.4,0,20.1c0,1.5,0.2,2.9,0.4,4.3c0.5,2.6,2,4,4.5,4.5c1.4,0.3,2.8,0.6,4.3,0.6
			c1.9,0,3.9,0,5.8,0s3.8-0.4,5.7-0.9c2.8-0.7,4.9-2.4,6.3-4.9c0.4-0.8,0.8-1.6,1.1-2.4c0.5-1.3,1-2.6,1.5-3.8
			c0.2-0.6,0.5-1.2,0.9-1.7c0.4-0.6,1-0.8,1.6-0.9c1-0.1,1.8,0.4,2.1,1.3c0.2,0.7,0.3,1.4,0.3,2.2c-0.1,1.8-0.2,3.7-0.3,5.6
			c-0.4,4.3-0.6,8.6-0.4,12.8c0.2,2.8,0.2,5.7,0.5,8.5c0.1,1,0.1,2.1,0.1,3.2c0,0.7-0.2,1.3-0.5,1.8c-0.6,1-1.9,1.4-2.9,0.7
			c-0.6-0.4-1-0.9-1.2-1.5c-0.3-0.7-0.4-1.4-0.7-2.1c-0.5-1.5-0.9-2.9-1.5-4.4c-1.1-2.9-3.2-4.8-6.1-5.9c-1.9-0.7-3.8-1.2-5.9-1.4
			c-0.9-0.1-1.8-0.1-2.6-0.2c-2.7-0.3-5.3,0-8,0.3c-0.8,0.1-1.6,0.4-2.3,0.7c-1.2,0.4-2,1.3-2.3,2.6c-0.2,1-0.4,2.1-0.4,3.1
			c0,1.1,0,2.1-0.1,3.2C316.6,767.9,316.6,771,316.6,774L316.6,774z"/>
		<path class="st0" d="M171.3,739.9C171.3,739.9,171.3,739.9,171.3,739.9c0.4,0,0.8,0,1.2,0c3.9,0,7.9-0.2,11.7-1.1
			c2-0.4,4-1,5.9-1.9c3.9-1.7,6.8-4.4,8.8-8.2c0.9-1.6,1.5-3.4,1.9-5.2c0.8-3.6,1.1-7.2,0.8-10.8c-0.2-2.6-0.6-5.2-1.3-7.7
			c-1.3-4.3-3.6-8-7.2-10.8c-1.8-1.4-3.7-2.4-5.8-3.3c-2.7-1.1-5.6-1.7-8.5-2.2c-3.6-0.5-7.2-0.7-10.8-0.5c-1.4,0.1-2.8,0.3-4.1,0.6
			c-0.9,0.2-1.8,0.5-2.6,0.9c-1.5,0.8-2.5,2-2.7,3.8c-0.2,1.5-0.3,3.1-0.3,4.6c0,11.3,0,22.6,0,33.8c0,0.6,0,1.2,0,1.9
			c0.1,0.8,0.1,1.7,0.3,2.5c0.4,1.6,1.4,2.7,3.1,3c1,0.1,2,0.4,3,0.4C166.9,739.9,169.1,739.9,171.3,739.9 M158.3,767.7
			c0,4,0,8,0,12.1c0,1.9,0.1,3.9,0.3,5.8c0.6,4.7,3.1,8.2,7.4,10.2c2.2,1,4.5,1.7,6.8,2.1c1,0.2,1.9,0.5,2.8,0.9
			c0.3,0.2,0.7,0.4,1,0.7c1.2,1,1,2.9-0.3,3.8c-0.5,0.3-1.1,0.6-1.7,0.6c-0.6,0-1.2,0.1-1.9,0.1c-2.5-0.1-4.9,0-7.4-0.4
			c-0.2,0-0.5-0.1-0.7-0.1c-6.6-0.3-13.3-0.8-19.9-0.7c-1.7,0-3.4,0-5.1,0.1c-1.1,0-2.2,0.1-3.2,0.2c-0.8,0.1-1.5,0.2-2.3,0.2
			c-1.5,0.1-3.1,0.2-4.6,0.4c-1.9,0.2-3.9,0.2-5.8,0.3c-0.4,0-0.8,0-1.2-0.1c-2.2-0.3-3-2.7-1.8-4.4c0.2-0.2,0.4-0.5,0.7-0.6
			c0.9-0.3,1.7-0.7,2.6-0.9c0.8-0.2,1.7-0.3,2.5-0.5c0.5-0.1,1-0.2,1.6-0.4c4-1.2,6.3-4,7.3-8c0.3-1.4,0.5-2.7,0.5-4.1
			c0-0.8,0-1.5,0-2.3c0-26.7,0-53.4,0-80.1c0-1.4,0-2.8,0-4.2c0-1.8-0.3-3.5-0.8-5.3c-0.7-2.4-2.2-4-4.5-4.9
			c-1.7-0.7-3.5-1.1-5.4-1.3c-1.5-0.2-3.1-0.3-4.6-0.5c-0.7-0.1-1.4-0.3-2-0.6c-1.3-0.5-1.9-2.3-1.3-3.5c0.4-0.7,1.1-1.1,1.8-1.3
			c0.4-0.1,0.9-0.1,1.4-0.1c2.2,0,4.3,0,6.5,0.3c0.2,0,0.5,0.1,0.7,0.1c3.5,0.2,7.1,0.4,10.6,0.6c2.3,0.1,4.6,0.1,6.9,0.1
			c3.4,0.1,6.8,0,10.2-0.2c0.7,0,1.4-0.1,2.1-0.2c1-0.1,2-0.2,3-0.2c1-0.1,2-0.2,3-0.3c0.7-0.1,1.4-0.1,2.1-0.2c0.5,0,1.1,0,1.6-0.1
			c3.4-0.5,6.8-0.4,10.2-0.4c1.9,0,3.9,0,5.8,0.1c1.1,0,2.1,0.1,3.2,0.2c0.8,0.1,1.5,0.1,2.3,0.2c6.1,0.7,12.2,2,17.8,4.6
			c2.7,1.2,5.2,2.8,7.5,4.6c4.8,4,7.9,9,9.4,15.1c1,4.1,1.2,8.2,1,12.4c-0.1,2.5-0.6,4.9-1.4,7.3c-1.1,3-2.8,5.7-5.1,7.9
			c-1.8,1.7-3.7,3.1-5.7,4.4c-2.5,1.6-5.1,2.9-7.8,4.1c-1.4,0.6-2.8,1.3-4.2,1.9c-0.7,0.3-1.3,0.8-2,1.2c-0.4,0.3-0.4,0.9-0.1,1.3
			c0.3,0.4,0.6,0.7,0.9,1c0.5,0.5,1,0.9,1.6,1.4c2.4,2.2,4.6,4.6,6.3,7.4c1.9,3.1,3.7,6.2,5.4,9.5c1.4,2.7,2.7,5.4,4.2,8
			c1.8,3.4,3.7,6.6,5.7,9.8c1.6,2.5,3.4,5,5.5,7.2c0.7,0.7,1.4,1.5,2.2,2.1c1.4,1.2,3,1.8,4.9,1.7c0.9,0,1.8-0.1,2.8-0.3
			c0.9-0.2,1.8-0.3,2.7-0.4c0.5-0.1,1.1,0,1.6,0.2c0.9,0.2,1.5,1.2,1.3,2.1c-0.1,0.7-0.4,1.3-0.9,1.9c-0.8,1-1.7,2-2.8,2.7
			c-3.5,2.6-7.3,4.3-11.6,5c-3.4,0.5-6.8,0.5-10.1,0c-2.4-0.3-4.7-1-6.9-2c-2.5-1.1-4.7-2.7-6.6-4.6c-2-2.1-3.7-4.3-5.1-6.8
			c-0.7-1.3-1.4-2.6-2.1-3.9c-4.2-8.4-8.3-16.9-12.5-25.4c-0.9-1.8-1.8-3.6-2.9-5.3c-1-1.5-2-2.9-3.2-4.2c-2.5-2.7-5.6-4.5-9.3-5.2
			c-2.2-0.4-4.5-0.4-6.7-0.3c-0.9,0-1.7,0.3-2.4,0.7c-0.7,0.3-1.2,0.9-1.4,1.8c-0.2,1.5-0.4,2.9-0.4,4.4c0,3.9,0,7.9,0,11.8
			C158.3,766.4,158.3,767.1,158.3,767.7"/>
		<path class="st0" d="M454.4,805.9c-4-0.2-7.5-0.4-11-1.1c-3.2-0.6-6.5-1.3-9.7-2.1c-1.4-0.4-2.8-0.8-4.1-1.4
			c-0.6-0.3-1.2-0.5-1.7-0.8c-2-1-3.3-2.6-3.9-4.7c-0.4-1.4-0.8-2.8-1-4.2c-0.3-1.7-0.4-3.4-0.7-5c-0.5-3.2-0.5-6.4-0.6-9.7
			c-0.1-1.5,0-3.1,0.2-4.6c0.1-0.8,0.3-1.6,0.7-2.3c0.2-0.4,0.6-0.8,0.9-1.1c0.8-0.8,2.7-0.9,3.6,0.5c0.4,0.6,0.7,1.3,1,1.9
			c0.6,1.3,1.1,2.7,1.6,4.1c0.7,1.9,1.4,3.8,2.3,5.6c4.3,8.9,11.4,14.5,20.9,17c2.9,0.8,5.8,0.8,8.7,0.3c3.1-0.6,5.8-2,8-4.3
			c2.4-2.4,4-5.1,4.5-8.4c0.9-5.7-0.3-10.8-4.5-14.9c-1-1-2.1-1.7-3.3-2.4c-2-1.2-4.2-2.1-6.4-2.9c-2.9-1-5.8-2-8.7-2.9
			c-2.8-0.9-5.5-1.9-8.2-3c-3.5-1.5-6.8-3.4-9.7-5.9c-5.2-4.6-8.2-10.3-9-17.2c-0.1-1-0.3-1.9-0.3-2.9c-0.3-8.4,2.2-15.8,8.1-21.9
			c3.8-4,8.3-6.9,13.6-8.5c2.4-0.7,4.8-1.3,7.4-1.3c1.1,0,2.1,0,3.1,0c3.4,0,6.6,0.7,9.7,1.8c1.1,0.4,2.2,0.9,3.4,1.3
			c1.3,0.5,2.5,1,3.8,1.5c0.6,0.2,1.2,0.4,1.9,0.5c0.9,0.1,1.8-0.1,2.5-0.6c0.5-0.3,0.9-0.7,1.3-1.1c0.4-0.3,0.7-0.7,1.1-1
			c1-0.7,2.4-0.2,2.6,1.1c0.1,0.7,0.2,1.4,0.2,2.2c0.1,2,0.2,4,0.2,6.1c0.1,4.2,0.8,8.4,1.4,12.5c0.2,1.2,0.3,2.4,0.5,3.6
			c0.1,1,0.1,1.9-0.2,2.9c-0.6,1.7-2.5,1.7-3.4,0.9c-0.5-0.4-0.9-0.9-1.2-1.5c-0.3-0.7-0.6-1.3-0.9-2c-1.5-3.3-3.2-6.5-5.3-9.5
			c-2.1-3-4.5-5.7-7.5-7.8c-2.2-1.6-4.5-2.8-7.1-3.6c-2.4-0.7-4.9-1-7.4-0.7c-6.9,0.8-10.9,5.3-12.3,10.5c-0.9,3.2-0.9,6.4-0.2,9.6
			c0.8,3.5,2.6,6.4,5.5,8.6c2.5,1.9,5.2,3.3,8.1,4.3c3,1.1,6.1,2,9.2,2.9c3.8,1.1,7.5,2.4,11.2,3.9c2,0.9,3.9,1.8,5.8,3
			c1.4,0.8,2.7,1.8,3.9,2.9c4.5,4,7,9,7.8,14.9c0.5,3.7,0.3,7.4-0.4,11.1c-0.9,4.1-2.5,7.8-5,11.2c-4.6,6.1-10.4,10.6-17.7,12.9
			c-3.1,1-6.2,1.7-9.5,1.8C456.7,805.8,455.3,805.9,454.4,805.9"/>
		<path class="st0" d="M543.2,756.8c0-5.3,0.6-10.5,1.9-15.6c2.2-8.5,6.3-15.9,12.3-22.3c5.4-5.7,11.5-10.4,18.8-13.5
			c3.7-1.6,7.6-2.7,11.6-3.3c3.5-0.5,7.1-0.5,10.6-0.4c4.9,0.2,9.6,1.1,14.2,2.8c2.3,0.9,4.6,1.9,6.9,2.9c1.1,0.5,2.2,0.9,3.4,1.3
			c0.5,0.2,1.1,0.3,1.6,0.4c1.3,0.2,2.4-0.1,3.4-0.9c0.8-0.7,1.6-1.3,2.4-2c0.6-0.5,1.3-0.7,2-0.6c0.5,0.1,1.1,0.5,1.2,1.1
			c0.1,0.6,0.1,1.3,0.1,1.9c0,2.3,0,4.5,0,6.8c0,5.4,0.5,10.7,1.8,15.9c0.2,0.6,0.3,1.3,0.4,1.9c0.1,0.5,0.1,1,0,1.4
			c-0.1,0.4-0.3,0.8-0.7,1c-1.1,0.6-2.6,0.4-3.3-0.7c-0.4-0.5-0.6-1.1-0.9-1.7c-0.9-1.7-1.7-3.5-2.6-5.2
			c-3.8-7.2-9.5-12.6-16.7-16.4c-3.2-1.7-6.7-2.9-10.3-3.4c-2.5-0.4-5.1-0.6-7.7-0.3c-9.4,0.8-16.6,5.3-22.3,12.5
			c-3.7,4.7-6.1,10.1-7.6,15.9c-1.1,4.3-1.6,8.6-1.6,13c0,2.4,0,4.7,0.2,7c0.4,5.8,1.5,11.5,3.9,17c4.2,9.8,11.2,16.7,21.1,20.5
			c3.9,1.5,7.9,2.2,12.1,2.3c8.5,0.1,16.2-2.6,23-7.6c2.7-2,5.1-4.2,7.2-6.8c0.4-0.4,0.7-0.9,1.1-1.2c0.8-0.7,1.7-0.8,2.7-0.4
			c0.6,0.2,0.9,0.7,1,1.3c0.1,0.7,0.1,1.5-0.2,2.1c-0.3,0.7-0.6,1.3-1,1.9c-0.5,0.7-1,1.5-1.6,2.1c-7.1,8-15.7,13.6-26,16.6
			c-3.4,1-6.9,1.6-10.5,1.8c-3.3,0.2-6.6,0.2-9.9-0.2c-5.6-0.6-10.9-2-16-4.5c-8.6-4.2-15.3-10.4-19.9-18.9
			c-2.5-4.6-4.3-9.4-5.2-14.5C543.4,764.1,543.2,760.5,543.2,756.8"/>
		<path class="st0" d="M865.5,753.1c0-10.2,0-20.4,0-30.6c0-1.2,0-2.4-0.1-3.6c0-1.4-0.3-2.7-0.8-4c-0.9-2.7-2.8-4.5-5.5-5.3
			c-1.6-0.4-3.1-0.8-4.7-1c-0.8-0.1-1.6-0.3-2.3-0.6c-0.5-0.1-0.9-0.4-1.3-0.7c-0.7-0.4-1-1.1-0.8-1.9c0.1-0.8,0.8-1.5,1.6-1.6
			c0.5-0.1,1-0.1,1.4-0.1c2,0.1,4,0.2,6,0.3c1.4,0.1,2.7,0.2,4.1,0.3c1.5,0.1,2.9,0.1,4.4,0.2c4.3,0.3,8.6,0.4,12.8-0.1
			c0.8-0.1,1.6-0.1,2.4-0.1c1-0.1,1.9-0.1,2.9-0.3c2.4-0.3,4.8-0.3,7.2-0.3c0.3,0,0.7,0,1,0.1c0.5,0.1,0.9,0.3,1.3,0.5
			c1.1,0.7,1.1,2.4-0.1,3c-0.6,0.3-1.2,0.5-1.8,0.7c-0.8,0.2-1.6,0.4-2.4,0.5c-1,0.2-2,0.5-3,1c-1,0.4-1.8,1.1-2.5,1.9
			c-0.7,0.8-1.2,1.7-1.3,2.8c-0.1,1.3-0.3,2.6-0.3,3.9c-0.1,2.4-0.1,4.9-0.1,7.3c0,19.1,0,38.2,0,57.3c0,1.4,0,2.7,0.1,4.1
			c0.1,1.7,0.4,3.4,0.8,5c0.6,2.2,2,3.8,4.1,4.9c1.8,0.9,3.7,1.5,5.7,1.8c1.7,0.2,3.4,0.4,5,1c0.4,0.1,0.8,0.3,1.1,0.5
			c1.2,0.7,1.4,2.4,0.2,3.2c-0.4,0.3-0.8,0.6-1.3,0.6c-0.9,0.1-1.8,0.2-2.7,0.1c-2.7-0.1-5.3-0.1-8-0.5c-0.1,0-0.2,0-0.2,0
			c-4.6-0.2-9.2-0.4-13.8-0.5c-2.5-0.1-5,0-7.5,0.3c-1,0.1-1.9,0.1-2.9,0.1c-1.1,0.1-2.2,0.2-3.4,0.3c-1.5,0.1-2.9,0.2-4.3,0.3
			c-0.5,0-1,0-1.5-0.1c-0.7-0.1-1.2-0.4-1.5-1.1c-0.3-0.8-0.2-1.6,0.5-2.2c0.4-0.4,0.9-0.7,1.4-0.9c0.6-0.3,1.2-0.4,1.8-0.6
			c1.2-0.4,2.4-1,3.5-1.6c2.2-1.3,3.4-3.1,3.8-5.6c0.2-1.6,0.4-3.2,0.5-4.8c0.1-1.5,0.1-2.9,0.1-4.4
			C865.6,772.7,865.6,762.9,865.5,753.1L865.5,753.1z"/>
	</g>
</g>
</svg>
